<?xml version="1.0" encoding="utf-8" ?><svg xmlns="http://www.w3.org/2000/svg" xmlns:xlink="http://www.w3.org/1999/xlink" width="1024" height="1024" viewBox="0 0 1024 1024"><path fill="#CB9C4E" d="M517.004 607.235C513.671 605.181 505.48 603.167 505.174 600.359C503.822 587.985 523.818 600.718 527.773 602.756C529.059 603.419 527.945 605.28 530.093 606.864C532.915 606.679 535.18 605.357 537.469 603.72C553.64 592.155 550.569 571.486 553.215 555.784L553.513 556.896C553.498 557.952 553.346 558.927 553.843 559.883C557.782 606.768 567.399 607.85 611.889 612.707C603.826 613.631 573.905 616.074 569.784 622.366C572.266 624.959 592.883 626.077 582.472 636.183C580.753 637.852 569.529 629.978 567.858 628.551C568.286 626.172 568.679 626.371 567.749 624.81C566.796 624.641 566.552 624.408 565.588 625.277C558.527 631.637 557.124 638.488 555.683 647.074C554.755 652.608 554.426 662.526 553.362 666.704L553.077 666.658C552.966 666.053 552.984 666.134 552.704 665.577C551.744 655.567 550.932 637.359 544.925 629.519C535.702 617.483 521.909 616.348 508.647 614.054C503.854 613.985 497.162 613.337 492.375 612.752C497.168 612.133 503.511 611.332 508.28 611.17L508.527 609.528C511.486 608.523 514.117 608.294 517.004 607.235Z"/><path fill="white" d="M517.004 607.235C517.754 607.179 518.243 607.295 518.997 607.551C520.995 608.23 527.463 604.586 528.664 605.454L528.65 605.502L528.601 605.525L528.585 605.579C530.771 609.25 519.598 609.385 517.252 610.064C513.591 611.124 511.773 610.895 508.527 609.528C511.486 608.523 514.117 608.294 517.004 607.235Z"/><path fill="#DBB37C" d="M492.375 612.752C497.168 612.133 503.511 611.332 508.28 611.17C509.713 612.345 506.341 612.289 505.263 612.498L504.977 612.806L504.913 612.733C506.079 613.114 507.544 613.591 508.647 614.054C503.854 613.985 497.162 613.337 492.375 612.752Z"/><path fill="#CB9C4E" d="M430.479 908.727C442.903 907.11 464.312 906.517 472.28 895.914C478.992 886.981 478.76 870.028 479.864 859.078C484.71 902.578 484.58 903.425 528.894 908.719C514.629 909.924 499.017 909.894 488.446 920.56C479.407 929.68 482.78 952.23 480.043 954.715C479.992 953.611 479.868 952.581 479.642 951.497L479.454 950.491C478.56 939.592 478.34 925.853 469.414 918.177C460.723 910.704 441.754 909.271 430.479 908.727Z"/><path fill="#CB9C4E" d="M366.922 111.501C367.945 120.802 368.597 137.052 376.33 142.815C385.582 149.71 398.578 149.181 409.184 150.983C377.475 154.102 368.47 156.225 367.422 190.418L366.642 191.324C365.323 182.166 366.099 169.42 359.746 161.739C352.383 152.836 337.097 152.327 326.448 151.362L326.167 150.535C358.752 149.714 364.019 142.651 366.173 111.67L366.922 111.501Z"/><path fill="#CB9C4E" d="M348.637 276.891C349.376 278.238 349.422 280.571 349.493 282.239C349.987 293.938 350.636 302.965 363.346 307.547C368.692 309.475 381.12 309.488 383.858 314.261L383.854 315.733C381.419 317.936 371.688 316.38 368.616 315.251C368.127 315.072 367.832 313.546 367.7 313.018C365.205 312.76 361.843 313.667 359.617 314.815C349.081 320.248 349.57 335.285 348.56 345.906C345.88 330.762 349.2 314.45 328.411 312.728C327.423 313.962 327.406 314.582 325.81 314.549C322.711 314.484 315.05 314.536 312.647 313.204C311.935 311.566 312.057 312.448 312.671 310.439C314.927 309.573 319.075 309.535 321.583 309.329C345.451 307.375 345.856 299.659 348.196 278.799C348.543 278.001 348.514 277.807 348.637 276.891Z"/><path fill="#CB9C4E" d="M650.428 738.389L650.971 739.007C652.184 740.372 652.786 741.089 653.884 742.542C653.97 748.7 656.607 770.277 648.501 770.112C645.781 770.056 643.788 767.489 644.224 764.754C645.352 757.476 643.417 747.608 644.588 740.768C646.326 739.689 647.421 738.827 649.464 738.544L650.428 738.389Z"/><path fill="#CB9C4E" d="M572.626 912.486C574.347 914.045 577.166 917.501 574.992 919.719C570.438 924.367 562.385 934.734 557.268 938.016C555.215 939.333 548.456 933.066 553.12 929.306C556.676 926.438 567.201 912.638 571.394 912.087C571.79 912.275 572.2 912.366 572.626 912.486Z"/><path fill="#CB9C4E" d="M514.274 966.877C519.847 967.387 522.777 972.246 519.171 975.156C514.07 979.273 506.118 986.445 500.872 989.94C488.387 989.947 497.235 978.41 503.346 975.835C504.622 975.297 511.906 968.555 514.274 966.877Z"/><path fill="#CB9C4E" d="M543.141 940.388C545.09 940.685 547.172 941.312 548.551 942.751C551.904 946.252 545.135 950.983 543.02 952.568C538.122 956.238 534.553 960.489 530.175 964.533L529.456 964.522C511.13 964.37 539.778 942.528 543.141 940.388Z"/><path fill="#CB9C4E" d="M646.676 777.448C657.075 780.61 647.989 791.849 647.918 799.993C647.898 802.245 645.724 807.187 643.351 808.415L642.494 808.877C641.469 808.524 637.933 807.49 637.588 806.689C636.395 803.912 639.727 794.55 640.408 791.49L640.902 789.242L641.879 784.742C642.852 779.962 642.751 779.913 646.676 777.448Z"/><path fill="#CB9C4E" d="M616.588 670.255C617.174 668.044 618.509 666.288 620.988 666.238L622.938 666.185C626.039 668.511 635.989 684.457 638.145 688.505C637.807 690.191 637.464 691.639 636.901 693.266C635.413 692.754 636.382 694.176 634.885 695.558C633.626 693.807 629.9 693.636 628.852 690.811C626.535 684.566 617.848 676.077 616.588 670.255Z"/><path fill="#CB9C4E" d="M594.545 882.836C598.77 883.931 602.827 887.377 599.769 890.606C595.204 895.425 588.158 906.007 583.333 909.528C571.718 907.771 580.645 899.243 584.203 894.867C584.877 894.051 585.535 893.223 586.177 892.382C588.989 888.643 590.717 885.389 594.545 882.836Z"/><path fill="#CB9C4E" d="M642.187 700.098C643.011 700.841 644.388 702.112 644.757 703.214C647.148 710.338 649.629 717.859 650.99 725.255C651.46 729.294 647.156 733.022 643.718 729.779C641.577 727.759 641.269 723.029 640.425 720.249C639.409 716.903 638.562 713.497 637.399 710.185C636.42 707.398 635.894 705.569 636.163 702.619C638.718 700.829 639.096 700.674 642.187 700.098Z"/><path fill="#CB9C4E" d="M615.988 850.846C630.235 851.695 616.249 865.922 613.685 870.809C612.308 873.432 609.937 876.339 608.031 878.536C597.802 878.347 601.775 871.329 605.861 866.061C609.547 861.309 611.585 855.068 615.988 850.846Z"/><path fill="#CB9C4E" d="M634.41 815.877C636.533 816.065 641.547 817.456 640.445 820.239C637.781 826.969 633.394 840.561 628.032 845.009C618.61 844.578 622.41 837.156 625.536 831.789C628.378 826.908 630.376 819.747 634.41 815.877Z"/><path fill="#CB9C4E" d="M485.673 991.445C488.862 991.984 491.39 993.586 491.453 997.274C491.477 998.669 488.06 1001.27 487.05 1002.08L478.886 1008.72C476.069 1011.03 474.4 1012.61 471.331 1014.66C460.319 1013.75 466.578 1004.82 472.72 1001.96C475.515 1000.66 481.002 994.471 484.205 992.393L485.673 991.445Z"/><path fill="#CB9C4E" d="M468.522 579.835C470.103 580.013 470.099 580.074 471.425 579.34C472.793 578.582 476.308 579.729 477.641 580.528C480.574 582.288 497.692 587.831 498.328 590.555C499.694 596.404 493.7 597.678 489.471 594.984C483.634 592.142 476.88 589.939 471.145 586.829C468.999 585.665 469.211 584.227 468.29 582.382C468.26 581.51 468.397 580.697 468.522 579.835Z"/><path fill="#CB9C4E" d="M594.708 637.925C600.309 639.54 609.61 651.043 614.133 655.412C617.136 658.313 613.468 661.545 611.088 662.968C605.46 660.781 601.638 653.706 596.468 650.261C591.434 646.908 586.53 640.954 594.708 637.925Z"/><path fill="#CB9C4E" d="M432.709 564.049C434.679 563.825 436.659 563.397 438.628 563.093C441.931 564.405 461.474 572.604 462.081 574.478C467.117 590.04 434.426 570.402 433.449 568.494C433.421 567.28 433.568 566.758 433.042 565.704C433.012 565.752 432.983 565.8 432.954 565.848C432.468 565.121 432.62 564.973 432.709 564.049Z"/><path fill="#CB9C4E" d="M398.126 540.826C400.617 542.698 401.179 542.522 404.274 543.329C407.818 544.329 423.695 555.141 427.063 558.011C429.133 559.775 423.755 566.01 420.508 562.967C415.99 559.532 402.921 553.083 400.473 548.52C399.229 545.937 398.939 544.778 397.033 542.758C397.58 541.914 397.745 541.726 398.126 540.826Z"/><path fill="white" d="M398.126 540.826C400.617 542.698 401.179 542.522 404.274 543.329C401.537 545.562 401.779 545.058 400.473 548.52C399.229 545.937 398.939 544.778 397.033 542.758C397.58 541.914 397.745 541.726 398.126 540.826Z"/><path fill="#CB9C4E" d="M382.136 519.572C385.115 521.94 386.728 525.594 389.265 528.45C391.763 531.261 394.724 533.696 396.895 536.755C397.412 537.483 397.767 539.77 398.126 540.826C397.745 541.726 397.58 541.914 397.033 542.758C396.261 542.374 396.141 542.461 396.401 541.538C396.011 540.747 393.436 542.711 392.263 541.87C386.903 538.025 379.296 529.453 377.055 523.466C378.173 520.687 379.359 520.383 382.136 519.572Z"/><path fill="#CB9C4E" d="M373.316 491.771C374.44 493.49 378.224 510.636 378.022 512.892C376.007 513.958 375.905 513.99 373.703 514.513C369.219 510.013 368.176 498.24 368.614 492.158C370.709 491.717 371.251 491.445 373.316 491.771Z"/><path fill="#CB9C4E" d="M370.936 484.252C367.635 481.127 373.299 467.872 375.569 464.526C376.655 462.887 380.97 464.877 380.402 466.735C379.172 470.766 377.55 474.616 376.634 478.779C376.213 480.694 375.708 483.148 374.139 484.456L370.936 484.252Z"/><path fill="#CB9C4E" d="M394.747 441.62C394.501 442.779 395.21 443.497 394.569 444.487C393.234 447.025 388.764 451.351 387.773 453.777C385.861 459.381 378.188 460.252 380.667 453.561C381.818 450.454 388.901 441.09 392.362 440.323C393.303 440.918 393.724 441.129 394.747 441.62Z"/><path fill="#CB9C4E" d="M396.411 436.272C397.611 433.674 397.436 432.449 400.154 430.3C403.607 427.568 406.231 423.41 410.324 421.751C411.555 422.742 412.3 423.376 413.438 424.477C411.913 426.69 401.868 439.056 399.071 437.428C397.781 436.589 397.866 436.595 396.411 436.272Z"/><path fill="#CB9C4E" d="M429.692 405.573C430.913 406.616 431.342 406.924 432.079 408.336C430.424 411.77 421.278 419.338 417.38 420.368C416.733 419.272 416.47 418.74 415.947 417.599C416.066 414.047 426.525 406.59 429.692 405.573Z"/><path fill="#CB9C4E" d="M433.827 401.551C434.568 399.007 444.515 391.226 447.055 390.008L447.717 390.642C448.549 391.42 449.159 392.233 449.867 393.115C448.5 396.152 439.578 403.538 436.323 404.207C435.481 403.331 434.649 402.446 433.827 401.551Z"/><path fill="#CB9C4E" d="M451.382 386.215C451.812 383.943 459.367 373.525 460.74 373.514C469.658 373.443 456.89 387.546 453.601 388.784C452.841 387.928 452.058 387.141 451.382 386.215Z"/><path fill="#CB9C4E" d="M450.448 331.557C446.915 331.698 436.544 326.275 436.11 324.215C434.701 317.523 451.182 325.1 451.991 329.349C451.224 330.291 451.078 330.527 450.448 331.557Z"/><path fill="#CB9C4E" d="M455.47 332.22L457.741 332.401C460.72 332.639 473.313 346.802 464.609 346.81C464.405 346.811 455.656 336.457 454.573 335.215C454.931 334.446 455.293 333.736 455.38 332.88L455.47 332.22Z"/><path fill="#CB9C4E" d="M431.146 321.032C428.64 325.663 425.455 321.454 420.737 321.557C419.916 321.575 413.997 320.197 413.772 319.704C410.507 312.537 429.004 317.307 430.855 319.733L431.146 321.032Z"/><path fill="#CB9C4E" d="M466.973 351.282C473.008 351.562 470.148 355.59 470.149 360.753C470.149 362.547 468.749 365.708 467.811 367.254L467.33 368.074C461.463 367.481 464.831 364.37 465.285 359.374C465.488 357.141 466.357 353.393 466.973 351.282Z"/><path fill="#CB9C4E" d="M391.753 313.391C393.904 313.291 404.183 313.785 405.758 314.492C406.304 314.742 406.718 315.214 406.893 315.788C407.272 317.056 406.513 318.195 405.939 319.266C401.975 318.856 395.334 318.288 391.359 317.31C389.839 316.935 391.297 314.248 391.753 313.391Z"/><path fill="#CB9C4E" d="M268.598 302.176C272.373 302.885 278.066 305.113 281.749 305.535C284.3 305.828 284.444 308.332 283.983 308.51C279.731 310.152 269.255 307.644 267.097 303.508L268.598 302.176Z"/><path fill="#CB9C4E" d="M289.832 308.194C291.593 307.594 293.588 307.537 295.502 307.932C296.896 308.238 304.579 308.42 305.216 309.485C306.646 311.876 304.44 312.671 302.252 312.465C298.786 312.138 292.118 312.278 289.282 310.269L289.832 308.194Z"/><path fill="#CB9C4E" d="M251.904 289.288C256.718 294.222 257.986 295.183 263.157 299.554L262.422 301.673C257.149 300.95 251.935 296.327 249.825 291.59C250.581 290.789 251.194 290.128 251.904 289.288Z"/><path fill="#CB9C4E" d="M247.914 286.086C244.704 283.623 242.118 272.514 244.871 270.537C247.377 270.746 247.749 275.107 247.943 277.001C248.195 279.448 250.223 283.344 248.801 284.958L247.914 286.086Z"/><path fill="#CB9C4E" d="M250.692 249.333L252.691 250.612C250.87 254.91 249.209 259.004 247.893 263.493C247.809 263.78 247.346 264.442 247.019 264.471C241.035 265.007 249.59 250.674 250.692 249.333Z"/><path fill="#CB9C4E" d="M263.024 231.812L264.605 233.565C263.903 235.482 256.997 244.828 254.93 244.503C252.19 242.364 260.901 232.633 263.024 231.812Z"/><path fill="#CB9C4E" d="M267.827 226.168C269.038 224.552 275.849 217.459 277.96 217.365C282.145 217.178 277.326 221.773 276.314 222.532C273.185 224.881 272.431 227.828 268.285 228.38C268.137 227.636 267.996 226.908 267.827 226.168Z"/><path fill="#CB9C4E" d="M283.725 212.653C284.294 210.607 288.326 208.036 290.302 206.58C297.657 201.157 296.802 207.854 290.429 210.902C288.508 211.821 287.971 213.524 284.691 214.003C284.377 213.547 284.055 213.097 283.725 212.653Z"/><path fill="#CB9C4E" d="M311.475 192.949C314.071 195.877 310.999 196.835 308.615 198.472C306.282 200.074 303.667 201.57 301.183 202.916C297.325 199.369 308.732 194.617 311.475 192.949Z"/><path fill="#CB9C4E" d="M326.557 184.977C329.902 184.469 328.12 188.343 325.253 188.83C325.361 188.812 319.13 191.982 318.865 192.117C312.911 190.178 325.018 185.649 326.557 184.977Z"/><path fill="white" d="M373.703 514.513C375.905 513.99 376.007 513.958 378.022 512.892C378.212 516.516 379.276 517.231 382.136 519.572C379.359 520.383 378.173 520.687 377.055 523.466C375.145 518.908 377.926 519.207 373.703 514.513Z"/><defs><linearGradient id="gradient_0" gradientUnits="userSpaceOnUse" x1="635.55536" y1="695.80518" x2="639.03937" y2="699.89264"><stop offset="0" stop-color="white" stop-opacity="0.93333334"/><stop offset="1" stop-color="white"/></linearGradient></defs><path fill="url(#gradient_0)" d="M634.885 695.558C636.382 694.176 635.413 692.754 636.901 693.266C637.814 697.319 639.4 696.857 642.187 700.098C639.096 700.674 638.718 700.829 636.163 702.619C636.364 695.189 636.45 700.511 634.885 695.558Z"/><path fill="white" d="M415.947 417.599C416.47 418.74 416.733 419.272 417.38 420.368C415.849 421.731 414.706 422.879 413.438 424.477C412.3 423.376 411.555 422.742 410.324 421.751C413.312 420.846 414.078 419.967 415.947 417.599Z"/><path fill="white" d="M451.382 386.215C452.058 387.141 452.841 387.928 453.601 388.784C451.456 389.765 450.9 390.991 449.867 393.115C449.159 392.233 448.549 391.42 447.717 390.642L447.055 390.008C449.234 388.394 449.484 388.271 451.382 386.215Z"/><path fill="white" d="M433.827 401.551C434.649 402.446 435.481 403.331 436.323 404.207C434.405 405.778 433.681 406.405 432.079 408.336C431.342 406.924 430.913 406.616 429.692 405.573C432.211 404.21 432.52 403.899 433.827 401.551Z"/><path fill="white" fill-opacity="0.95686275" d="M647.821 732.557L647.895 733.503C648.051 735.874 649.008 736.434 650.428 738.389L649.464 738.544C647.421 738.827 646.326 739.689 644.588 740.768C645.15 738.696 645.753 737.53 646.348 735.645C646.811 734.603 647.303 733.573 647.821 732.557Z"/><path fill="white" fill-opacity="0.98039216" d="M371.116 485.889C371.88 486.055 371.882 486.04 372.544 486.442C372.493 489.14 372.53 489.176 373.316 491.771C371.251 491.445 370.709 491.717 368.614 492.158C369.398 490.228 370.426 487.81 371.116 485.889Z"/><path fill="white" fill-opacity="0.94901961" d="M396.411 436.272C397.866 436.595 397.781 436.589 399.071 437.428C396.95 438.898 396.396 439.627 394.747 441.62C393.724 441.129 393.303 440.918 392.362 440.323C393.701 438.963 395.051 437.612 396.411 436.272Z"/><path fill="white" fill-opacity="0.88235295" d="M616.588 670.255C617.086 667.234 612.348 662.989 616.817 664.714C619.772 665.854 619.704 666.232 622.938 666.185L620.988 666.238C618.509 666.288 617.174 668.044 616.588 670.255Z"/><path fill="white" fill-opacity="0.93725491" d="M468.29 582.382C465.875 580.977 465.319 580.821 462.745 579.764C464.436 577.236 465.362 578.807 468.522 579.835C468.397 580.697 468.26 581.51 468.29 582.382Z"/><path fill="white" fill-opacity="0.91764706" d="M433.449 568.494C433.822 568.945 428.415 562.355 428.615 563.685C428.221 561.061 431.99 563.606 432.709 564.049C432.62 564.973 432.468 565.121 432.954 565.848C432.983 565.8 433.012 565.752 433.042 565.704C433.568 566.758 433.421 567.28 433.449 568.494Z"/><path fill="white" fill-opacity="0.90196079" d="M263.157 299.554C265.222 300.684 266.045 301.485 268.598 302.176L267.097 303.508C265.062 302.487 264.574 302.216 262.422 301.673L263.157 299.554Z"/><path fill="white" fill-opacity="0.94509804" d="M247.914 286.086L248.801 284.958C249.795 287.145 249.616 286.924 251.342 288.701L251.904 289.288C251.194 290.128 250.581 290.789 249.825 291.59C249.315 289.619 248.814 287.919 247.914 286.086Z"/><path fill="white" fill-opacity="0.91764706" d="M254.184 244.868C253.725 246.893 253.228 248.64 252.691 250.612L250.692 249.333C251.554 248.101 253.112 246.324 254.184 244.868Z"/><path fill="white" fill-opacity="0.9137255" d="M452.439 332.353C452.614 332.009 452.783 331.662 452.945 331.313C453.96 331.766 454.393 332.062 455.47 332.22L455.38 332.88C455.293 333.736 454.931 334.446 454.573 335.215C453.711 334.099 453.241 333.568 452.439 332.353Z"/><path fill="white" fill-opacity="0.81176472" d="M286.45 307.653C287.717 307.911 288.545 308.051 289.832 308.194L289.282 310.269C287.931 309.5 287.136 309.09 285.685 308.556L286.45 307.653Z"/><path fill="white" fill-opacity="0.15294118" d="M571.394 912.087C572.146 911.732 572.731 911.437 573.522 911.16C575.106 912.09 575.206 911.975 577.025 912.38C575.021 912.797 574.614 912.81 572.626 912.486C572.2 912.366 571.79 912.275 571.394 912.087Z"/><path fill="white" fill-opacity="0.90980393" d="M265.489 229.631L266.238 230.606L265.715 231.423C265.26 232.114 264.922 232.804 264.605 233.565L263.024 231.812C263.856 231.097 264.678 230.37 265.489 229.631Z"/><path fill="white" fill-opacity="0.67450982" d="M267.827 226.168C267.996 226.908 268.137 227.636 268.285 228.38C267.588 229.108 266.905 229.851 266.238 230.606L265.489 229.631C266.619 228.054 267.461 228.105 267.827 226.168Z"/><path fill="white" fill-opacity="0.59215689" d="M370.936 484.252L374.139 484.456C373.478 485.519 373.469 485.685 372.544 486.442C371.882 486.04 371.88 486.055 371.116 485.889C371.044 485.319 370.981 484.826 370.936 484.252Z"/><path fill="white" fill-opacity="0.50196081" d="M573.522 911.16C576.251 909.91 576.897 909.108 577.025 912.38C575.206 911.975 575.106 912.09 573.522 911.16Z"/><path fill="white" fill-opacity="0.61960787" d="M450.448 331.557C451.078 330.527 451.224 330.291 451.991 329.349C452.336 330.022 452.652 330.613 452.945 331.313C452.783 331.662 452.614 332.009 452.439 332.353C451.679 332.015 451.235 331.834 450.448 331.557Z"/><path fill="white" fill-opacity="0.29019609" d="M646.348 735.645C646.346 735.664 646.788 729.756 648.326 731.848C648.3 732.133 647.989 732.375 647.821 732.557C647.303 733.573 646.811 734.603 646.348 735.645Z"/><path fill="white" fill-opacity="0.44313726" d="M315.75 192.019C316.092 193.584 314.585 193.809 313.204 194.513C313.215 192.617 314.017 192.858 315.75 192.019Z"/><path fill="white" fill-opacity="0.27058825" d="M521.952 965.248C522.274 965.243 522.596 965.238 522.918 965.233C522.79 965.793 522.327 966.021 521.863 966.35C520.357 966.654 520.9 965.698 521.952 965.248Z"/><path fill="white" fill-opacity="0.6156863" d="M283.725 212.653C284.055 213.097 284.377 213.547 284.691 214.003C280.928 215.948 280.675 215.62 283.725 212.653Z"/><path fill="white" fill-opacity="0.05882353" d="M430.855 319.733C431.893 320.702 431.677 320.274 432.974 320.446L432.517 321.996C432.128 321.712 431.567 321.28 431.146 321.032L430.855 319.733Z"/><path fill="white" fill-opacity="0.1882353" d="M432.974 320.446C435.457 321.551 434.888 322.105 432.517 321.996L432.974 320.446Z"/><path fill="white" fill-opacity="0.25490198" d="M285.685 308.556C283.72 307.245 285.051 306.537 286.45 307.653L285.685 308.556Z"/><path fill="#DBB37C" fill-opacity="0.66274512" d="M366.173 111.67C366.173 111.659 366.14 110.7 366.142 110.692C366.644 109.16 366.892 111.24 366.922 111.501L366.173 111.67Z"/><path fill="#DBB37C" fill-opacity="0.66274512" d="M326.448 151.362C326.133 151.374 325.698 151.438 325.382 151.364C325.271 151.338 325.092 151.282 325.039 151.164C325.016 151.114 325.029 151.06 325.058 151.015C325.251 150.718 325.927 150.605 326.167 150.535L326.448 151.362Z"/><path fill="#DBB37C" fill-opacity="0.81176472" d="M366.642 191.324L367.422 190.418C367.378 191.021 367.43 191.855 366.997 192.349C366.59 192.362 366.654 191.476 366.642 191.324Z"/><path fill="#DBB37C" fill-opacity="0.51372552" d="M553.513 556.896L553.713 557.693C553.916 558.448 553.934 559.112 553.843 559.883C553.346 558.927 553.498 557.952 553.513 556.896Z"/><path fill="#DBB37C" fill-opacity="0.67450982" d="M479.454 950.491L479.642 951.497C479.868 952.581 479.992 953.611 480.043 954.715C479.372 952.732 479.484 952.624 479.454 950.491Z"/><path fill="#CB9C4E" d="M446.686 1024C448.183 1022.45 454.371 1015.89 456.751 1016.31C460.621 1017 461.888 1020.37 461.663 1024L446.686 1024Z"/></svg>