<?xml version="1.0" encoding="utf-8" ?><svg xmlns="http://www.w3.org/2000/svg" xmlns:xlink="http://www.w3.org/1999/xlink" width="1024" height="1024" viewBox="0 0 1024 1024"><path fill="#BC7D40" d="M474.347 332.395L475.5 333.482C476.203 343.121 475.802 359.989 489.979 360.298C490.587 360.311 490.549 360.161 490.976 359.709C491.912 359.34 492.813 359.04 493.765 358.713C497.625 360.545 497.282 358.35 499.861 358.791C500.902 359.275 501.93 359.787 502.943 360.327C501.912 361.64 501.787 361.707 500.258 362.188C500.248 363.302 498.815 363.512 497.923 363.751C497.554 363.854 497.187 363.96 496.82 364.069C476.082 366.168 476.559 373.809 475.597 391.967L474.506 391.566C472.957 367.561 471.089 365.298 447.29 363.836C449.135 361.962 450.772 363.191 454.251 361.45C459.757 360.624 464.735 360.188 469.096 356.204C474.291 351.458 474.429 339.281 474.347 332.395Z"/><path fill="#FFFEFE" d="M493.765 358.713C497.625 360.545 497.282 358.35 499.861 358.791C500.902 359.275 501.93 359.787 502.943 360.327C501.912 361.64 501.787 361.707 500.258 362.188C498.273 362.031 491.399 361.911 490.976 359.709C491.912 359.34 492.813 359.04 493.765 358.713Z"/><path fill="#BC7D40" d="M622.708 537.097C626.643 572.365 622.198 568.185 657.453 573.435C631.082 575.939 625.267 572.039 623.737 601.128L622.594 600.223C620.737 574.187 613.375 574.477 589.328 573.344C624.415 570.036 619.338 569.241 622.708 537.097Z"/><path fill="#BC7D40" d="M476.461 125.01L477.179 125.048C477.845 132.108 477.506 141.388 483.398 146.7C487.521 150.417 491.859 147.612 494.984 148.722C501.082 150.888 502.807 151.302 509.496 151.764C501.655 152.477 486.466 152.452 481.183 158.372C476.658 163.443 478.626 173.402 477.04 177.517L475.708 177.856C474.687 171.568 475.971 163.307 470.662 157.436C466.604 152.949 453.997 152.273 447.863 152.015L449.342 151.007C469.987 150.135 475.289 146.524 475.966 125.551L476.461 125.01Z"/><path fill="#BC7D40" d="M387.175 751.359C389.227 756.572 387.023 770.154 391.702 775.907C396.719 782.077 404.532 779.261 410.753 780.269C412.715 780.587 413.331 782.017 418.689 782.678C411.205 784.044 399.765 783.146 394.071 787.599C388.643 791.845 388.215 805.03 387.59 811.882L387.268 812.881C385.904 809.36 387.246 795.677 383.374 790.199C378.436 783.213 366.381 784.271 357.781 782.305L356.936 782.108C385.352 779.529 384.547 781.295 387.175 751.359Z"/><path fill="#D3A85C" d="M726.242 352.398C732.108 352.593 731.387 354.896 735.102 359.69C738.517 364.097 740.531 370.171 741.911 375.503C742.405 377.413 741.613 378.074 740.587 379.5C736.146 379.264 736.303 378.796 734.883 373.781C732.798 366.415 728.336 361.353 725.143 354.735C724.868 354.164 725.975 352.79 726.242 352.398Z"/><path fill="#D3A85C" d="M400.33 217.811C409.387 219.341 403.048 224.343 399.496 227.252C395.778 230.297 392.401 234.682 388.561 237.878C385.777 237.871 383.157 235.64 383.876 234.21C385.406 231.167 398.247 219.505 400.33 217.811Z"/><path fill="#D3A85C" d="M612.951 42.85C620.509 45.9686 612.21 50.6518 608.857 53.2015C605.836 55.4988 601.765 59.0826 598.511 60.6188L596.858 61.3962C588.168 57.5583 598.207 53.4167 601.587 50.7932C605.656 47.6348 608.229 45.1524 612.951 42.85Z"/><path fill="#D3A85C" d="M603.774 586.83C604.49 587.262 607.796 589.548 606.916 590.747C603.331 595.635 594.855 604.138 589.655 607.084C580.321 602.547 591.214 598.835 594.965 594.238C596.216 592.705 600.501 589.001 602.197 587.867L603.774 586.83Z"/><path fill="#D3A85C" d="M732.61 423.695C741.5 424.506 735.435 430.826 733.572 436.424C732.292 440.268 730.193 444.919 727.532 447.955C726.746 447.758 722.825 446.503 723.112 445.679C725.074 440.039 729.277 428.397 732.61 423.695Z"/><path fill="#D3A85C" d="M525.165 111.345C530.296 111.863 530.445 115.27 526.645 118.28C521.541 122.322 516.573 126.854 511.493 130.9C506.951 130.872 506.212 126.328 510.151 123.799C515.538 120.341 520.146 115.279 525.165 111.345Z"/><path fill="#D3A85C" d="M555 88.3347C562.619 90.2356 554.772 95.5656 552.112 97.6115C547.83 100.904 543.581 104.31 539.319 107.63C535.33 106.774 534.502 103.529 538.122 100.789L539.95 99.4028C544.771 95.7779 549.876 90.7816 555 88.3347Z"/><path fill="#D3A85C" d="M677.561 509.874C686.03 512.962 679.636 516.208 675.573 521.096C672.73 524.516 669.166 528.348 665.861 531.269C663.862 531.328 660.991 527.671 662.752 525.99C667.217 521.73 672.931 513.351 677.561 509.874Z"/><path fill="#D3A85C" d="M427.102 194.809C437.995 196.863 426.191 203.84 422.692 207.328C420.901 209.113 417.901 212.053 415.887 213.371L415.079 213.915C410.667 213.392 409.589 209.546 413.124 206.79L415.085 205.277C419.552 201.881 423.021 198.528 427.102 194.809Z"/><path fill="#D3A85C" d="M306.787 884.823C315.396 886.056 309.819 891.616 307.228 896.215C304.99 900.191 302.812 904.555 299.889 908.02C289.003 909.69 301.995 894.319 302.949 891.003C303.335 889.662 305.912 886.129 306.787 884.823Z"/><path fill="#D3A85C" d="M522.926 658.448C524.81 659.085 528.34 661.141 527.001 662.561C524.23 665.5 513.491 676.313 510.405 678.007C498.969 673.826 513.608 668.916 516.945 663.864C517.738 662.664 521.64 659.31 522.926 658.448Z"/><path fill="#D3A85C" d="M582.614 65.4344C586.137 65.1482 588.401 68.4605 586.494 69.983C581.049 74.3305 574.603 79.2993 569.292 83.7778C565.764 84.8314 564.199 81.6926 564.6 80.7359C565.716 78.0747 580.687 66.7417 582.614 65.4344Z"/><path fill="#D3A85C" d="M289.544 351.726C295.736 353.05 294.255 356.015 292.295 360.877C290.187 366.108 289.357 372.215 287.215 377.304L286.48 377.18C285.243 376.984 282.413 376.433 282.439 374.774C282.54 368.572 286.372 356.785 289.544 351.726Z"/><path fill="#D3A85C" d="M658.137 538.332C657.789 540.828 644.729 555.301 643.498 555.436C629.308 556.995 652.519 536.06 654.178 535.997L654.88 535.956C656.169 537.008 656.734 537.461 658.137 538.332Z"/><path fill="#D3A85C" d="M306.885 320.706C309.15 321.583 313.172 323.276 311.241 325.98C307.223 331.606 303.238 338.661 299.201 344.119C294.333 342.842 293.861 340.466 296.831 336.378C300.49 331.342 303.34 325.676 306.885 320.706Z"/><path fill="#D3A85C" d="M374.968 242.742C376.248 242.921 377.009 243.199 378.022 244.021C378.654 244.534 379.1 245.163 379.121 245.999C379.166 247.842 366.608 260.881 364.464 263.303C355.06 262.013 362.35 255.215 365.868 251.883C368.945 248.97 371.913 245.716 374.968 242.742Z"/><path fill="#D3A85C" d="M471.262 705.853C478.536 710.569 470.623 713.203 466.585 717.274C463.735 720.146 460.339 723.786 456.895 725.737L456.696 725.634C448.644 721.586 456.862 718.74 460.862 714.357C463.561 711.401 467.774 707.77 471.262 705.853Z"/><path fill="#D3A85C" d="M496.163 682.289C506.276 684.625 496.158 690.197 492.68 693.684C489.911 696.46 486.856 699.373 483.8 701.789C478.162 701.269 479.088 696.797 482.977 693.934C487.238 690.797 492.213 685.91 496.163 682.289Z"/><path fill="#D3A85C" d="M695.603 330.372C702.903 332.039 711.479 336.557 717.533 340.95C719.952 342.704 717.477 345.147 716.157 346.498L715.92 346.427C712.542 345.439 708.121 341.76 704.488 339.741C699.284 336.85 689.774 337.248 695.603 330.372Z"/><path fill="#D3A85C" d="M325.953 856.264C326.94 856.394 331.024 857.171 330.511 858.742C328.655 864.426 321.787 874.008 317.973 878.456L316.919 878.208C309.152 876.452 317.457 869.134 319.658 865.315C321.258 862.538 323.938 858.637 325.953 856.264Z"/><path fill="#D3A85C" d="M738.613 388.911C745.235 389.485 743.866 391.267 743.059 397.751C742.459 402.58 742.445 410.491 740.063 414.494C734.081 414.474 735.225 411.729 735.976 406.25C736.385 403.269 737.017 391.119 738.202 389.518L738.613 388.911Z"/><path fill="#D3A85C" d="M641.985 21.3612C647.055 22.0953 647.071 25.3335 642.999 28.0528C637.754 31.5547 632.636 35.9629 627.29 39.3561C627.014 39.3418 626.738 39.3397 626.463 39.3115C625.635 39.2265 624.762 38.6779 624.269 38.0187C623.748 37.3221 623.386 36.3783 623.557 35.5022C623.925 33.6175 639.437 23.1607 641.985 21.3612Z"/><path fill="#D3A85C" d="M290.362 916.701C291.358 917.01 294.822 918.154 294.398 919.508C292.822 924.544 288.764 938.628 285.701 942.407C285.296 942.317 284.89 942.233 284.482 942.155C277.694 940.838 285.351 930.602 286.02 926.259C286.432 923.586 288.53 918.759 290.362 916.701Z"/><path fill="#D3A85C" d="M542.167 339.027C545.488 339.508 545.592 343.844 544.83 344.396C542.111 346.363 526.975 349.852 524.113 350.492C522.431 350.44 521.86 350.195 521.284 348.568C520.988 347.713 521.08 346.772 521.536 345.99C522.457 344.377 525.798 343.611 527.506 343.155L528.49 342.901C533.269 341.636 537.452 340.37 542.167 339.027Z"/><path fill="#D3A85C" d="M576.26 611.317C579.886 611.929 582.393 614.116 579.265 616.753C574.17 621.047 568.733 625.879 563.735 630.209C560.746 630.425 559.268 628.372 559.916 626.491C561.085 623.094 573.624 613.383 576.26 611.317Z"/><path fill="#D3A85C" d="M549.695 634.869C551.036 635.087 552.248 635.217 553.151 636.382C553.569 636.931 553.738 637.63 553.616 638.309C553.369 639.769 539.342 652.452 537.094 654.08C528.963 651.405 535.901 647.064 539.226 643.945C542.721 640.667 545.71 637.601 549.695 634.869Z"/><path fill="#D3A85C" d="M660.658 323.146C667.246 323.693 672.565 324.177 679.01 325.356C685.058 326.461 683.665 331.339 681.124 331.758C678.856 331.477 660.262 329.408 658.116 327.711C657.908 327.545 656.941 324.15 659.828 323.382L660.658 323.146Z"/><path fill="#D3A85C" d="M454.603 171.877C456.704 172.061 459.944 173.128 459.088 174.784C457.753 177.369 443.531 188.694 441.289 190.187C439.02 190.115 437.12 189.456 437.224 186.613C437.271 185.322 439.118 183.902 440.106 183.284C445.398 179.977 449.588 175.559 454.603 171.877Z"/><path fill="#D3A85C" d="M349.131 406.559C349.748 406.509 351.142 406.237 351.698 406.662C352.689 407.418 352.946 409.899 352.329 410.923C351.3 412.631 349.272 413.123 347.508 413.629C347.089 413.736 346.669 413.844 346.249 413.951C341.527 414.985 336.802 416.094 332.081 417.139C328.069 417.181 326.375 411.531 333.005 410.621C336.938 410.082 345.027 407.603 349.131 406.559Z"/><path fill="#D3A85C" d="M718.238 455.375C726.168 456.874 719.7 462.526 717.437 466.714C715.397 470.489 712.683 475.035 709.615 477.959C705.358 476.358 704.19 474.602 707.307 470.859C710.51 467.014 714.242 459.097 717.541 456.044L718.238 455.375Z"/><path fill="#D3A85C" d="M574.214 331.573C579.895 331.06 580.94 336.835 573.744 337.894C570.526 338.368 562.625 340.525 559.161 341.448L558.609 341.599C555.176 341.91 553.069 339.424 554.236 337.302C555.384 335.216 572.053 332.031 574.214 331.573Z"/><path fill="#D3A85C" d="M351.253 268.282C356.69 270.716 355.31 272.77 351.765 276.263C347.656 280.311 344.764 284.803 340.395 288.719C336.475 287.462 334.628 285.668 338.148 282.145C342.053 278.235 345.55 272.591 349.874 269.31L351.253 268.282Z"/><path fill="#D3A85C" d="M443.938 730.421C444.777 730.761 449.124 733 447.599 734.534C443.442 738.716 436.187 746.501 431.279 749.356C427.225 747.196 425.765 745.579 430.501 741.96C434.985 738.534 439.359 733.3 443.938 730.421Z"/><path fill="#D3A85C" d="M605.616 326.161C609.248 325.594 615.166 325.269 611.946 330.705C611.342 331.725 598.18 333.719 596.586 333.864C595.283 334.036 590.132 335.045 589.459 334.231C585.911 329.936 590.051 328.448 593.247 328.065C597.99 327.497 601.592 326.791 605.616 326.161Z"/><path fill="#D3A85C" d="M698.672 483.774C706.421 485.17 701.886 489.306 699.052 492.783C697.089 495.191 695.005 497.846 693.126 500.31C692.039 501.765 690.924 503.2 689.783 504.614C685.028 503.704 684.183 501.356 687.265 497.544C691.005 492.918 694.361 487.893 698.672 483.774Z"/><path fill="#D3A85C" d="M369.852 802.92C376.772 804.284 374.244 806.443 370.719 810.908C367.494 814.994 363.725 818.962 360.034 822.633C351.552 820.603 357.619 815.985 361.376 811.881C363.942 809.08 366.919 805.168 369.852 802.92Z"/><path fill="#D3A85C" d="M278.422 950.72C286.025 952.276 281.918 958.052 280.587 964.26L280.089 966.509C279.273 970.261 279.033 972.902 277.081 976.307C270.428 975.476 272.814 971.844 274.135 966.007L274.846 962.992C275.839 958.624 276.135 954.596 278.422 950.72Z"/><path fill="#D3A85C" d="M347.332 828.272C355.537 831.001 350.292 834.126 347.051 838.494C344.164 842.386 342.007 846.027 338.417 849.366C336.42 849.574 333.863 848.269 334.143 846.979C334.929 843.368 345.178 830.812 347.332 828.272Z"/><path fill="#D3A85C" d="M328.116 294.274C332.74 295.312 332.985 297.507 330.073 300.79C326.295 305.05 323.141 311.741 318.644 315.274C312.255 312.855 314.258 311.157 318.149 306.134C321.198 302.199 324.496 297.648 328.116 294.274Z"/><path fill="#D3A85C" d="M638.858 323.206C640.756 323.005 647.018 321.916 647.481 324.987C648.186 329.672 645.319 328.796 641.628 329.047C638.555 329.256 635.282 329.456 632.104 329.584C629.236 329.804 619.755 331.57 623.528 325.27C624.557 323.553 636.369 323.438 638.858 323.206Z"/><path fill="#D3A85C" d="M381.641 394.965C385.26 394.988 385.837 398.812 385.099 399.515C382.661 401.838 368.501 406.668 365.772 407.52C358.707 408.118 362.737 400.548 368.95 399.916C369.355 399.875 380.636 395.366 381.641 394.965Z"/><path fill="#D3A85C" d="M414.373 381.975C417.36 382.44 417.838 386.29 417.258 386.786C414.514 389.135 400.336 394.042 397.131 394.961C394.269 394.91 393.27 392.436 394.12 391.502C396.906 388.436 410.661 383.494 414.373 381.975Z"/><path fill="#D3A85C" d="M446.535 370.342L447.524 370.478C447.969 371.136 449.662 373.714 448.839 374.516C444.836 378.394 437.378 379.363 432.317 381.73C425.855 384.754 423.217 377.908 430.793 375.776C435.741 374.384 441.233 371.518 446.535 370.342Z"/><path fill="#D3A85C" d="M418.299 753.916L418.986 753.865C431.527 753.002 410.39 770.303 408.749 771.714C406.038 771.966 403.963 769.602 404.526 768.477C405.928 765.678 416.185 755.807 418.299 753.916Z"/><path fill="#D3A85C" d="M271.91 986.666C272.574 986.707 275.974 986.96 275.993 988.014C276.117 994.92 276.402 1004.88 273.947 1011.34C267.024 1010.36 269.958 1008.3 269.867 1000.96C269.813 996.562 269.819 990.472 271.91 986.666Z"/><path fill="#D3A85C" d="M298.919 410.738C302.605 411.267 305.916 413.104 309.252 413.475C311.905 413.769 323.647 411.975 318.827 418.946L318.468 419.497C314.468 420.2 309.906 419.812 306.001 418.778C300.061 417.205 295.105 417.318 298.919 410.738Z"/><path fill="#D3A85C" d="M493.765 358.713C490.824 352.638 494.663 354.079 499.977 351.828C501.466 351.198 509.934 347.885 511.01 348.949C517.245 355.12 503.811 356.513 499.861 358.791C497.282 358.35 497.625 360.545 493.765 358.713Z"/><path fill="#D3A85C" d="M282.776 386.784C285.68 387.356 286.2 387.041 286.643 389.728C287.303 393.726 288.303 398.462 290.714 401.803C293.289 405.372 293.203 405.906 290.26 408.768C284.379 406.59 278.878 391.34 282.26 387.407L282.776 386.784Z"/><path fill="#D3A85C" d="M495.25 136.223C500.287 136.794 500.953 138.631 497.407 141.616C492.824 142.542 491.898 139.576 495.25 136.223Z"/><path fill="#BC8A6A" fill-opacity="0.96078432" d="M502.943 360.327C503.863 361.844 502.288 362.034 504.464 362.497C506.577 363.018 506.88 363.008 509.113 363.064C508.446 363.703 498.072 364.043 496.82 364.069C497.187 363.96 497.554 363.854 497.923 363.751C498.815 363.512 500.248 363.302 500.258 362.188C501.787 361.707 501.912 361.64 502.943 360.327Z"/><path fill="#D3A85C" fill-opacity="0.96862745" d="M447.29 363.836C446.915 363.783 442.744 363.486 442.796 362.782C443.375 362.248 453.032 361.51 454.251 361.45C450.772 363.191 449.135 361.962 447.29 363.836Z"/><path fill="#FFFEFE" fill-opacity="0.22745098" d="M654.88 535.956C658.947 535.309 660.567 532.324 658.137 538.332C656.734 537.461 656.169 537.008 654.88 535.956Z"/><path fill="#D3A85C" fill-opacity="0.95686275" d="M622.594 600.223L623.737 601.128C623.641 602.429 623.886 605.414 623.014 606.183C623.012 604.231 623.068 603.539 622.555 601.694L622.594 600.223Z"/><path fill="#D3A85C" fill-opacity="0.97647059" d="M475.708 177.856L477.04 177.517C476.977 178.566 476.92 180.058 476.677 181.071L476.241 181.232L476.419 181.63L476.331 181.679L476.252 181.654C475.944 181.256 475.804 178.581 475.708 177.856Z"/><path fill="#D7B89C" fill-opacity="0.80784315" d="M474.347 332.395C474.387 331.558 474.036 329.281 474.976 329.312C475.059 329.967 475.049 329.921 475.391 330.479L475.5 333.482L474.347 332.395Z"/><path fill="#FFFEFE" fill-opacity="0.054901961" d="M446.094 367.984C446.702 368.464 447.313 368.94 447.927 369.412L447.524 370.478L446.535 370.342C447.285 369.33 446.471 369.455 446.094 367.984Z"/><path fill="#FFFEFE" fill-opacity="0.23137255" d="M446.094 367.984C448.489 365.856 448.16 366.621 447.927 369.412C447.313 368.94 446.702 368.464 446.094 367.984Z"/><path fill="#D7B89C" fill-opacity="0.67450982" d="M447.863 152.015C447.58 152.001 445.92 152.032 446.228 151.503C446.569 150.916 449.101 151.011 449.342 151.007L447.863 152.015Z"/><path fill="#D3A85C" d="M474.506 391.566L475.597 391.967C475.576 392.837 475.567 393.707 475.569 394.577L474.47 393.379L474.506 391.566Z"/><path fill="#D7B89C" fill-opacity="0.81176472" d="M474.47 393.379L475.569 394.577C475.558 394.726 475.638 396.216 475.103 396.208C474.489 395.627 474.514 394.124 474.47 393.379Z"/><path fill="#D3A85C" d="M476.514 121.332C477.353 122.084 477.089 123.882 477.179 125.048L476.461 125.01C476.501 123.785 476.519 122.558 476.514 121.332Z"/><path fill="#D7B89C" fill-opacity="0.43137255" d="M622.555 601.694C623.068 603.539 623.012 604.231 623.014 606.183C622.46 604.145 622.428 603.804 622.555 601.694Z"/><path fill="#DFCCC3" fill-opacity="0.25490198" d="M504.464 362.497C506.744 362.468 507.061 362.321 509.113 363.064C506.88 363.008 506.577 363.018 504.464 362.497Z"/><path fill="#D7B89C" fill-opacity="0.40784314" d="M476.514 121.332C476.519 122.558 476.501 123.785 476.461 125.01L475.966 125.551C475.989 123.506 475.958 123.274 476.514 121.332Z"/><path fill="#D3A85C" d="M670.266 0L677.148 0C676.581 1.54917 675.56 6.14767 674.672 6.64972C672.291 7.99595 658.24 18.6684 656.778 18.2669C643.927 14.7355 669.859 5.10183 671.332 1.32652C671.399 1.1551 670.459 0.297801 670.266 0Z"/></svg>