<?xml version="1.0" encoding="utf-8" ?><svg xmlns="http://www.w3.org/2000/svg" xmlns:xlink="http://www.w3.org/1999/xlink" width="1280" height="832" viewBox="0 0 1280 832"><path fill="#FBFCFB" d="M0 0L23.2502 0L24.1953 0L100.133 0L131.05 0L196.432 0L1030.85 0L1078.15 0L1096.87 0L1223.32 0L1233.86 0L1279.5 0L1280 0L1280 36.9724L1280 58.6276L1280 588.529L1280 589.415L1280 637.843L1280 695.188L1280 721.278L1280 764.81L1280 832L1270.26 832L2.18496 832L0 832L0 818.647L0 793.147L0 733.809L0 155.878L0 74.4722L0 28.538L0 0Z"/><path fill="#C7AB85" d="M2.18496 832C29.9501 799.468 73.3762 782.484 115.261 779.164C127.158 778.221 138.926 778.113 150.846 778.326C157.96 778.452 165.421 779.223 172.485 778.448C192.296 776.272 211.779 763.749 224.55 748.838C260.785 706.529 223.609 664.766 284.595 623.49C298.334 614.192 315.544 606.984 332.205 605.609C346.947 604.393 361.769 606.463 373.381 616.447C380.824 622.846 384.781 632.052 385.463 641.769C386.649 658.65 377.635 673.936 366.836 686.163C350.674 704.466 319.038 717.247 320.769 746.476C321.091 751.899 323.315 757.491 327.453 761.138C332.717 765.778 340.587 766.67 347.301 766.181C370.988 764.457 390.467 757.142 415.192 760.759C423.712 762.006 432.276 764.636 439.816 768.84C452.14 775.711 458.913 783.05 474.095 784.134C484.58 784.882 494.154 782.186 501.078 773.925C505.886 768.189 508.773 760.786 508.021 753.215C507.498 747.95 505.05 743.741 500.938 740.447C485.329 727.944 460.407 735.05 441.896 734.675C434.803 734.531 427.532 733.214 420.753 731.128C414.255 729.129 408.066 726.125 403.242 721.24C398.255 716.191 394.714 709.523 393.889 702.434C392.912 694.044 395.562 685.929 400.874 679.427C405.923 673.248 412.532 668.83 419.765 665.594C435.09 658.739 467.246 654.944 465.311 631.92C464.736 625.079 460.843 619.552 455.637 615.308C445.028 606.658 432.339 604.592 419.885 600.024C401.376 593.235 386.651 579.655 384.425 559.268C382.002 537.079 393.413 514.145 407.1 497.389C419.351 482.39 435.35 468.18 455.401 466.062C466.964 464.841 479.759 467.905 488.819 475.416C494.282 479.946 497.678 485.931 498.245 493.044C498.601 497.51 498.036 502.545 496.146 506.644C492.584 514.364 486.012 520.097 481.354 527.087C473.568 538.77 470.346 555.246 482.022 565.533C490.055 572.611 501.27 574.374 511.631 573.626C527.728 572.464 542.3 565.528 552.824 553.201C563.121 541.142 568.363 524.502 567.004 508.711C565.489 491.115 555.156 475.034 541.793 463.899C523.793 448.901 497.86 447.089 485.676 425.19C482.812 420.042 480.766 414.046 480.238 408.162C479.226 396.886 483.993 385.932 491.205 377.468C505.719 360.433 529.962 352.238 551.712 350.679C581.984 348.51 617.641 362.146 640.338 381.969C654.769 394.573 666.77 412.079 668.049 431.674C668.863 444.144 665.051 455.63 656.796 465.031C639.818 484.365 609.289 484.012 596.245 508.568C593.343 514.031 591.699 520.241 592.034 526.45C592.568 536.338 597.991 546.753 605.329 553.289C624.577 570.433 651.978 562.264 672.629 583.823C677.192 588.587 680.436 594.461 680.867 601.129C681.388 609.198 677.716 617.172 672.385 623.063C654.504 642.826 624 643.334 609.522 668.631C605.657 675.326 603.762 682.977 604.057 690.701C604.395 698.776 607.616 705.959 613.651 711.394C622.463 719.331 635.957 722.105 647.495 721.387C668.013 720.112 684.919 707.751 697.955 692.72C716.911 670.864 735.718 633.399 733.719 603.754C732.834 590.63 727.109 579.705 717.171 571.154C699.334 555.807 667.254 550.973 664.912 522.579C664.022 511.787 668.527 501.878 675.452 493.806C688.509 478.586 711.169 468.03 731.038 466.754C744.571 465.885 757.623 469.524 767.9 478.57C777.486 487.01 783.144 499.843 783.851 512.502C785.096 534.817 771.67 553.481 764.473 573.693C751.665 609.662 736.08 672.658 746.043 709.049C748.713 718.8 753.674 727.562 761.168 734.402C776.283 748.197 796.489 752.384 816.387 751.314C829.84 750.591 844.866 746.974 854.197 736.584C858.302 732.013 860.06 727.37 861.515 721.493C859.596 714.015 856.677 708.44 849.837 704.388C826.918 690.807 782.566 713.598 774.475 681.743C773.194 676.702 775.123 670.945 777.729 666.64C788.73 648.47 816.637 649.996 825.9 629.708C827.577 626.033 828.274 621.942 827.291 617.977C822.516 598.716 794.999 598.617 796.081 571.34C796.299 564.82 798.146 558.458 801.454 552.836C806.078 545.05 812.324 540.656 821.11 538.435C834.061 535.161 849.131 537.77 860.538 544.608C874.619 553.05 887.246 567.699 891.126 583.8C893.441 593.409 892.35 603.395 887.06 611.853C883.089 618.203 877.251 623.169 870.958 627.12C859.597 634.252 839.236 640.222 843.241 657.761C844.61 663.759 848.2 667.611 853.366 670.735C864.712 677.596 876.684 681.177 886.309 690.865C891.634 696.226 894.684 704.191 900.772 708.723C903.179 710.515 905.784 711.123 908.719 710.373C913.189 709.23 917.75 705.433 920.028 701.459C922.585 696.998 923.831 691.194 922.331 686.189C918.767 674.302 898.442 667.916 905.803 653.37C909.134 646.787 917.513 643.316 924.14 641.244C963.388 628.969 1015.53 645.881 1050.31 664.257C1069.02 674.146 1093.07 689.796 1099.79 711.083C1102.03 718.179 1102.35 726.498 1098.82 733.241C1093.82 742.765 1084.47 748.337 1074.44 751.37C1051.03 758.455 1030.69 749.612 1006.11 762.322C999.853 765.555 994.139 770.134 990.794 776.45C989.719 778.482 989.027 780.836 988.487 783.066C989.976 789.056 991.987 793.212 997.424 796.537C1004.92 801.12 1014.76 801 1023.02 798.895C1040.07 794.548 1060.79 782.983 1078.32 776.865C1127.37 759.758 1190.85 766.354 1235.64 792.595C1251.76 802.038 1264.22 813.777 1270.26 832L2.18496 832Z"/><path fill="#FBFCFB" d="M560.695 384.036C571.679 382.769 583.4 385.018 593.552 389.266C608.663 395.589 625.173 407.921 631.419 423.466C634.347 430.752 635.009 439.024 631.786 446.324C627.032 457.089 607.196 468.81 596.493 472.953C591.472 473.602 587.631 473.563 583 471.31C575.853 467.833 571.296 460.714 565.084 455.957C555.318 448.477 544.152 442.956 534.453 435.534C528.576 431.036 524.169 425.025 523.311 417.503C522.548 410.81 524.883 404.421 529.068 399.245C536.833 389.643 548.801 385.392 560.695 384.036Z"/><path fill="#FBFCFB" d="M282.884 722.725C286.27 722.462 289.546 722.284 292.844 723.255C298.014 724.778 300.637 728.377 303.098 732.911C303.412 740.542 301.779 748.021 303.068 755.675C305.001 766.83 311.352 776.734 320.683 783.143C336.727 794.3 356.616 793.479 374.519 788.075C380.722 786.202 387.6 783.393 393.964 782.371C403.445 780.849 415.194 782.277 423.079 788.012C425.455 789.74 428.051 792.177 428.377 795.257C428.626 797.608 427.534 799.82 426.13 801.633C421.279 807.898 415.069 809.088 407.649 810.019C366.461 811.621 317.687 814.148 279.193 797.645C269.217 793.368 259.056 786.813 254.959 776.276C251.072 766.281 253.44 755.137 257.753 745.702C262.98 734.269 271.19 727.031 282.884 722.725Z"/><path fill="#FBFCFB" d="M956.273 664.063C979.118 662.522 1004.7 667.115 1025.2 677.497C1035.82 682.88 1046.93 691.7 1050.63 703.473C1052.42 709.156 1052.3 716.057 1049.42 721.37C1045.43 728.715 1037.8 732.038 1030.16 734.237C1028.13 734.777 1026.06 735.173 1024 735.551C1008.68 738.356 991.517 737.675 980.038 725.845C975.574 721.245 972.184 715.7 967.52 711.263C962.339 706.334 955.466 702.799 949.591 698.718C944.104 694.906 937.399 688.535 936.383 681.551C935.863 677.972 936.841 674.688 938.957 671.806C943.044 666.239 949.851 664.972 956.273 664.063Z"/><path fill="#FBFCFB" d="M921.769 729.078C932.475 727.735 942.985 730.435 952.009 736.256C959.937 741.371 968.635 749.53 970.658 759.148C971.959 765.335 970.39 771.562 966.964 776.8C958.065 790.405 940.625 796.617 925.472 799.908C912.462 801.752 897.682 802.419 886.471 794.379C880.667 790.215 876.808 784.176 875.757 777.086C874.371 767.741 877.406 757.895 882.996 750.397C892.265 737.962 906.762 731.291 921.769 729.078Z"/><path fill="#FBFCFB" d="M321.627 634.637C329.869 634.116 338.298 634.539 345.607 638.835C350.6 641.77 354.262 646.33 355.615 652.004C357.461 659.741 354.886 667.674 350.739 674.215C339.77 691.512 319.763 697.618 300.948 701.825C292.468 703.084 281.454 706.239 273.716 701.17C270.725 699.21 268.849 696.277 268.22 692.771C266.379 682.513 272.819 669.347 278.632 661.248C288.843 647 304.321 637.42 321.627 634.637Z"/><path fill="#FBFCFB" d="M524.871 615.341C531.625 614.915 538.39 615.986 544.682 618.478C557.256 623.521 567.623 634.226 572.764 646.701C576.98 656.931 578.44 670.29 573.933 680.672C572.025 685.065 568.738 689.448 564.049 691.065C559.66 692.579 555.939 691.437 551.935 689.51C546.042 685.002 541.976 678.432 535.517 674.522C526.814 669.254 516.566 667.482 508.422 661.031C502.429 656.283 497.21 649.227 496.363 641.445C495.769 635.99 497.375 630.166 500.84 625.888C506.673 618.686 516.07 616.262 524.871 615.341Z"/><path fill="#FBFCFB" d="M450.66 497.037C451.845 496.93 453.038 496.85 454.229 496.878C457.782 496.963 462.459 498.399 464.813 501.169C475.29 513.492 454.01 536.543 452.466 550.375C451.722 557.033 457.415 561.952 461.219 566.658C464.034 570.142 467.115 574.361 466.4 579.129C465.987 581.891 464.594 584.394 462.265 585.973C456.869 589.632 448.63 588.473 442.654 587.328C438.356 586.337 434.204 584.796 430.299 582.744C422.068 578.332 415.016 571.154 412.366 562.036C408.713 549.473 412.79 533.798 419.078 522.736C426.119 510.349 436.802 500.844 450.66 497.037Z"/><path fill="#FBFCFB" d="M461.643 675.287C478.192 674.017 494.759 677.507 509.391 685.344C513.227 687.369 518.252 690.496 519.44 694.995C519.956 696.95 519.581 698.896 518.546 700.614C514.025 708.117 500.814 710.726 492.812 712.523C479.132 714.745 453.483 717.866 441.596 709.417C438.221 707.018 435.617 703.623 434.95 699.458C434.222 694.909 435.366 690.506 438.12 686.829C443.608 679.501 452.975 676.551 461.643 675.287Z"/><path fill="#FBFCFB" d="M713.724 504.1C716.971 503.698 720.473 503.433 723.731 503.731C732.325 504.56 740.221 508.823 745.629 515.554C751.901 523.379 754.207 534.324 752.943 544.165C752.371 548.614 750.701 553.311 746.913 556.028C743.791 558.268 740.925 558.325 737.328 557.832C730.898 554.235 725.278 548.5 719.356 544.087C713.823 539.963 707.531 536.706 702.374 532.089C700.34 530.268 698.304 528.007 697.322 525.416C696.165 522.364 696.344 519.334 697.754 516.395C701.047 509.535 706.866 506.518 713.724 504.1Z"/><path fill="#FBFCFB" d="M837.979 562.187C844.231 562.026 849.805 563.849 854.551 567.964C860.598 573.208 863.899 580.772 864.335 588.695C864.649 594.379 863.869 601.128 859.808 605.472C856.857 608.628 853.819 609.324 849.647 609.506C846.101 608.822 842.886 607.673 839.877 605.644C832.272 600.515 823.639 590.597 822.016 581.293C821.26 576.957 822.065 572.4 824.772 568.859C827.879 564.795 833.08 562.786 837.979 562.187Z"/><defs><linearGradient id="gradient_0" gradientUnits="userSpaceOnUse" x1="1124.7642" y1="-80.39476" x2="215.26891" y2="280.13229"><stop offset="0" stop-color="#E2BD85"/><stop offset="1" stop-color="#DAD3CA"/></linearGradient></defs><path fill="url(#gradient_0)" d="M100.133 0L131.05 0L196.432 0L1030.85 0L1078.15 0L1096.87 0L1223.32 0C1209.81 12.292 1182.88 6.40257 1175.43 16.5029C1171.27 22.1555 1170.07 30.3845 1167.06 36.7682C1168 35.638 1168.79 34.7 1170.05 33.91L1170.62 34.6263C1170.14 37.0521 1169.61 39.4695 1169.03 41.8776C1167.08 46.2661 1163.2 50.2989 1158.66 51.9878C1151.26 54.7446 1144.11 52.7546 1136.83 50.7208C1106.09 42.1416 1094.76 49.0177 1081.31 77.3442C1070.19 100.773 1069.69 123.808 1041.54 133.762C1022.73 140.409 1003.06 137.286 985.482 128.724C969.772 121.072 959.747 111.636 940.838 111.731C934.593 111.7 928.387 112.713 922.476 114.729C912.133 118.334 903.656 125.018 898.903 135.016C895.324 142.544 893.889 151.144 894.182 159.439C894.447 166.969 896.474 174.282 896.985 181.769C898.183 199.313 889.401 213.014 872.825 219.038C860.877 223.38 847.209 222.962 835.689 217.476C828.315 213.964 820.347 207.34 817.609 199.389C815.218 192.445 816.763 184.686 819.954 178.267C829.178 159.708 873.415 140.234 866.06 118.575C862.333 107.596 840.128 105.8 844.979 95.3441C847.381 90.1668 851.879 87.2997 857.119 85.5166C870.473 80.9723 898.518 83.0334 905.604 69.1593C907.286 65.8654 908.145 61.7633 906.911 58.177C905.162 53.0981 899.933 49.976 895.291 47.9187C882.585 42.2872 863.691 41.3455 850.688 46.5902C841.912 50.1296 838.545 60.0342 829.667 63.9641C816.289 69.8858 787.981 62.3459 781.157 78.7394C779.334 83.1199 779.83 88.3882 781.633 92.6836C787.928 107.687 804.676 112.568 808.968 128.362L809.057 128.704C808.443 130.883 807.976 133.266 806.834 135.232C804.627 139.019 801.394 142.091 797.726 144.458C782.486 156.304 756.906 157.187 748.709 176.682C747.389 184.634 749.016 184.499 749.791 191.206C753.403 196.922 757.35 202.419 762.501 206.863C771.379 214.521 782.602 220.771 792.873 226.313C807.704 234.315 832.049 242.797 836.527 261.14C835.705 265.276 835.874 271.509 836.463 275.727C832.128 289.265 815.693 295.465 804.149 301.565C800.325 303.585 796.889 305.922 793.213 308.167C792.18 310.014 789.963 312.183 788.468 313.722C787.902 315.671 785.801 321.119 785.771 322.466C785.533 337.398 791.499 349.209 785.446 364.057C779.669 379.686 763.707 388.592 747.763 391.194C719.074 395.864 670.228 375.903 679.14 339.874C681.546 330.149 688.587 321.45 696.436 316.042C715.246 303.08 746.693 290.772 735.955 262.026C726.551 236.85 666.594 240.799 674.137 270.521C688.059 325.375 616.799 344.731 586.698 306.437C583.92 302.925 582.782 300.885 582.112 296.512C577.707 283.044 583.727 263.282 593.987 253.006C607.823 239.15 617.366 223.673 589.194 218.226C573.397 216.252 548.116 218.877 539.916 201.068C530.086 179.718 561.005 162.601 575.492 153.489C588.73 145.163 612.491 133.302 604.194 114.191C598.069 100.083 571.91 105.134 566.009 89.7857C558.7 70.2843 588.503 60.2652 594.993 45.472C596.017 43.5012 595.92 39.5465 594.707 37.809C584.517 22.9051 562.295 28.703 548.988 34.1776C527.006 43.2212 515.2 58.3188 501.715 76.6565C499.629 79.4922 490.12 86.1263 486.678 89.0583C474.672 99.2869 464.766 115.49 473.308 131.064C480.464 143.848 496.635 143.188 507.799 136.099C514.469 131.659 521.116 124.87 527.733 120.589C532.488 117.512 544.409 116.773 545.389 122.562C548.423 140.487 517.519 153.993 507.526 165.979C499.346 175.791 495 179.346 490.957 191.675C485.346 209.713 484.761 230.769 502.057 242.721C514.059 251.014 529.516 257.08 536.082 270.886C546.776 293.374 523.034 313.757 504.613 322.304C484.573 331.797 461.576 332.901 440.719 325.372C407.269 313.114 376.458 277.938 395.123 241.116C402.318 226.922 417.687 221.096 423.192 206.149C424.341 203.03 425.155 196.964 423.175 194.374C410.502 177.804 378.124 191.794 360.506 191.106C352.819 191.628 345.915 190.963 338.481 188.753C317.456 182.502 304.387 155.984 317.232 136.725C319.193 133.785 322.52 127.681 323.487 124.506C325.445 118.213 324.784 111.397 321.654 105.597C319.351 101.42 315.436 96.6491 310.435 95.4672C294.276 91.6483 283.142 111.332 268.855 118.351C258.892 123.855 246.478 128.567 234.989 124.735C207.774 115.66 232.137 86.9022 235.999 73.9337C225.032 52.0802 189.391 66.2656 173.103 49.8851C159.607 36.3125 170.685 23.5643 147.232 10.4927C127.988 -0.233124 114.25 10.5777 100.133 0Z"/><path fill="#FBFCFB" d="M1030.85 0L1078.15 0C1064.51 24.6984 1040.17 24.012 1016.78 31.5435C1007.91 34.4016 995.21 40.4959 991.02 49.4402C990.151 51.2958 989.791 53.1335 990.592 55.0822C992.985 60.9057 1003.13 62.4972 1008.3 64.8724C1011.55 66.3656 1015.56 68.9039 1016.7 72.4939C1017.46 74.8756 1016.81 77.2784 1015.71 79.4361C1005.5 99.3477 936.189 101.394 913.871 109.03C908.603 110.832 903.105 113.338 899.121 117.334C888.435 128.05 887.124 149.264 886.96 163.617C886.845 173.767 887.649 184.635 882.928 193.971C879.483 200.781 873.739 206.188 866.423 208.543C859.544 210.757 851.537 210.495 845.102 207.052C839.744 204.185 835.456 198.877 833.823 193.005C827.089 168.783 859.26 157.916 868.242 141.637C872.612 133.718 873.463 123.252 870.479 114.714C869.058 110.648 866.91 106.814 865.737 102.664C865.121 100.484 864.896 98.4746 866.034 96.4204C877.284 86.5811 899.781 90.4288 913.884 88.8667C923.11 87.8448 934.941 85.3339 940.956 77.5732C950.387 65.4052 941.183 58.8138 939.94 46.9943C937.652 25.2286 967.334 25.9479 981.561 23.2468C998.952 19.9454 1019.36 14.4192 1030.85 0Z"/><path fill="#FBFCFB" d="M1096.87 0L1223.32 0C1209.81 12.292 1182.88 6.40257 1175.43 16.5029C1171.27 22.1555 1170.07 30.3845 1167.06 36.7682C1164.79 38.5401 1163.11 40.8467 1160.69 42.5746C1152.56 48.4061 1139.55 44.9297 1130.59 43.4137C1121.89 41.94 1112.27 42.7665 1103.96 45.7774C1069.01 58.4448 1079.46 97.9166 1050.26 118.437C1038.04 127.026 1020.68 129.638 1006.05 126.868C999.183 125.568 991.636 122.874 987.565 116.804C986.242 114.831 985.526 112.685 986.061 110.314C988.422 99.8419 1013.32 94.5783 1022.74 88.3819C1027.5 85.2483 1032.79 80.561 1033.81 74.6325C1036.29 60.1534 1017.22 62.3446 1011.66 54.3143C1010.29 52.3378 1009.7 49.8806 1010.29 47.5263C1013.39 35.1861 1046.47 32.8691 1057.31 30.4109C1064.44 28.7938 1071.66 26.4883 1078.05 22.8955C1087.47 17.5988 1093.95 10.3745 1096.87 0Z"/><path fill="#FBFCFB" d="M131.05 0L196.432 0C195.573 1.40807 194.855 3.11027 194.384 4.69855C193.132 8.92081 194.195 13.8211 196.382 17.5411C204.183 30.8107 224.16 37.8604 238.095 42.3163C252.153 46.8115 263.727 54.8295 278.639 57.0294C291.213 58.8843 303.473 57.7814 315.617 54.0651C334.401 48.3169 342.384 40.4947 364.433 46.589C368.821 47.8019 374.523 52.1761 376.763 56.1542C378.712 59.6155 379.342 63.8077 378.249 67.6494C373.823 83.1978 353.522 88.7936 339.326 87.5077C327.37 86.4248 318.198 80.7744 305.76 84.4209C291.082 88.7244 279.295 102.771 266.006 110.292C257.99 114.829 247.086 120.099 237.77 117.386C234.17 116.337 231.334 114.293 229.549 110.936C222.11 96.9478 240.097 85.3518 243.788 73.1464C243.103 71.0543 242.374 69.0349 241.268 67.1218C232.753 52.3875 210.26 53.1172 195.839 47.6828C172.977 39.0677 171.972 19.001 153.6 8.10787C146.559 3.93334 138.892 2.01607 131.05 0Z"/><path fill="#C7AB85" d="M797.726 144.458C798.206 143.652 798.67 142.886 798.973 141.988C799.157 141.444 799.334 140.964 799.733 140.516C800.977 139.118 802.374 137.141 804.213 136.532C804.991 136.274 805.558 136.044 806.282 135.59C806.467 135.473 806.65 135.351 806.834 135.232C804.627 139.019 801.394 142.091 797.726 144.458Z"/><path fill="#C7AB85" d="M749.791 191.206C749.419 191.085 749.102 190.999 748.887 190.636C747.524 188.331 746.555 183.931 747.033 181.284C747.225 180.221 747.218 177.522 748.051 176.722C748.231 176.55 748.5 176.655 748.709 176.682C747.389 184.634 749.016 184.499 749.791 191.206Z"/><path fill="#C7AB85" d="M788.468 313.722C788.998 311.89 789.771 309.23 791.596 308.199C792.254 307.826 792.435 307.976 793.213 308.167C792.18 310.014 789.963 312.183 788.468 313.722Z"/><path fill="#F1EEE9" d="M660.455 19.1939C672.578 16.8699 690.244 14.7388 701.095 21.9024C703.397 23.4221 705.225 25.4699 705.661 28.2902C706.337 32.6601 703.471 37.2387 700.862 40.4765C690.91 52.8281 675.568 59.9436 672.27 76.9178C673.885 83.5022 676.297 87.9211 682.202 91.5603C689.863 96.2818 696.214 98.5266 701.531 106.316C701.964 106.452 702.222 106.479 702.41 106.904C703.866 110.187 704.506 116.343 702.778 119.652C702.479 120.223 702.618 120.097 702.329 120.306C702.088 120.33 702.226 120.324 701.916 120.308C691.358 143.256 651.763 144.413 645.995 169.278C647.332 174.806 647.448 177.329 645.833 182.747C647.861 189.149 651.868 194.073 657.121 198.192C670.484 208.67 683.376 220.339 701.528 218.132C701.999 217.848 702.465 217.557 702.927 217.258C705.704 215.453 707.979 212.955 708.557 209.569C710.771 196.582 687.126 188.272 679.124 181.695C677.303 180.198 676.007 178.173 674.732 176.216C674.434 176.156 673.951 176.003 673.631 176.058C673.169 176.137 673.143 176.221 672.663 175.942C672.185 175.663 671.861 174.081 671.672 173.567C671.328 172.632 671.141 171.763 670.859 170.82C670.405 169.306 669.876 167.255 670.455 165.709C670.544 165.472 670.607 165.306 670.846 165.215C671.073 165.275 671.188 165.341 671.334 165.535C671.456 165.696 671.592 166.023 671.834 166.079C672.096 166.14 672.362 166.177 672.626 166.226C675.943 147.776 709.153 145.879 720.749 131.267C720.955 130.959 721.163 130.653 721.363 130.342C723.248 127.405 726.473 124.555 729.366 122.635C729.465 122.584 729.571 122.547 729.661 122.484C730.972 121.572 732.27 118.492 732.613 116.978C732.473 112.1 733.487 108.45 732.358 103.45C732.209 102.793 732.282 102.506 732.616 101.926C728.389 89.1734 710.768 85.4645 704.547 73.1656C702.103 68.3341 701.408 62.1748 703.228 57.0223C705.858 49.5788 713.441 44.6968 720.189 41.3916C740.201 31.5892 778.775 24.7876 800.159 32.3882C803.325 33.5136 807.769 35.5915 809.165 38.8362C809.803 40.3213 809.434 41.8527 808.777 43.285C804.514 52.5777 785.912 55.2922 777.258 58.4663C770.54 60.93 764.773 64.4201 761.756 71.1442C761.677 71.3195 761.603 71.4967 761.527 71.6729C762.015 73.5252 762.201 75.3215 762.495 77.2043C762.603 77.8986 762.434 78.4651 762.298 79.1432C762.053 80.3628 761.861 81.49 761.517 82.6931L761.789 83.3904C767.234 97.1267 793.894 113.401 786.805 129.991C778.076 150.415 719.759 147.842 733.801 186.154C735.66 191.226 739.61 201.211 744.371 203.89C748.563 206.659 753.363 211.472 756.141 215.663C756.296 215.871 756.445 216.083 756.604 216.288C758.338 218.516 761.66 220.566 763.959 222.208C779.638 233.398 808.797 243.622 806.915 266.973C806.357 273.888 802.596 279.191 797.366 283.505C782.833 295.496 769.233 302.321 767.215 323.423C765.933 336.825 768.511 349.869 756.926 359.746C748.813 366.663 736.846 368.347 726.55 367.424C719.698 366.809 711.905 364.084 707.485 358.535C704.042 354.214 702.376 347.707 703.13 342.26C704.85 329.831 718.367 320.25 727.096 312.481C727.247 309.826 728.387 309.577 730.026 307.696C731.138 306.421 732.82 304.196 734.471 303.62C735.028 303.426 735.384 303.304 735.853 302.927C736.677 302.266 737.032 301.852 737.174 300.829C737.192 300.698 737.196 300.565 737.224 300.435C737.436 299.456 739.543 297.241 740.364 296.775C740.454 296.829 740.554 296.87 740.634 296.938C740.721 297.01 740.785 297.105 740.86 297.189C741.077 297.233 741.395 297.009 741.564 296.903C742.099 296.568 742.623 296.231 743.165 295.908C747.31 290.06 750.294 283.32 750.68 276.083C751.151 267.279 747.353 259.505 741.491 253.126C731.356 242.098 715.33 235.339 700.518 234.661C680.271 233.736 661.999 242.606 656.675 263.358C653.677 275.043 656.082 289.898 646.149 298.757C640.605 303.701 632.645 304.593 625.522 304.154C618.727 303.736 612.089 301.345 607.526 296.117C598.198 285.431 600.064 271.844 607.919 260.908C615.017 251.026 626.384 242.809 627.085 229.554C627.315 225.204 625.761 220.594 623.332 217.018C609.874 197.206 582.727 210.347 571.172 196.754C568.893 194.072 567.447 189.214 568.048 185.678C569.276 178.456 592.537 164.612 598.554 160.3C614.314 149.005 638.598 132.518 641.76 111.999C645.469 87.9213 619.384 89.1341 610.026 76.1376C607.52 72.6569 606.723 68.4682 607.453 64.2696C611.118 43.2168 638.099 32.003 653.498 21.1664L653.799 20.9509C655.991 20.1734 658.151 19.5452 660.455 19.1939Z"/><path fill="#C7AB85" d="M727.096 312.481C727.247 309.826 728.387 309.577 730.026 307.696C731.138 306.421 732.82 304.196 734.471 303.62C735.028 303.426 735.384 303.304 735.853 302.927C736.677 302.266 737.032 301.852 737.174 300.829C737.192 300.698 737.196 300.565 737.224 300.435C737.436 299.456 739.543 297.241 740.364 296.775C740.454 296.829 740.554 296.87 740.634 296.938C740.721 297.01 740.785 297.105 740.86 297.189C741.077 297.233 741.395 297.009 741.564 296.903C742.099 296.568 742.623 296.231 743.165 295.908C738.814 302.292 732.916 307.471 727.096 312.481Z"/><path fill="#C7AB85" d="M674.732 176.216C674.434 176.156 673.951 176.003 673.631 176.058C673.169 176.137 673.143 176.221 672.663 175.942C672.185 175.663 671.861 174.081 671.672 173.567C671.328 172.632 671.141 171.763 670.859 170.82C670.405 169.306 669.876 167.255 670.455 165.709C670.544 165.472 670.607 165.306 670.846 165.215C671.073 165.275 671.188 165.341 671.334 165.535C671.456 165.696 671.592 166.023 671.834 166.079C672.096 166.14 672.362 166.177 672.626 166.226C672.566 169.832 673.349 172.894 674.732 176.216Z"/><path fill="#C7AB85" d="M645.995 169.278C647.332 174.806 647.448 177.329 645.833 182.747C644.689 177.717 644.7 174.278 645.995 169.278Z"/><path fill="#C7AB85" d="M744.371 203.89C748.563 206.659 753.363 211.472 756.141 215.663C751.806 212.859 747.139 208.231 744.371 203.89Z"/><path fill="#C7AB85" d="M701.531 106.316C701.964 106.452 702.222 106.479 702.41 106.904C703.866 110.187 704.506 116.343 702.778 119.652C702.479 120.223 702.618 120.097 702.329 120.306C702.088 120.33 702.226 120.324 701.916 120.308C701.955 120.06 701.991 119.811 702.034 119.563C702.996 114.023 701.964 112.085 701.561 107.008C701.543 106.778 701.541 106.547 701.531 106.316Z"/><path fill="#C7AB85" d="M732.613 116.978C732.473 112.1 733.487 108.45 732.358 103.45C732.209 102.793 732.282 102.506 732.616 101.926C734.852 105.672 734.723 110.614 733.589 114.689C733.365 115.493 732.971 116.228 732.613 116.978Z"/><path fill="#C7AB85" d="M761.527 71.6729C762.015 73.5252 762.201 75.3215 762.495 77.2043C762.603 77.8986 762.434 78.4651 762.298 79.1432C762.053 80.3628 761.861 81.49 761.517 82.6931C760.382 78.6345 760.126 75.7154 761.527 71.6729Z"/><path fill="#C7AB85" d="M720.749 131.267C720.955 130.959 721.163 130.653 721.363 130.342C723.248 127.405 726.473 124.555 729.366 122.635C727.341 126.083 724.164 129.203 720.749 131.267Z"/><path fill="#FBFCFB" d="M466.767 37.7681C468.945 37.7029 471.15 37.8269 473.316 38.0416C478.391 38.5445 484.005 40.6259 487.25 44.7461C489.871 48.0738 490.679 52.3011 490.069 56.4374C488.037 70.2392 472.4 83.5107 460.496 89.3331C453.015 92.9923 445.579 94.7973 438.802 100.049C431.049 106.056 425.202 114.986 424.014 124.805C419.428 162.726 460.411 152.37 477.248 174.109C490.534 191.265 475.309 210.357 473.229 228.477C470.411 253.035 488.172 255.878 500.306 271.606C503.588 275.859 505.819 281.031 505.062 286.497C504.287 292.092 500.349 296.727 495.941 299.985C486.006 307.33 470.596 307.344 458.884 305.693C449.771 303.619 441.04 300.155 434.026 293.779C426.38 286.83 421.228 276.623 420.71 266.266C419.803 248.105 428.144 240.698 439.154 228.336C445.752 220.927 450.197 211.881 449.496 201.774C448.02 180.507 422.976 173.638 407.091 165.917C399.679 162.314 392.496 157.963 386.241 152.571C378.446 145.852 372.506 137.391 371.818 126.861C370.699 109.74 382.982 93.8449 393.736 81.692C411.859 61.2104 438.336 39.5251 466.767 37.7681Z"/><path fill="#FBFCFB" d="M340.607 97.686C342.34 97.5425 344.126 97.3647 345.864 97.4468C349.603 97.6235 352.783 99.2064 355.27 101.984C361.749 109.217 359.71 126.755 362.809 136.446C367.312 150.524 376.621 149.498 375.487 167.485C371.304 174.046 366.144 177.313 358.686 179.23C353.716 180.041 348.998 179.59 344.247 177.89C336.64 175.185 330.463 169.497 327.143 162.137C318.005 141.987 331.749 135.385 333.331 121.434C333.935 116.111 330.376 109.444 332.56 104.381C334.129 100.743 337.193 99.1827 340.607 97.686Z"/><path fill="#C7AB85" d="M653.799 20.9509C654.12 20.2606 654.332 19.7586 654.854 19.1998C655.147 18.8856 655.4 18.6383 655.611 18.2552C655.776 17.955 655.743 17.8217 656.01 17.6447C656.049 17.6683 656.098 17.6808 656.128 17.7155C656.712 18.3856 656.177 17.9148 656.611 18.2759C657.208 18.3074 658.394 17.557 658.844 17.1872C658.819 17.146 658.797 17.1022 658.767 17.0636C658.603 16.848 658.433 16.6989 658.345 16.4333C658.544 16.31 658.493 16.2889 658.748 16.3778C659.002 16.4661 659.581 16.8403 659.878 16.6953C660.866 16.2146 662.61 14.8465 663.713 15.1026L663.79 15.2954C663.26 16.8305 661.688 18.2239 660.455 19.1939C658.151 19.5452 655.991 20.1734 653.799 20.9509Z"/><path fill="#C7AB85" d="M669.01 12.6493C671.402 10.9232 679.055 7.35966 681.926 7.22621C681.794 7.44119 681.689 7.64148 681.493 7.80549C679.687 9.32021 671.362 13.0147 669.01 12.6493Z"/><path fill="#C7AB85" d="M681.926 7.22621C683.715 5.88454 686.419 4.01756 688.747 4.09066C688.14 5.28316 686.175 5.90661 684.987 6.32081C683.984 6.67034 682.947 6.93678 681.926 7.22621Z"/><path fill="#F6DEB8" d="M1279.5 0L1280 0L1280 36.9724L1280 58.6276L1280 588.529L1280 589.415L1280 637.843L1280 695.188L1280 721.278L1280 764.81C1278.79 763.091 1277.84 761.583 1277.12 759.575C1274.8 756.788 1273.01 753.537 1270.69 750.702C1268.83 748.431 1264.63 745.143 1263.7 742.538C1261.36 741.195 1259.63 739.535 1257.63 737.756L1256.78 736.949C1255.07 736.016 1253.31 734.928 1251.83 733.65C1244.13 729.191 1235.61 724.555 1227.02 722.09C1221.27 720.438 1215.37 718.99 1209.47 718.014C1198.57 716.214 1171.51 714.463 1164.28 705.682C1161.74 704.316 1159.74 703 1157.95 700.694L1157.77 700.481C1156.39 698.309 1154.27 696.82 1152.99 694.703C1151.3 691.913 1148.66 689.364 1146.78 686.556C1146.49 686.127 1146.22 685.693 1145.93 685.268C1145.27 684.313 1144.65 683.348 1144.04 682.361C1143.3 681.156 1142.6 679.909 1141.91 678.675C1141.64 678.199 1141.57 677.906 1141.09 677.62C1140.68 677.373 1140.26 677.141 1139.85 676.898L1139.68 676.667C1136.92 672.87 1134.39 668.286 1132.83 663.859C1130.86 662.755 1126.38 653.759 1124.27 651.102C1122.31 648.622 1117.79 645.146 1116.78 642.405C1113.59 640.689 1109.36 637.397 1106.81 634.829C1089.8 624.695 1072.32 619.776 1053.23 615.209C1047.71 614.536 1042.23 613.376 1036.72 612.601C1026.91 611.223 1016.92 610.27 1007.3 607.896C998.778 606.51 984.545 600.68 978.635 594.439C978.429 594.131 978.219 593.826 978.022 593.513C977.458 592.619 976.914 591.666 975.978 591.106C973.665 589.723 969.16 585.406 967.634 583.165C967.299 582.672 967.035 582.191 966.62 581.75C966.193 581.296 965.775 580.858 965.47 580.308C964.695 578.914 963.994 578.437 962.592 577.69C959.921 575.462 958.278 569.775 957.131 566.548C956.427 564.712 955.809 562.662 955.525 560.71C954.292 552.165 954.515 543.474 956.184 535.003C956.323 534.293 956.463 533.889 956.761 533.216C957.611 530.268 958.574 527.539 960.241 524.95C960.357 523.425 961.21 522.48 962.066 521.278C962.546 519.268 963.999 516.828 965.663 515.597C966.785 513.531 968.011 511.842 969.683 510.189L970.6 509.328C973.793 507.173 976.469 504.506 978.59 501.294C984.726 492.898 1005.89 483.382 1016.09 481.728C1021.8 482.63 1029.65 479.278 1035.65 478.922C1044.19 478.414 1062.57 480.713 1068.95 479.083C1098.2 483.305 1125.47 490.781 1152.45 502.927C1163.35 507.836 1173.99 515.945 1185.66 518.634C1192.52 520.215 1199.63 519.859 1205.47 515.578C1209.86 512.369 1212.67 507.883 1215.26 503.208C1215.55 497.51 1216.98 494.288 1216.26 488.191C1215.83 484.511 1214.46 481.161 1213.41 477.637C1211.59 475.974 1210.21 472.582 1208.63 470.524C1203.66 464.041 1196.32 460.001 1189.31 456.115C1185.74 455.79 1182.04 453.936 1178.42 453.333C1167.23 451.469 1155.85 452.866 1144.86 455.164C1141.32 456.137 1136.34 458.244 1132.75 458.206C1123.31 460.808 1115.13 460.017 1105.62 458.896C1104.7 458.788 1104 458.617 1103.15 458.289C1097.64 457.027 1089.38 454.277 1085.52 450.044C1076.04 444.815 1071.28 436.136 1064.36 428.37C1062.51 426.29 1059.86 424.875 1058.15 422.815C1050.5 419.248 1041.72 416.178 1033.29 419.133C1029.98 420.292 1025.79 423.522 1022.53 424.098C1019.4 427.04 1015.9 429.333 1013.02 432.596C1009.31 436.785 1006.32 442.433 1002.23 446.088L1002.07 446.302C1001.07 448.343 998.157 452.26 996.19 453.251C994.36 455.417 992.532 457.369 990.387 459.226C984.48 465.642 974.158 473.737 966.33 477.448C963.737 480.426 957.731 482.839 954.161 484.528C934.609 493.776 915.083 500.266 893.336 501.766C871.024 503.304 851.29 498.026 831.905 487.109C828.984 485.464 823.544 482.949 821.381 480.438C821.279 480.32 821.222 480.17 821.142 480.035C820.561 478.911 820.121 478.015 819.019 477.314C814.029 474.141 809.084 468.758 805.394 464.173C805.052 463.748 804.734 463.364 804.425 462.909C803.782 461.96 802.932 460.185 801.972 459.582C801.608 459.354 801.193 459.166 800.815 458.96C797.201 455.417 795.804 447.636 795.462 442.785C794.819 433.645 796.498 420.258 802.683 413.033C803.779 410.688 804.791 408.781 806.564 406.876C806.877 405.431 808.296 403.996 809.392 403.08C811.743 401.472 814.915 398.945 816.485 396.542C819.334 392.185 824.26 389.33 827.188 385.031C827.469 384.618 827.731 384.187 828.005 383.768C830.552 379.25 841.847 371.688 846.16 368.563C870.579 350.874 889.578 341.52 920.468 346.563C927.341 347.685 941.503 351.678 945.731 357.57C947.583 360.254 950.314 362.196 951.906 364.975C952.171 365.439 952.295 365.547 952.638 366.023C952.981 366.499 953.215 367.018 953.518 367.515C956.634 372.628 957.639 379.119 956.461 385.059C956.188 386.438 956.03 387.814 955.603 389.148C955.457 389.606 955.247 390.307 955.515 390.772C955.593 390.908 955.679 391.038 955.76 391.172C955.786 391.215 955.809 391.26 955.834 391.304C955.094 393.047 954.101 395.991 952.517 397.083C951.993 397.418 951.464 397.742 950.935 398.07C948.621 399.503 947.319 401.946 945.007 403.348C944.049 403.929 943.739 404.614 943.208 405.598C941.087 407.845 936.838 408.965 933.935 409.957C923.47 413.533 912.751 416.297 902.389 420.182C898.749 421.546 888.967 426.67 886.306 427.237L885.874 427.647C881.942 431.332 879.165 433.396 876.356 438.178C876.165 443.066 876.623 445.792 878.249 450.393L878.579 450.507C879.812 451.951 880.898 453.325 881.919 454.931L882.198 455.125C885.477 457.452 888.249 460.45 891.496 462.829C900.678 469.46 912.117 472.172 923.298 470.37C932.845 468.834 941.169 465.177 949.442 460.302C951.362 459.17 954.193 456.641 956.207 456.091C960.042 452.056 964.465 448.424 968.376 444.38C970.899 441.771 972.98 438.509 975.695 436.142L975.93 435.927C976.905 433.878 978.129 432.241 979.733 430.629C980.142 428.855 983.19 424.947 984.531 423.751C985.324 422.11 986.11 420.677 987.459 419.423L988.313 418.139C989.406 415.773 990.816 413.909 992.352 411.823C1001.93 397.037 1019.61 384.964 1036.66 380.898C1040.79 382.087 1050.44 382.059 1054.59 380.959C1059.22 382.332 1068.61 385.153 1071.41 389.406C1075.41 391.853 1080.55 396.871 1082.88 400.923L1083.09 401.113C1085.82 403.287 1087.99 405.997 1090.75 408.159C1091.14 408.461 1091.51 408.789 1091.88 409.106C1098.6 411.223 1103.78 413.037 1110.98 411.096C1119.76 408.732 1124.54 402.113 1128.88 394.661C1130.25 384.615 1130.23 382.927 1128.16 372.893L1128.08 372.452L1127.88 372.218C1122.31 362.97 1117.42 356.004 1108.37 349.788L1105.44 347.754C1097.99 343.467 1090.25 340.254 1082.09 337.567C1068.3 334.447 1054.12 333.495 1040.04 334.743C1022.55 336.185 1005.58 339.462 987.997 336.603C975.945 334.648 958.113 330.34 948.605 322.266C948.492 322.238 948.377 322.211 948.264 322.18C947.463 321.96 947.214 321.835 946.807 321.131C945.101 320.284 943.638 319.649 942.396 318.147C942.188 317.839 941.975 317.535 941.777 317.22C941.173 316.262 940.602 315.415 939.618 314.804C939.107 314.487 938.693 314.243 938.265 313.811C937.499 313.042 936.808 312.25 935.863 311.682C934.021 310.574 931.976 308.682 930.778 306.885C929.618 305.147 927.938 303.891 926.837 302.216C926.281 301.37 925.664 300.653 925.064 299.845C923.781 298.115 922.639 296.434 921.45 294.639C920.76 293.597 920.219 292.583 919.619 291.488C918.494 289.438 917.41 287.495 915.963 285.648C915.953 284.643 915.91 283.855 915.589 282.886C914.755 280.365 914.266 277.949 913.693 275.379C912.096 268.215 912.971 261.255 913.747 254.097C913.993 251.828 914.432 250.264 914.084 247.975C915.646 241.366 920.055 229.494 925.081 224.943C925.38 224.739 925.677 224.53 925.982 224.333C927.685 223.236 929.042 221.377 930.104 219.647C932.828 215.21 940.809 210.089 943.261 206.609C943.612 206.109 943.942 205.592 944.297 205.092C945.884 202.11 954.252 198.91 957.283 197.551C1007.99 174.809 1036.64 219.961 1086.07 195.411C1087.76 194.438 1089.41 193.493 1091.16 192.636C1091.67 191.727 1093.41 190.838 1094.32 190.232C1098.63 186.728 1102.43 183.071 1105.87 178.697C1108.06 175.917 1110.34 169.942 1112.92 168.13C1114.29 161.997 1122.38 138.556 1125.9 134.39C1128.38 132.071 1129.21 128.894 1130.97 126.074C1132.66 123.364 1134.06 120.532 1135.99 117.964C1136.34 117.509 1136.72 117.088 1137.04 116.618C1137.55 115.867 1138.09 115.121 1138.58 114.353C1141.9 109.157 1147.61 104.106 1152.06 99.7634C1152.87 98.9732 1153.95 98.6424 1154.74 97.8701C1155.15 97.466 1155.54 97.0452 1156.04 96.7434C1157.46 95.8879 1157.88 95.3081 1158.66 93.8617C1162.25 87.5635 1201.65 75.1392 1210.16 70.9607C1219.64 66.3007 1228.14 60.6596 1236.74 54.576C1237.93 53.6484 1239.01 52.8646 1240.33 52.1294L1240.76 51.6101C1248.84 43.1772 1255.6 36.9372 1263.44 27.7906L1263.82 27.4379C1265.21 24.8322 1267.03 22.0564 1269.1 19.9472L1270.26 17.9901C1270.62 16.9283 1271.1 16.4314 1271.9 15.665C1272.25 14.5846 1272.3 13.6632 1273.33 13.0561C1274.93 8.63346 1277.44 4.24749 1279.5 0Z"/><path fill="#FBFCFB" d="M1022.16 502.399C1022.4 502.396 1022.64 502.402 1022.89 502.39C1025.82 502.245 1029.13 501.277 1032.13 500.932C1039.06 500.133 1047.17 501.499 1053.91 503.125C1054.29 503.217 1054.68 503.253 1055.07 503.306C1064.81 505.9 1074.82 507.395 1084.9 507.762C1097.81 508.232 1110.52 507.459 1123.34 509.717C1131.28 511.116 1139.12 514.046 1146.51 517.222C1149.16 518.362 1153.46 521.101 1156.12 521.535C1159.65 523.857 1166.54 527.611 1167.46 531.947C1167.71 533.169 1167.75 534.976 1166.97 536.046C1166.25 537.033 1165.25 537.415 1164.07 537.556C1160.33 538 1156.62 537.136 1152.92 536.868C1129.09 531.154 1092.46 528.044 1070.58 541.549C1069.09 542.467 1066.3 544.096 1065.5 545.673C1064.37 547.401 1062.96 548.79 1061.84 550.48C1061.07 551.629 1060.24 552.579 1059.54 553.795C1059.4 554.03 1059.26 554.258 1059.12 554.493C1058.69 555.242 1058.28 556.006 1057.86 556.758C1057.22 557.902 1057.02 559.163 1056.68 560.418C1055.57 564.516 1056.99 569.779 1057.4 573.934L1057.8 574.671C1061.17 577.029 1064.34 580.328 1066.73 583.669C1081.4 595.645 1123.06 597.318 1142.25 602.793C1149.33 604.814 1160.98 611.925 1165.61 612.916C1167.68 614.757 1170.02 616.268 1172.55 617.395C1172.96 618.689 1178.34 622.827 1179.74 623.629C1180.01 623.784 1180.35 623.81 1180.65 623.861C1183.27 627.336 1187.14 631.663 1190.54 634.396L1190.9 634.853C1195.25 643.264 1209.77 658.491 1218 663.218C1223.27 668.685 1261.5 683.513 1269.43 685.795C1270.75 687.516 1275.56 691.112 1277.5 692.062L1280 695.188L1280 721.278L1278.67 721.304C1277.75 720.962 1277.44 720.901 1276.93 720.061C1276.47 719.311 1275.92 718.684 1275.44 717.956C1274.25 716.119 1272.47 714.478 1270.88 712.956C1269.66 711.783 1268.93 710.757 1268.09 709.296L1267.88 709.098C1266.32 707.441 1264.63 706.262 1262.6 705.237C1261.84 704.136 1260.04 703.284 1258.9 702.59C1240.37 691.312 1215.63 692.667 1195.05 687.584C1187.15 685.634 1180.3 682.711 1173.23 678.698C1170.51 676.695 1167.9 674.337 1164.98 672.658C1164.51 671.276 1163.58 670.772 1162.44 669.917L1162.21 669.732C1160.32 666.461 1157.54 663.652 1155.39 660.51C1152.59 656.397 1149.96 652.15 1147.07 648.1C1146.91 647.626 1146.45 647.262 1146.12 646.897C1144.42 643.445 1141.78 639.755 1139.1 636.986C1113.11 601.395 1051.09 602.928 1013.24 580.565C1008.13 576.815 1003.71 572.952 999.419 568.284C995.941 563.913 992.886 559.212 990.781 554.019C986.44 543.309 988.659 534.095 992.912 523.876C993.325 523.669 1001.48 514.091 1001.99 513.227C1008.95 509.093 1014.43 505.336 1022.16 502.399Z"/><path fill="#C7AB85" d="M1057.4 573.934C1055.27 569.96 1054.8 564.842 1055.62 560.406C1056.7 554.598 1060.65 548.952 1065.5 545.673C1064.37 547.401 1062.96 548.79 1061.84 550.48C1061.07 551.629 1060.24 552.579 1059.54 553.795C1059.4 554.03 1059.26 554.258 1059.12 554.493C1058.69 555.242 1058.28 556.006 1057.86 556.758C1057.22 557.902 1057.02 559.163 1056.68 560.418C1055.57 564.516 1056.99 569.779 1057.4 573.934Z"/><path fill="#C7AB85" d="M1268.09 709.296C1271.63 711.079 1276.87 716.554 1278.34 720.233C1278.42 720.44 1278.63 721.166 1278.67 721.304C1277.75 720.962 1277.44 720.901 1276.93 720.061C1276.47 719.311 1275.92 718.684 1275.44 717.956C1274.25 716.119 1272.47 714.478 1270.88 712.956C1269.66 711.783 1268.93 710.757 1268.09 709.296Z"/><path fill="#C7AB85" d="M1057.8 574.671C1061.17 577.029 1064.34 580.328 1066.73 583.669C1062.89 581.709 1059.57 578.639 1057.8 574.671Z"/><path fill="#FBFCFB" d="M1280 36.9724L1280 58.6276C1277.14 64.0318 1274.24 69.2604 1270.79 74.3157C1269.99 75.3075 1269.41 76.3227 1268.82 77.4458L1267.97 78.2537C1266.4 80.0688 1265.05 81.6519 1263.87 83.7523C1261.76 84.3933 1256.81 89.8148 1255.02 91.6654C1249.91 94.5067 1245.24 98.2642 1239.68 100.282C1229.54 103.964 1217.89 104.936 1207.43 107.899C1182.23 115.045 1152.26 133.393 1144.99 160.355C1144.55 161.999 1144.19 163.719 1143.95 165.406C1141.99 180.19 1145.17 192.686 1148.74 206.868C1151.57 219.841 1152.58 231.739 1145 243.446C1143.98 244.989 1142.95 246.521 1141.9 248.041C1139.59 249.203 1136.34 252.351 1134.38 254.115C1131.06 255.286 1127.95 256.984 1124.64 258.144C1114.02 260.342 1107.79 259.187 1097.46 256.621C1094.42 254.862 1090.93 253.494 1087.78 251.874C1070.6 243.06 1056.98 238.467 1037.71 235.828C1023.85 234.573 1012.37 233.757 998.542 236.553C993.215 237.902 981.508 240.841 978.627 245.673C976.285 249.084 973.299 251.461 971.37 255.206C970.719 256.47 969.969 257.168 968.905 258.103C968.846 258.265 968.785 258.426 968.728 258.589C963.433 273.767 983.116 294.575 975.312 301.714C971.902 303.264 967.26 301.871 963.915 300.623C957.499 298.229 952.548 294.461 946.949 290.667C946.267 289.304 941.915 284.316 940.516 283.776C939.445 281.554 938.26 279.828 936.459 278.143C936.406 277.44 936.434 277.357 935.981 276.854C934.525 273.466 932.718 270.166 931.081 266.858C930.876 264.987 930.321 263.135 929.915 261.295C928.597 255.328 929.081 249.454 930.657 243.59C932.347 238.153 935.602 233.953 937.743 228.843C941.605 225.081 945.637 221.016 949.392 217.14C952.237 216.528 956.743 213.229 959.678 211.857C964.675 209.52 969.554 207.816 974.86 206.347C985.337 204.731 995.535 204.567 1006.02 206.22C1009.64 206.791 1013.35 207.878 1016.98 208.256C1039.2 213.891 1075.98 227.148 1097.31 214.809C1097.92 214.454 1098.38 214.079 1098.92 213.621C1105.87 210.817 1112.51 203.987 1116.22 197.644C1121.68 194.289 1125.36 171.52 1127.05 164.961C1128.42 159.606 1130.02 154.166 1131.89 148.961C1134.05 142.928 1137.48 137.039 1140.42 131.33C1141.84 130.47 1147.47 122.373 1148.32 120.583L1148.4 120.273C1150.75 118.645 1155.78 114.406 1156.91 111.814C1159.07 110.707 1161.08 109.269 1162.67 107.432L1162.89 107.177C1163.88 106.715 1164.78 106.051 1165.7 105.452C1177.81 96.8697 1192.62 92.9847 1206.43 88.11C1216.79 84.4525 1226.8 80.3401 1236.48 75.1079C1238.76 73.8773 1242.14 72.462 1243.83 70.5064C1250.29 67.553 1258.85 61.1995 1263.33 55.6136L1263.5 55.4072C1263.7 55.2964 1263.91 55.1903 1264.11 55.0747C1268.1 52.7724 1277.41 41.4358 1278.65 36.9658L1280 36.9724Z"/><path fill="#C7AB85" d="M968.905 258.103C970.591 252.912 973.933 248.504 978.627 245.673C976.285 249.084 973.299 251.461 971.37 255.206C970.719 256.47 969.969 257.168 968.905 258.103Z"/><path fill="#FBFCFB" d="M1082.19 554.806C1098.17 544.166 1122.57 544.346 1140.95 547.999C1161.37 552.059 1178.45 563.995 1198.42 569.112C1213.43 572.959 1229.63 570.091 1243.09 578.717C1245.12 582.884 1253.28 589.193 1257.45 591.158L1258.24 591.539C1260.85 591.648 1263.08 592.814 1265.63 593.08C1268.47 593.376 1271.28 593.13 1274.11 593.225L1274.51 592.997C1276.68 591.974 1278.18 590.978 1280 589.415L1280 637.843C1275.14 642.894 1271.32 645.847 1264.39 647.473C1260.92 647.535 1256.71 646.74 1253.46 647.102C1245.96 644.304 1239.75 640.919 1233.5 635.943C1230.82 632.884 1227.79 630.243 1225.26 627.007C1223.27 623.927 1221.3 620.033 1218.67 617.494C1217.6 615.473 1216.32 613.666 1214.75 611.997C1211.96 607.532 1206.92 603.569 1202.56 600.741C1166.3 577.21 1111.36 596.784 1080.32 575.249C1079.73 574.168 1079.31 573.444 1078.39 572.606L1076.91 568.961C1076.66 567.778 1076.39 566.609 1076.38 565.391C1076.36 561.015 1079.32 557.724 1082.19 554.806Z"/><path fill="#C7AB85" d="M1258.24 591.539C1260.85 591.648 1263.08 592.814 1265.63 593.08C1268.47 593.376 1271.28 593.13 1274.11 593.225C1273.37 593.6 1272.66 594.023 1271.86 594.279C1268.01 595.508 1261.68 593.361 1258.24 591.539Z"/><path fill="#C7AB85" d="M987.997 336.603C993.909 335.677 1000.37 337.234 1006.43 336.916C1028.76 335.745 1049.53 331.131 1071.89 334.779C1075.24 335.327 1078.65 335.544 1081.87 336.741L1082.09 337.567C1068.3 334.447 1054.12 333.495 1040.04 334.743C1022.55 336.185 1005.58 339.462 987.997 336.603Z"/><path fill="#C7AB85" d="M1144.86 455.164L1144.99 454.213C1158.46 451.007 1176.12 449.317 1188.98 455.376L1189.31 456.115C1185.74 455.79 1182.04 453.936 1178.42 453.333C1167.23 451.469 1155.85 452.866 1144.86 455.164Z"/><path fill="#C7AB85" d="M956.761 533.216C957 533.437 957.44 533.663 957.439 534.049C957.439 534.278 957.363 534.5 957.332 534.726C957.215 535.584 957.168 536.428 957.172 537.292C957.175 537.998 957.063 538.559 956.875 539.232C956.039 542.218 956.019 556.687 956.998 559.468C957.361 560.499 957.541 561.816 957.709 562.9C957.856 563.843 957.655 564.62 957.406 565.519L957.131 566.548C956.427 564.712 955.809 562.662 955.525 560.71C954.292 552.165 954.515 543.474 956.184 535.003C956.323 534.293 956.463 533.889 956.761 533.216Z"/><path fill="#C7AB85" d="M1007.3 607.896C1010.24 607.056 1049.9 612.875 1053.39 614.539L1053.23 615.209C1047.71 614.536 1042.23 613.376 1036.72 612.601C1026.91 611.223 1016.92 610.27 1007.3 607.896Z"/><path fill="#C7AB85" d="M1058.15 422.815C1058.29 422.725 1058.81 422.306 1059.09 422.323C1059.34 422.339 1059.69 422.773 1059.77 422.847C1062.04 424.808 1064.19 426.899 1066.47 428.867C1067.78 430.007 1069.08 432.007 1070.03 433.492C1070.32 433.955 1070.63 434.259 1070.97 434.675C1071.3 435.08 1071.51 435.469 1071.77 435.915C1072.05 436.4 1072.37 436.724 1072.74 437.145C1074.39 438.987 1075.62 440.86 1077.47 442.605C1078.81 443.864 1080.3 444.552 1081.59 445.946C1082.11 446.509 1082.72 446.815 1083.36 447.213C1084.52 447.938 1084.9 448.876 1085.52 450.044C1076.04 444.815 1071.28 436.136 1064.36 428.37C1062.51 426.29 1059.86 424.875 1058.15 422.815Z"/><path fill="#C7AB85" d="M1143.95 165.406C1145.18 169.927 1144.51 181.693 1145.3 187.739C1146.12 194.056 1148.43 199.84 1149.37 206.08L1148.74 206.868C1145.17 192.686 1141.99 180.19 1143.95 165.406Z"/><path fill="#C7AB85" d="M1190.9 634.853C1192.74 635.662 1193.43 636.559 1194.56 638.177C1194.93 638.705 1195.36 639.097 1195.82 639.538C1196.26 639.961 1196.53 640.459 1196.84 640.984C1197.27 641.72 1197.8 642.197 1198.42 642.773C1198.98 643.301 1199.24 643.766 1199.63 644.434C1200.51 645.931 1202.07 646.914 1203.03 648.484C1203.89 649.896 1205.24 650.958 1206.48 652.019C1207.06 652.51 1207.43 653.048 1207.91 653.627C1208.97 654.913 1210.13 655.824 1211.51 656.722C1212.92 657.638 1213.75 658.971 1215.26 659.843C1216.76 660.704 1217.26 661.739 1218 663.218C1209.77 658.491 1195.25 643.264 1190.9 634.853Z"/><path fill="#C7AB85" d="M998.542 236.553C1012.37 233.757 1023.85 234.573 1037.71 235.828C1032.45 237.397 1025.09 235.7 1019.49 235.544C1014.96 235.42 1010.42 235.692 1005.93 236.355C1004.74 236.528 1003.18 236.28 1002.1 236.667C1000.73 237.155 999.93 236.891 998.542 236.553Z"/><path fill="#C7AB85" d="M1156.12 521.535C1156.57 521.551 1157.01 521.556 1157.46 521.567C1158.85 521.604 1160.67 523.141 1161.84 523.877C1162.87 524.531 1163.68 525.441 1164.75 526.118C1165.66 526.686 1166.15 527.28 1166.69 528.167C1168.09 530.451 1169.52 532.209 1168.76 535.056C1168.39 536.455 1167.15 537.588 1165.91 538.264C1163.02 539.851 1157.13 538.452 1153.99 537.83C1153.79 537.79 1153.02 537.715 1152.88 537.439C1152.79 537.27 1152.9 537.058 1152.92 536.868C1156.62 537.136 1160.33 538 1164.07 537.556C1165.25 537.415 1166.25 537.033 1166.97 536.046C1167.75 534.976 1167.71 533.169 1167.46 531.947C1166.54 527.611 1159.65 523.857 1156.12 521.535Z"/><path fill="#C7AB85" d="M1105.44 347.754C1105.9 347.771 1106.36 347.759 1106.81 347.782C1107.72 347.83 1108.39 348.416 1109.12 348.882C1109.32 349.012 1109.53 349.13 1109.73 349.262C1110.58 349.824 1111.38 350.508 1112.23 351.093C1113.39 351.893 1114.04 352.882 1115.36 353.574C1118.82 355.393 1121.58 360.354 1124.01 363.371C1124.6 364.097 1125.03 364.865 1125.48 365.674C1125.8 366.247 1126.16 366.794 1126.51 367.35C1127.43 368.807 1127.83 369.969 1127.87 371.693C1127.87 371.868 1127.88 372.043 1127.88 372.218C1122.31 362.97 1117.42 356.004 1108.37 349.788L1105.44 347.754Z"/><path fill="#C7AB85" d="M1022.16 502.399C1023.31 501.044 1024.34 501.134 1025.97 500.687C1026.98 500.41 1028.05 500.357 1029.09 500.106C1033.94 498.925 1043.09 499.472 1047.87 500.975C1048.97 501.323 1050.43 501.225 1051.66 501.554C1052.44 501.761 1053.28 501.988 1054.05 502.158C1054.28 502.206 1054.51 502.218 1054.73 502.253C1055.07 502.307 1054.97 502.268 1055.19 502.398C1055.33 502.658 1055.13 503.091 1055.07 503.306C1054.68 503.253 1054.29 503.217 1053.91 503.125C1047.17 501.499 1039.06 500.133 1032.13 500.932C1029.13 501.277 1025.82 502.245 1022.89 502.39C1022.64 502.402 1022.4 502.396 1022.16 502.399Z"/><path fill="#C7AB85" d="M1263.44 27.7906C1263.45 28.0623 1263.44 28.3341 1263.45 28.6057C1263.45 28.7031 1263.47 28.7998 1263.47 28.8973C1263.48 30.466 1259.53 34.2561 1258.39 35.4261C1253.6 40.353 1247.35 49.311 1240.76 51.6101C1248.84 43.1772 1255.6 36.9372 1263.44 27.7906Z"/><path fill="#C7AB85" d="M966.33 477.448C966.539 477.152 966.754 476.86 966.957 476.56C967.87 475.215 969.272 474.558 970.57 473.632C971.733 472.802 972.886 472.007 974.037 471.159C974.408 470.885 974.806 470.647 975.169 470.363C975.626 470.005 976.041 469.596 976.526 469.271C977.927 468.334 979.715 467.145 980.947 466.006C982.086 464.951 983.622 464.131 984.587 462.962C985.935 461.33 987.476 460.586 988.988 459.241C989.538 458.752 989.212 458.978 989.652 458.701C989.817 458.695 989.87 458.715 989.993 458.832C990.029 458.865 990.057 458.906 990.091 458.94C990.188 459.037 990.288 459.13 990.387 459.226C984.48 465.642 974.158 473.737 966.33 477.448Z"/><path fill="#C7AB85" d="M1103.15 458.289C1103.36 458.067 1103.6 457.626 1103.97 457.625C1104.2 457.625 1104.42 457.701 1104.65 457.734C1105.29 457.829 1105.94 457.887 1106.58 457.939C1107.24 457.992 1107.77 458.16 1108.4 458.364C1111.65 459.418 1125.21 459.009 1128.45 458.214C1129.91 457.857 1131.27 458.075 1132.75 458.206C1123.31 460.808 1115.13 460.017 1105.62 458.896C1104.7 458.788 1104 458.617 1103.15 458.289Z"/><path fill="#C7AB85" d="M1116.78 642.405C1117.74 642.289 1117.94 642.452 1118.73 643.053C1121.04 644.809 1122.32 647.636 1124.56 649.559C1126.71 651.412 1129.4 655.998 1130.73 658.526C1131.53 660.043 1132.86 661.642 1132.83 663.41C1132.83 663.56 1132.83 663.71 1132.83 663.859C1130.86 662.755 1126.38 653.759 1124.27 651.102C1122.31 648.622 1117.79 645.146 1116.78 642.405Z"/><path fill="#C7AB85" d="M1002.23 446.088C1002.7 444.527 1003.07 443.394 1004.1 442.127C1004.59 441.528 1004.96 440.913 1005.4 440.281C1005.65 439.924 1005.91 439.576 1006.14 439.211C1006.45 438.721 1006.75 438.233 1007.1 437.774C1009.34 434.895 1011.96 431.716 1014.61 429.202C1015.81 428.057 1017.18 427.328 1018.36 426.077C1019.12 425.26 1019.75 424.674 1020.88 424.434C1021.43 424.318 1021.98 424.22 1022.53 424.098C1019.4 427.04 1015.9 429.333 1013.02 432.596C1009.31 436.785 1006.32 442.433 1002.23 446.088Z"/><path fill="#C7AB85" d="M1094.32 190.232C1098.63 186.728 1102.43 183.071 1105.87 178.697C1108.06 175.917 1110.34 169.942 1112.92 168.13C1112.9 168.357 1112.89 168.584 1112.88 168.812C1112.88 168.89 1112.89 168.968 1112.88 169.046C1112.79 171.034 1109.77 175.012 1108.61 176.764C1105.17 181.964 1100.73 186.052 1096.18 190.235C1095.98 190.422 1095.91 190.427 1095.71 190.573C1095.66 190.614 1095.62 190.667 1095.56 190.704C1095.42 190.798 1095.2 190.833 1095.04 190.762C1094.77 190.64 1094.56 190.414 1094.32 190.232Z"/><path fill="#C7AB85" d="M956.207 456.091C960.042 452.056 964.465 448.424 968.376 444.38C970.899 441.771 972.98 438.509 975.695 436.142C974.911 439.267 972.601 440.901 970.86 443.441C968.256 447.24 960.369 454.663 956.207 456.091Z"/><path fill="#C7AB85" d="M878.249 450.393C876.613 449.091 876.451 448.211 875.684 446.342C875.553 446.023 875.421 445.703 875.313 445.375C873.957 441.261 875.539 437.683 877.504 434.12C879.226 430.996 882.974 428.283 886.306 427.237L885.874 427.647C881.942 431.332 879.165 433.396 876.356 438.178C876.165 443.066 876.623 445.792 878.249 450.393Z"/><path fill="#C7AB85" d="M1162.21 669.732L1161.68 669.393C1160.28 668.511 1158.76 667.529 1157.89 666.09C1157.17 664.906 1156.39 663.71 1155.53 662.622C1155.29 662.318 1155.04 662.02 1154.82 661.699C1154.19 660.759 1153.56 659.819 1152.91 658.891C1152.43 658.203 1151.98 657.499 1151.51 656.801L1148.57 652.336C1148.49 652.212 1148.41 652.083 1148.33 651.959C1147.84 651.211 1147.16 650.372 1147.11 649.435C1147.08 648.995 1147.09 648.542 1147.07 648.1C1149.96 652.15 1152.59 656.397 1155.39 660.51C1157.54 663.652 1160.32 666.461 1162.21 669.732Z"/><path fill="#C7AB85" d="M931.081 266.858C930.984 266.826 930.66 266.73 930.543 266.662C929.714 266.178 929.684 264.55 929.417 263.693C928.933 262.141 928.646 260.684 928.309 259.105C927.787 256.663 927.679 253.459 928.197 250.989C928.33 250.354 928.46 249.741 928.531 249.094C928.6 248.459 928.655 247.866 928.8 247.24C929.086 246.005 929.157 244.578 929.992 243.574C930.32 243.475 930.102 243.515 930.657 243.59C929.081 249.454 928.597 255.328 929.915 261.295C930.321 263.135 930.876 264.987 931.081 266.858Z"/><path fill="#C7AB85" d="M1213.41 477.637C1217.56 482.427 1218.11 491.185 1217.58 497.261C1217.47 498.591 1217.03 499.896 1216.6 501.15C1216.47 501.521 1216.37 501.901 1216.24 502.27C1216.04 502.84 1215.78 502.948 1215.26 503.208C1215.55 497.51 1216.98 494.288 1216.26 488.191C1215.83 484.511 1214.46 481.161 1213.41 477.637Z"/><path fill="#C7AB85" d="M1263.7 742.538C1264.32 742.387 1264.45 742.305 1264.96 742.637C1267.37 744.194 1272.73 751.165 1274.48 753.8C1274.82 754.31 1275.18 754.815 1275.52 755.32C1275.66 755.516 1275.8 755.705 1275.94 755.901C1276.5 756.734 1276.74 757.34 1276.89 758.329C1276.96 758.747 1277.05 759.16 1277.12 759.575C1274.8 756.788 1273.01 753.537 1270.69 750.702C1268.83 748.431 1264.63 745.143 1263.7 742.538Z"/><path fill="#C7AB85" d="M1097.46 256.621C1107.79 259.187 1114.02 260.342 1124.64 258.144C1124.66 258.427 1124.71 258.524 1124.57 258.763C1124.52 258.79 1124.46 258.816 1124.42 258.844C1123.02 259.633 1120.66 259.911 1119.06 260.066C1114.74 260.487 1110.94 260.794 1106.6 259.861C1106.06 259.745 1105.54 259.614 1105 259.509C1102.21 258.961 1099.8 258.29 1097.46 256.621Z"/><path fill="#C7AB85" d="M1013.24 580.565C1012.91 580.544 1012.58 580.516 1012.25 580.506C1011.3 580.477 1010.82 580.226 1010.06 579.618C1006.67 576.893 1003.38 574.578 1000.4 571.314C999.374 570.192 999.356 569.834 999.419 568.284C1003.71 572.952 1008.13 576.815 1013.24 580.565Z"/><path fill="#C7AB85" d="M1243.09 578.717C1243.67 578.65 1243.83 578.598 1244.28 578.927C1247.17 581.009 1249.04 584.219 1252.11 586.1C1253.23 586.785 1254.27 587.862 1255.36 588.648C1256.37 589.383 1256.83 590.088 1257.45 591.158C1253.28 589.193 1245.12 582.884 1243.09 578.717Z"/><path fill="#C7AB85" d="M1128.08 372.452C1129.71 374.344 1130.36 377.283 1130.64 379.732C1131.09 383.62 1132.12 390.641 1129.46 394.02C1129.39 394.109 1128.96 394.566 1128.88 394.661C1130.25 384.615 1130.23 382.927 1128.16 372.893L1128.08 372.452Z"/><path fill="#C7AB85" d="M1076.91 568.961C1076.73 568.999 1076.55 569.046 1076.37 569.075C1076.24 569.096 1076.17 569.038 1076.07 568.948C1076.04 568.919 1076.03 568.874 1076 568.842C1075.81 568.622 1075.69 568.564 1075.57 568.286C1075.04 567.15 1075.25 564.107 1075.62 562.931C1076.18 561.102 1076.67 559.564 1077.79 557.962C1078.24 557.322 1080.97 554.312 1081.64 554.344C1081.85 554.354 1082.13 554.748 1082.19 554.806C1079.32 557.724 1076.36 561.015 1076.38 565.391C1076.39 566.609 1076.66 567.778 1076.91 568.961Z"/><path fill="#C7AB85" d="M1071.41 389.406C1075.41 391.853 1080.55 396.871 1082.88 400.923C1079.56 398.965 1077.17 396.242 1074.47 393.545C1073.2 392.276 1072.4 390.892 1071.41 389.406Z"/><path fill="#C7AB85" d="M992.912 523.876C992.894 523.645 992.881 523.413 992.859 523.182C992.851 523.101 992.827 523.021 992.821 522.94C992.76 522 994.247 520.146 994.861 519.52C995.395 518.977 995.881 518.504 996.27 517.842C996.72 517.077 997.044 516.518 997.69 515.895C997.882 515.709 998.086 515.535 998.28 515.352C999.092 514.582 999.929 513.615 1000.94 513.096C1001.31 512.908 1001.62 513.107 1001.99 513.227C1001.48 514.091 993.325 523.669 992.912 523.876Z"/><path fill="#C7AB85" d="M937.743 228.843C938.017 228.068 938.255 227.365 938.657 226.646C939.297 225.502 939.87 224.273 940.849 223.376C943.694 220.766 945.595 218.53 949.392 217.14C945.637 221.016 941.605 225.081 937.743 228.843Z"/><path fill="#C7AB85" d="M1132.83 663.859C1133.19 664.152 1133.57 664.429 1133.91 664.727C1134.59 665.315 1134.95 666.155 1135.38 666.925C1136.39 668.75 1137.3 670.62 1138.39 672.397C1138.48 672.542 1138.55 672.694 1138.64 672.838C1138.73 672.982 1138.84 673.115 1138.92 673.26C1139.66 674.52 1139.71 675.233 1139.68 676.667C1136.92 672.87 1134.39 668.286 1132.83 663.859Z"/><path fill="#C7AB85" d="M1140.42 131.33C1140.41 131.175 1140.4 131.02 1140.38 130.866C1140.19 128.868 1142.07 127.478 1143.07 125.911C1143.31 125.535 1143.53 125.149 1143.83 124.81C1144.95 123.506 1145.79 122.026 1147.33 121.142L1148.32 120.583C1147.47 122.373 1141.84 130.47 1140.42 131.33Z"/><path fill="#C7AB85" d="M1180.65 623.861C1181.13 624.034 1181.61 624.193 1182.08 624.373C1184.87 625.445 1187.32 629.451 1189.11 631.78C1189.78 632.655 1190.12 633.387 1190.54 634.396C1187.14 631.663 1183.27 627.336 1180.65 623.861Z"/><path fill="#C7AB85" d="M1253.46 647.102C1256.71 646.74 1260.92 647.535 1264.39 647.473C1264.4 647.512 1264.66 648.058 1264.53 648.262C1264.39 648.497 1263.81 648.552 1263.54 648.606C1261.82 648.95 1260.5 649.17 1258.76 648.813C1257.41 648.538 1255.99 648.651 1254.75 648.001C1254.62 647.931 1254.49 647.848 1254.35 647.791C1253.75 647.545 1253.92 647.717 1253.46 647.102Z"/><path fill="#C7AB85" d="M1106.81 634.829C1106.96 634.728 1107.1 634.631 1107.24 634.528C1107.3 634.489 1107.34 634.44 1107.4 634.404C1107.53 634.318 1107.71 634.273 1107.86 634.353C1108.5 634.688 1108.59 634.856 1109.13 635.237C1109.39 635.422 1109.69 635.554 1109.96 635.721C1112.61 637.353 1114.94 639.915 1116.78 642.405C1113.59 640.689 1109.36 637.397 1106.81 634.829Z"/><path fill="#C7AB85" d="M1269.43 685.795C1269.77 685.642 1270.06 685.429 1270.44 685.538C1271.45 685.828 1272.61 686.8 1273.49 687.375C1274.02 687.722 1274.37 688.109 1274.81 688.564C1275.26 689.045 1275.74 689.355 1276.29 689.71C1276.81 690.044 1277.5 690.594 1277.67 691.218C1277.75 691.484 1277.56 691.865 1277.5 692.062C1275.56 691.112 1270.75 687.516 1269.43 685.795Z"/><path fill="#C7AB85" d="M1148.4 120.273C1149.35 117.602 1153.55 113.064 1155.94 111.762C1156.28 111.579 1156.56 111.728 1156.91 111.814C1155.78 114.406 1150.75 118.645 1148.4 120.273Z"/><path fill="#C7AB85" d="M1233.5 635.943C1233.05 636.361 1233.27 636.259 1232.92 636.378C1231.55 636.095 1227.7 631.722 1226.48 630.508C1225.5 629.525 1225.29 628.325 1225.26 627.007C1227.79 630.243 1230.82 632.884 1233.5 635.943Z"/><path fill="#C7AB85" d="M1172.55 617.395C1173.54 617.293 1174.18 617.593 1174.98 618.223C1176.96 619.767 1179.75 621.434 1180.65 623.861C1180.35 623.81 1180.01 623.784 1179.74 623.629C1178.34 622.827 1172.96 618.689 1172.55 617.395Z"/><path fill="#C7AB85" d="M1255.02 91.6654C1256.81 89.8148 1261.76 84.3933 1263.87 83.7523C1263.99 84.336 1264.08 84.5035 1263.73 84.9766C1262.01 87.3244 1259.61 89.2463 1257.14 90.7314C1256.45 91.1446 1255.77 91.3848 1255.02 91.6654Z"/><path fill="#C7AB85" d="M940.516 283.776C941.915 284.316 946.267 289.304 946.949 290.667C946.711 290.741 946.476 290.864 946.227 290.859C944.436 290.824 942.648 287.214 941.589 286.076C941.067 285.516 941.106 285.662 940.636 285.02C940.307 284.57 940.403 284.306 940.516 283.776Z"/><path fill="#C7AB85" d="M1083.09 401.113C1085.82 403.287 1087.99 405.997 1090.75 408.159C1091.14 408.461 1091.51 408.789 1091.88 409.106C1090.57 408.685 1089.07 408.294 1087.95 407.467C1085.83 405.902 1083.49 403.766 1083.09 401.113Z"/><path fill="#C7AB85" d="M1139.1 636.986C1141.78 639.755 1144.42 643.445 1146.12 646.897C1143.67 645.542 1143.12 643.953 1141.49 641.797C1140.15 640.021 1139.69 639.149 1139.1 636.986Z"/><path fill="#C7AB85" d="M1134.38 254.115C1136.34 252.351 1139.59 249.203 1141.9 248.041C1142 248.415 1142.18 248.739 1142 249.103C1140.78 251.54 1136.88 253.383 1134.38 254.115Z"/><path fill="#C7AB85" d="M996.19 453.251C995.931 451.724 997.183 451.215 997.936 450.011C998.77 448.678 999.374 447.764 1000.8 446.959C1001.21 446.727 1001.65 446.525 1002.07 446.302C1001.07 448.343 998.157 452.26 996.19 453.251Z"/><path fill="#C7AB85" d="M1164.98 672.658C1167.9 674.337 1170.51 676.695 1173.23 678.698C1172.9 678.678 1172.57 678.651 1172.24 678.641C1171.37 678.614 1170.89 678.427 1170.19 677.887C1169.99 677.738 1169.82 677.567 1169.62 677.42C1168.23 676.38 1167.15 675.609 1166.09 674.179L1164.98 672.658Z"/><path fill="#C7AB85" d="M1263.82 27.4379C1265.21 24.8322 1267.03 22.0564 1269.1 19.9472C1268.91 20.5951 1268.73 21.2447 1268.55 21.8945C1267.96 24.0396 1266.2 25.7998 1264.43 27.0126C1264.22 27.1522 1264.02 27.2962 1263.82 27.4379Z"/><path fill="#C7AB85" d="M1157.95 700.694C1159.84 701.053 1160.67 701.952 1162.21 703.063C1162.93 703.584 1163.38 704.344 1163.86 705.07C1164 705.275 1164.14 705.478 1164.28 705.682C1161.74 704.316 1159.74 703 1157.95 700.694Z"/><path fill="#C7AB85" d="M1165.61 612.916C1166.16 613.031 1166.7 613.135 1167.24 613.24C1169.23 613.622 1171.12 615.165 1172.19 616.837L1172.55 617.395C1170.02 616.268 1167.68 614.757 1165.61 612.916Z"/><path fill="#C7AB85" d="M1257.63 737.756C1258.03 737.785 1258.42 737.799 1258.82 737.818C1259.75 737.862 1260.48 738.339 1261.07 739.03C1262 740.137 1262.83 741.376 1263.7 742.538C1261.36 741.195 1259.63 739.535 1257.63 737.756Z"/><path fill="#C7AB85" d="M1251.83 733.65C1251.97 733.542 1252.12 733.436 1252.25 733.324C1252.3 733.283 1252.35 733.232 1252.4 733.194C1252.57 733.073 1252.68 733.054 1252.87 733.128C1254.81 733.859 1255.85 735.173 1256.78 736.949C1255.07 736.016 1253.31 734.928 1251.83 733.65Z"/><path fill="#C7AB85" d="M1156.91 111.814C1157.13 111.512 1157.35 111.213 1157.57 110.905C1159.11 108.651 1160.05 108.054 1162.67 107.432C1161.08 109.269 1159.07 110.707 1156.91 111.814Z"/><path fill="#C7AB85" d="M992.352 411.823C992.324 412.267 992.319 412.715 992.29 413.156C992.196 414.573 990.845 416.236 989.76 417.068C989.285 417.433 988.792 417.779 988.313 418.139C989.406 415.773 990.816 413.909 992.352 411.823Z"/><path fill="#C7AB85" d="M802.683 413.033C803.779 410.688 804.791 408.781 806.564 406.876C805.962 408.981 805.493 411.16 803.551 412.434C803.257 412.627 802.972 412.833 802.683 413.033Z"/><path fill="#C7AB85" d="M1274.51 592.997C1276.04 591.201 1277.9 589.6 1280 588.529L1280 589.415C1278.18 590.978 1276.68 591.974 1274.51 592.997Z"/><path fill="#C7AB85" d="M1267.97 78.2537C1267.94 78.6553 1267.94 79.0598 1267.91 79.4596C1267.83 80.7092 1266.58 81.7488 1265.67 82.4388C1265.08 82.8848 1264.47 83.3062 1263.87 83.7523C1265.05 81.6519 1266.4 80.0688 1267.97 78.2537Z"/><path fill="#C7AB85" d="M975.93 435.927C976.905 433.878 978.129 432.241 979.733 430.629C979.208 432.258 978.733 434.607 977.025 435.443C976.666 435.618 976.295 435.767 975.93 435.927Z"/><path fill="#C7AB85" d="M936.459 278.143C938.26 279.828 939.445 281.554 940.516 283.776C937.912 282.231 937.489 280.946 936.459 278.143Z"/><path fill="#C7AB85" d="M1262.6 705.237C1264.63 706.262 1266.32 707.441 1267.88 709.098C1267.22 708.895 1266.56 708.72 1265.89 708.529C1264.14 708.026 1263.42 706.749 1262.6 705.237Z"/><path fill="#C7AB85" d="M1214.75 611.997C1216.32 613.666 1217.6 615.473 1218.67 617.494C1218.37 617.284 1218.07 617.068 1217.76 616.868C1215.36 615.306 1215.48 614.72 1214.75 611.997Z"/><path fill="#C7AB85" d="M1162.44 669.917C1163.58 670.772 1164.51 671.276 1164.98 672.658C1164.38 672.791 1163.96 672.97 1163.43 672.617C1162.92 672.285 1162.75 671.665 1162.64 671.104C1162.57 670.71 1162.51 670.312 1162.44 669.917Z"/><path fill="#C7AB85" d="M965.663 515.597C966.785 513.531 968.011 511.842 969.683 510.189C968.964 512.477 968.687 513.619 966.593 514.975C966.28 515.178 965.973 515.389 965.663 515.597Z"/><path fill="#C7AB85" d="M881.919 454.931C881.334 454.547 880.754 454.164 880.149 453.812C879.731 453.569 879.273 453.342 878.942 452.978C878.578 452.579 878.405 452.061 878.464 451.524C878.474 451.436 878.498 451.349 878.508 451.261C878.536 451.01 878.555 450.758 878.579 450.507C879.812 451.951 880.898 453.325 881.919 454.931Z"/><path fill="#C7AB85" d="M1236.74 54.576C1237.93 53.6484 1239.01 52.8646 1240.33 52.1294C1239.58 53.2766 1238.6 55.2143 1237.28 55.7327C1237.19 55.7215 1237.15 55.7308 1237.09 55.6506C1236.92 55.4404 1236.84 54.9154 1236.8 54.7818C1236.78 54.7126 1236.76 54.6446 1236.74 54.576Z"/><path fill="#C7AB85" d="M1086.07 195.411C1087.76 194.438 1089.41 193.493 1091.16 192.636C1090.94 193.034 1090.74 193.459 1090.51 193.846C1090.01 194.663 1089.04 195.36 1088.1 195.525C1087.42 195.644 1086.74 195.481 1086.07 195.411Z"/><path fill="#C7AB85" d="M984.531 423.751C985.324 422.11 986.11 420.677 987.459 419.423C987.409 419.854 987.378 420.285 987.334 420.715C987.241 421.603 986.749 422.191 986.035 422.686C985.828 422.83 985.615 422.964 985.409 423.108C985.112 423.316 984.823 423.536 984.531 423.751Z"/><path fill="#C7AB85" d="M960.241 524.95C960.357 523.425 961.21 522.48 962.066 521.278L961.967 521.839C961.881 522.35 961.851 522.853 961.773 523.36C961.7 523.829 961.499 524.5 961.042 524.747C960.764 524.896 960.585 524.887 960.241 524.95Z"/><path fill="#C7AB85" d="M1270.79 74.3157C1270.9 74.46 1271.02 74.6066 1271.13 74.7488C1271.18 74.8025 1271.23 74.8477 1271.28 74.9032C1271.39 75.0602 1271.44 75.188 1271.38 75.3821C1271.19 76.042 1270.56 76.273 1270.04 76.6044C1269.62 76.8682 1269.22 77.1606 1268.82 77.4458C1269.41 76.3227 1269.99 75.3075 1270.79 74.3157Z"/><path fill="#C7AB85" d="M1080.32 575.249C1079.87 574.988 1079.43 574.719 1078.97 574.48C1078.87 574.426 1078.76 574.388 1078.66 574.333C1078.25 574.109 1077.89 573.875 1077.74 573.404C1077.81 573.031 1078.1 572.895 1078.39 572.606C1079.31 573.444 1079.73 574.168 1080.32 575.249Z"/><path fill="#C7AB85" d="M1270.26 17.9901C1270.62 16.9283 1271.1 16.4314 1271.9 15.665C1271.81 16.2138 1271.78 16.728 1271.73 17.2745C1271.7 17.5484 1271.64 17.7783 1271.44 17.9729C1271.19 18.2143 1270.41 18.0091 1270.26 17.9901Z"/><path fill="#C7AB85" d="M946.807 321.131C947.041 321.109 947.276 321.093 947.51 321.064C947.599 321.053 947.686 321.027 947.776 321.012C947.99 320.978 948.201 320.937 948.385 321.083C948.557 321.22 948.544 321.742 948.56 321.9C948.572 322.022 948.59 322.144 948.605 322.266C948.492 322.238 948.377 322.211 948.264 322.18C947.463 321.96 947.214 321.835 946.807 321.131Z"/><path fill="#C7AB85" d="M1271.9 15.665C1272.25 14.5846 1272.3 13.6632 1273.33 13.0561C1273.34 13.2916 1273.36 13.5275 1273.38 13.7625C1273.39 13.8493 1273.41 13.9343 1273.42 14.021C1273.45 14.2951 1273.43 14.5902 1273.24 14.8057C1273.04 15.0236 1272.81 15.1028 1272.57 15.2488C1272.34 15.3826 1272.12 15.5263 1271.9 15.665Z"/><path fill="#C7AB85" d="M936.459 278.143C936.35 278.116 936.241 278.086 936.131 278.062C935.944 278.021 935.556 278.001 935.413 277.831C935.388 277.668 935.469 277.571 935.564 277.441C935.603 277.387 935.651 277.338 935.69 277.283C935.79 277.142 935.884 276.997 935.981 276.854C936.434 277.357 936.406 277.44 936.459 278.143Z"/><path fill="#FBFCFB" d="M1196.91 138.39C1199.12 138.057 1206.78 133.265 1209.73 132.18C1220.77 128.115 1230.51 127.639 1241.26 132.593C1241.69 132.636 1242.1 132.663 1242.52 132.696C1243.65 132.784 1244.4 133.445 1245.03 134.326C1247.14 137.285 1248.34 139.394 1249.37 142.855C1250.28 145.891 1250.31 149.196 1249.77 152.285C1249.7 152.692 1249.68 153.106 1249.63 153.515C1249.6 153.711 1249.6 153.824 1249.47 153.96C1249.32 154.126 1248.61 153.884 1248.6 153.881C1241.33 183.555 1222.88 182.877 1209.31 203.73C1209.27 204.157 1209.24 204.59 1209.19 205.017C1209.07 206.126 1208.44 207.044 1207.86 207.957C1207.16 209.04 1206.61 210.197 1206 211.326C1205.24 212.725 1204.84 213.414 1203.62 214.446C1203.34 214.678 1203.08 214.925 1202.81 215.167L1202.24 216.678C1202.09 223.06 1198 229.314 1197.56 235.953C1197.28 240.174 1197.5 244.77 1198.07 248.952C1199.39 258.638 1205.87 279.784 1198.11 287.369C1196.44 290.128 1194.75 292.873 1193.04 295.606C1193 296.041 1192.99 296.482 1192.95 296.915C1192.81 298.554 1189.35 301.568 1188.04 302.462C1187.59 302.775 1187.39 302.711 1186.82 302.655C1182.15 305.974 1177.42 308.908 1172.13 311.126C1164.84 314.234 1156.99 315.817 1149.07 315.778C1130.87 315.761 1113.32 311.178 1095.36 308.808C1081 307.04 1066.63 305.365 1052.24 303.782C1038.08 302.159 1021 301.338 1007.82 295.637C998.826 291.746 993.4 284.117 989.847 275.378C989.375 275.365 989.561 275.418 989.272 275.302C988.55 274.366 988.542 273.035 988.604 271.911C988.703 270.12 989.022 267.818 990.385 266.557L993.336 260.651L998.102 256.56C1000.49 256.103 1003.67 254.045 1005.94 252.964C1006.94 251.719 1008.46 251.435 1010 251.225C1017.46 250.213 1026.29 251.547 1033.53 253.414C1033.98 253.528 1034.32 253.555 1034.76 253.617C1035.16 253.672 1036.27 254.045 1036.46 254.417C1036.57 254.634 1036.48 254.828 1036.45 255.073C1046.11 258.205 1055.97 261.473 1064.9 266.406C1070.27 269.371 1080.61 277.666 1085.53 279.116C1088.47 279.969 1091.86 281.377 1093.67 284.037C1093.87 284.339 1094.09 284.634 1094.3 284.932L1094.58 285.438C1101.54 289.916 1108.55 290.526 1116.69 290.194C1126.18 289.807 1143.35 286.108 1150.12 278.78C1152.62 277.397 1155.6 275.476 1157.09 272.996C1158.24 269.715 1160.88 267.68 1163.68 265.745C1163.9 265.564 1164.2 265.338 1164.4 265.121C1170.96 258.187 1174.88 242.806 1174.83 233.565C1172.97 227.411 1174.13 220.487 1172.73 214.188C1172.38 212.607 1171.84 210.69 1171.7 209.093C1171.33 204.903 1169.89 201.334 1171 197.138C1170.52 187.615 1170.76 176.721 1174.31 167.763C1175.65 164.384 1177.54 161.25 1178.93 157.888L1179.07 157.527C1179.16 157.124 1179.25 156.723 1179.32 156.318C1179.46 155.592 1179.61 155.034 1180.05 154.429C1180.46 153.882 1180.85 153.379 1181.21 152.796C1182.16 151.25 1183.83 148.892 1185.21 147.73C1187.33 145.95 1189.35 143.901 1191.26 141.89C1192.94 140.12 1194.58 139.153 1196.91 138.39Z"/><path fill="#C7AB85" d="M1202.24 216.678C1202.09 223.06 1198 229.314 1197.56 235.953C1197.28 240.174 1197.5 244.77 1198.07 248.952C1199.39 258.638 1205.87 279.784 1198.11 287.369C1199.78 281.302 1200.71 275.72 1200.37 269.39C1200.02 262.904 1198.1 256.423 1197.09 250.005C1195.46 239.674 1196.58 225.748 1202.24 216.678Z"/><path fill="#C7AB85" d="M1174.83 233.565C1172.97 227.411 1174.13 220.487 1172.73 214.188C1172.38 212.607 1171.84 210.69 1171.7 209.093C1171.33 204.903 1169.89 201.334 1171 197.138C1172.32 209.61 1175.5 220.814 1174.83 233.565Z"/><path fill="#C7AB85" d="M1005.94 252.964C1006.94 251.719 1008.46 251.435 1010 251.225C1017.46 250.213 1026.29 251.547 1033.53 253.414C1033.98 253.528 1034.32 253.555 1034.76 253.617C1035.16 253.672 1036.27 254.045 1036.46 254.417C1036.57 254.634 1036.48 254.828 1036.45 255.073C1036.3 255.039 1036.15 255.008 1036 254.973C1034.89 254.712 1033.75 254.524 1032.64 254.254C1032.07 254.115 1031.51 253.979 1030.93 253.882C1030.47 253.804 1030.02 253.736 1029.56 253.634C1024.66 252.54 1018.15 251.77 1013.13 252.178C1010.84 252.364 1008.18 253.146 1005.94 252.964Z"/><path fill="#C7AB85" d="M1241.26 132.593C1241.69 132.636 1242.1 132.663 1242.52 132.696C1243.65 132.784 1244.4 133.445 1245.03 134.326C1247.14 137.285 1248.34 139.394 1249.37 142.855C1250.28 145.891 1250.31 149.196 1249.77 152.285C1249.7 152.692 1249.68 153.106 1249.63 153.515C1249.6 153.711 1249.6 153.824 1249.47 153.96C1249.32 154.126 1248.61 153.884 1248.6 153.881C1248.83 150.879 1248.97 147.706 1248.68 144.702C1248.22 139.847 1244.77 135.668 1241.26 132.593Z"/><path fill="#C7AB85" d="M1179.07 157.527C1179.16 157.124 1179.25 156.723 1179.32 156.318C1179.46 155.592 1179.61 155.034 1180.05 154.429C1180.46 153.882 1180.85 153.379 1181.21 152.796C1182.16 151.25 1183.83 148.892 1185.21 147.73C1187.33 145.95 1189.35 143.901 1191.26 141.89C1192.94 140.12 1194.58 139.153 1196.91 138.39C1194.16 141.198 1190.89 143.456 1188.16 146.341C1184.82 149.887 1182.24 153.893 1179.07 157.527Z"/><path fill="#C7AB85" d="M989.847 275.378C989.375 275.365 989.561 275.418 989.272 275.302C988.55 274.366 988.542 273.035 988.604 271.911C988.703 270.12 989.022 267.818 990.385 266.557C990.731 268.909 990.157 272.887 989.847 275.378Z"/><path fill="#C7AB85" d="M1209.31 203.73C1209.27 204.157 1209.24 204.59 1209.19 205.017C1209.07 206.126 1208.44 207.044 1207.86 207.957C1207.16 209.04 1206.61 210.197 1206 211.326C1205.24 212.725 1204.84 213.414 1203.62 214.446C1203.34 214.678 1203.08 214.925 1202.81 215.167C1204.55 211.126 1206.73 207.29 1209.31 203.73Z"/><path fill="#C7AB85" d="M1085.53 279.116C1088.47 279.969 1091.86 281.377 1093.67 284.037C1093.87 284.339 1094.09 284.634 1094.3 284.932C1091.19 283.426 1088.07 281.47 1085.53 279.116Z"/><path fill="#C7AB85" d="M1193.04 295.606C1193 296.041 1192.99 296.482 1192.95 296.915C1192.81 298.554 1189.35 301.568 1188.04 302.462C1187.59 302.775 1187.39 302.711 1186.82 302.655C1188.07 300.248 1191.24 297.818 1193.04 295.606Z"/><path fill="#C7AB85" d="M1157.09 272.996C1158.24 269.715 1160.88 267.68 1163.68 265.745C1162.17 268.382 1160.16 270.854 1157.66 272.599L1157.09 272.996Z"/><path fill="#FBFCFB" d="M872.559 376.736C873.924 375.855 875.353 375.063 876.776 374.279C891.361 366.247 905.806 367.21 921.22 371.685C921.767 371.788 922.313 371.88 922.861 371.973C925.2 372.366 929.07 375.99 930.265 377.99C931.611 380.244 932.797 384.639 931.852 387.211C931.552 388.028 930.957 388.749 930.465 389.454C930.445 389.675 930.423 389.895 930.407 390.117C930.402 390.192 930.407 390.268 930.399 390.344C930.301 391.334 928.036 394.438 927.151 395.025C926.547 395.426 926.324 395.292 925.585 395.163C925.292 395.665 925.014 396.167 924.737 396.678C924.505 397.104 924.234 397.585 923.731 397.726C923.467 397.8 923.239 397.76 923.025 397.592C922.927 397.515 922.838 397.426 922.742 397.346C922.651 397.272 922.557 397.202 922.464 397.13C917.098 400.244 911.64 402.499 905.757 404.449C898.774 406.765 874.045 411.344 869.891 416.397L868.66 418.156C866.785 420.782 863.966 422.552 862.109 425.3C861.485 426.223 860.435 426.874 859.562 427.539C856.606 431.37 855.979 438.159 856.628 442.818C856.929 444.981 857.885 448.747 859.571 450.19C860.926 450.934 861.544 451.442 862.382 452.729C862.888 453.506 863.427 454.265 863.937 455.041C864.269 455.546 864.659 455.957 865.074 456.393C865.548 456.891 865.916 457.405 866.297 457.971C866.682 458.544 867.106 459.019 867.58 459.517C868.353 460.33 868.916 461.282 869.641 462.135C870.788 463.482 871.095 464.712 871.58 466.387C872.966 469.897 874.312 473.091 873.958 476.947C874.021 477.393 874.162 477.876 873.8 478.242C873.446 478.6 872.984 478.493 872.54 478.452C871.823 478.672 871.094 478.851 870.357 478.988C855.54 481.753 842.27 472.166 830.683 464.471C830.344 464.571 830.154 464.672 829.827 464.662C829.317 464.648 828.716 464.014 828.424 463.655C827.853 462.95 827.828 462.769 827.967 461.962C827.12 461.282 825.262 460.223 824.879 459.184C824.811 458.998 824.841 458.874 824.953 458.715C824.992 458.66 825.044 458.614 825.086 458.56C825.197 458.418 825.303 458.272 825.411 458.128C824.113 456.075 822.847 454.003 821.613 451.912C821.493 451.862 821.235 451.757 821.14 451.699C820.712 451.44 820.591 451.011 820.448 450.564L820.304 450.105C818.555 444.72 817.897 439.724 819.446 434.179C819.505 433.969 819.577 433.763 819.639 433.554C819.768 433.118 819.873 432.674 820.028 432.247C820.234 431.678 820.5 431.56 821.035 431.359L825.314 423.827C825.125 423.641 824.926 423.462 824.745 423.267C824.651 423.166 824.602 423.021 824.633 422.886C824.87 421.883 827.374 420.728 828.163 420.208C829.666 419.333 843.616 408.685 844.47 407.542C846.741 404.227 850.565 401.787 852.497 398.479C853.44 396.864 854.708 396.208 856.202 395.158C857.975 394.013 859.856 390.121 861.069 388.248C860.995 388.153 860.924 388.056 860.848 387.962C860.725 387.811 860.586 387.69 860.503 387.514C860.413 387.323 860.439 387.121 860.523 386.928C860.851 386.172 861.984 385.862 862.678 385.585L863.066 385.525C865.952 382.178 869.113 379.473 872.559 376.736Z"/><path fill="#C7AB85" d="M821.613 451.912C821.493 451.862 821.235 451.757 821.14 451.699C820.712 451.44 820.591 451.011 820.448 450.564L820.304 450.105C818.555 444.72 817.897 439.724 819.446 434.179C819.505 433.969 819.577 433.763 819.639 433.554C819.768 433.118 819.873 432.674 820.028 432.247C820.234 431.678 820.5 431.56 821.035 431.359C821.016 431.601 821.007 431.845 820.978 432.086C820.219 438.342 819.148 443.143 821.124 449.455C821.387 450.293 821.569 451.032 821.613 451.912Z"/><path fill="#C7AB85" d="M921.22 371.685C921.767 371.788 922.313 371.88 922.861 371.973C925.2 372.366 929.07 375.99 930.265 377.99C931.611 380.244 932.797 384.639 931.852 387.211C931.552 388.028 930.957 388.749 930.465 389.454C930.764 387.716 931.299 385.884 931.178 384.112C930.742 377.749 925.54 375.178 921.22 371.685Z"/><path fill="#C7AB85" d="M859.571 450.19C860.926 450.934 861.544 451.442 862.382 452.729C862.888 453.506 863.427 454.265 863.937 455.041C864.269 455.546 864.659 455.957 865.074 456.393C865.548 456.891 865.916 457.405 866.297 457.971C866.682 458.544 867.106 459.019 867.58 459.517C868.353 460.33 868.916 461.282 869.641 462.135C870.788 463.482 871.095 464.712 871.58 466.387C867.365 461.934 862.132 455.694 859.571 450.19Z"/><path fill="#C7AB85" d="M844.47 407.542C846.741 404.227 850.565 401.787 852.497 398.479C853.44 396.864 854.708 396.208 856.202 395.158C853.67 399.725 848.955 404.866 844.47 407.542Z"/><path fill="#C7AB85" d="M859.562 427.539C861.625 422.984 865.555 418.85 869.891 416.397L868.66 418.156C866.785 420.782 863.966 422.552 862.109 425.3C861.485 426.223 860.435 426.874 859.562 427.539Z"/><path fill="#C7AB85" d="M925.585 395.163C926.027 393.777 927.415 392.83 928.282 391.667C928.986 390.721 929.414 389.994 930.465 389.454C930.445 389.675 930.423 389.895 930.407 390.117C930.402 390.192 930.407 390.268 930.399 390.344C930.301 391.334 928.036 394.438 927.151 395.025C926.547 395.426 926.324 395.292 925.585 395.163Z"/><path fill="#C7AB85" d="M827.967 461.962C828.98 462.286 829.889 462.959 830.416 463.914C830.515 464.094 830.594 464.285 830.683 464.471C830.344 464.571 830.154 464.672 829.827 464.662C829.317 464.648 828.716 464.014 828.424 463.655C827.853 462.95 827.828 462.769 827.967 461.962Z"/><path fill="#C7AB85" d="M825.314 423.827C825.125 423.641 824.926 423.462 824.745 423.267C824.651 423.166 824.602 423.021 824.633 422.886C824.87 421.883 827.374 420.728 828.163 420.208C827.304 421.573 826.53 422.749 825.314 423.827Z"/><path fill="#C7AB85" d="M827.967 461.962C827.12 461.282 825.262 460.223 824.879 459.184C824.811 458.998 824.841 458.874 824.953 458.715C824.992 458.66 825.044 458.614 825.086 458.56C825.197 458.418 825.303 458.272 825.411 458.128C826.498 459.362 827.215 460.504 827.967 461.962Z"/><path fill="#C7AB85" d="M922.464 397.13C923.434 396.228 924.411 395.745 925.585 395.163C925.292 395.665 925.014 396.167 924.737 396.678C924.505 397.104 924.234 397.585 923.731 397.726C923.467 397.8 923.239 397.76 923.025 397.592C922.927 397.515 922.838 397.426 922.742 397.346C922.651 397.272 922.557 397.202 922.464 397.13Z"/><path fill="#C7AB85" d="M861.069 388.248C860.995 388.153 860.924 388.056 860.848 387.962C860.725 387.811 860.586 387.69 860.503 387.514C860.413 387.323 860.439 387.121 860.523 386.928C860.851 386.172 861.984 385.862 862.678 385.585C862.222 386.619 861.785 387.368 861.069 388.248Z"/><path fill="#C7AB85" d="M873.958 476.947C874.021 477.393 874.162 477.876 873.8 478.242C873.446 478.6 872.984 478.493 872.54 478.452C872.927 477.577 873.119 477.452 873.958 476.947Z"/><path fill="#F1EEE9" d="M0 28.538C6.69477 30.6141 10.9692 35.2687 14.2165 41.3704C16.9364 46.481 22.0096 60.9092 21.3146 66.783C22.4061 69.5745 23.0009 73.1818 23.4236 76.1538L23.5441 76.5025C25.4786 82.2668 26.2615 88.4302 28.11 94.2408C32.6376 108.473 44.3742 119.612 57.476 126.183C65.1055 129.936 73.1516 132.773 81.4469 134.636C99.8918 138.932 117.455 139.542 133.821 150.322C136.31 151.961 139.339 153.787 141.305 156.022C143.241 157.574 144.755 159.089 146.275 161.051C150.148 164.828 155.884 174.473 155.787 180.06C155.783 180.302 155.762 180.544 155.749 180.786C156.15 182.15 156.378 183.503 156.604 184.902C156.643 185.025 156.685 185.148 156.722 185.271C157.854 189.035 157.365 193.246 157.163 197.113C156.786 205.672 155.375 214.155 152.961 222.376C150.891 229.185 147.401 235.525 145.456 242.363C141.043 257.875 145.232 274.687 159.927 282.995C168.977 288.112 179.984 288.484 189.829 285.655C198.447 283.179 206.699 278.057 211.117 270.035C213.976 264.845 214.713 259.021 213.901 253.189C213.785 251.754 213.654 250.319 213.508 248.887C212.202 246.715 211.508 244.216 210.072 242.088C205.325 235.056 198.703 230.141 196.858 221.481C196.204 218.973 196.237 217.005 196.407 214.444C197.279 209.764 198.935 206.188 202.332 202.774C212.095 192.963 228.603 190.906 241.817 190.94C259.759 190.986 285.358 197.603 298.356 210.706L300.22 212.299C301.794 213.623 303.128 215.077 304.396 216.69C310.186 221.869 313.774 230.437 314.157 238.118C314.547 245.959 311.719 253.337 306.368 259.053C294.696 271.519 275.496 272.011 260.021 275.222C253.547 276.565 247.055 278.68 240.911 281.107C210.977 292.934 136.755 339.909 137.138 375.57C137.199 381.196 139.266 386.47 143.312 390.418C148.039 395.031 154.452 397.003 160.964 396.898C169.871 396.77 178.348 393.047 184.469 386.575C197.504 372.983 196.438 351.941 213.502 341.408C218.035 338.568 223.229 336.958 228.574 336.734C258.475 335.613 268.785 378.923 293.345 352.669C309.64 335.25 301.241 313.008 332.464 307.699C335.66 307.431 338.71 307.437 341.906 307.676C361.312 311.428 380.334 320.916 391.699 337.682C394.883 342.38 400.873 352.792 399.992 358.601C401.438 363.635 401.42 373.313 400.008 378.397C400.394 383.084 397.614 388.369 397.077 393.125C396.249 400.452 397.829 408.538 398.594 415.828C398.832 419.397 398.864 422.513 398.082 426.023C399.241 434.321 392.461 446.47 387.667 452.86C379.671 463.519 369.011 469.89 356.729 474.525C353.941 475.577 350.784 476.978 347.821 477.356C321.379 480.725 304.575 469.393 284.749 454.128C279.843 450.351 273.522 445.514 267.3 444.424C263.608 443.776 258.849 445.053 255.317 446.068C248.601 447.999 242.794 452.387 238.5 457.844C231.524 466.711 229.285 478.616 230.638 489.654C231.39 495.785 233.258 503.877 238.289 507.998C242.104 511.123 247.286 511.593 252.012 510.954C252.213 510.927 252.412 510.885 252.612 510.851C257.494 510.549 263.672 509.905 268.336 511.401C274.652 511.072 282.575 516.293 287.088 520.309C294.681 527.067 298.68 535.148 299.857 545.197C300.018 547.865 300.001 550.437 299.843 553.103C298.573 566.005 292.545 576.629 282.566 584.866C271.347 594.126 256.037 599.222 241.68 600.752C222.257 602.822 193.914 596.04 182.705 616.901C180.259 621.451 178.76 626.128 178.263 631.271C176.913 645.241 182.975 657.457 183.672 671.115C183.724 674.083 183.738 676.995 183.576 679.962C181.809 695.83 174.288 707.801 161.949 717.649C146.956 729.615 126.747 736.418 108.144 740.068C99.9918 741.668 91.55 742.531 83.4967 744.525C64.3514 749.264 43.1473 759.632 28.9826 773.564C20.3964 782.11 13.2951 792.028 7.97092 802.91C5.58068 807.792 3.5014 814.557 0 818.647L0 793.147L0 733.809L0 155.878L0 74.4722L0 28.538Z"/><path fill="#FBFCFB" d="M0 74.4722L0.163413 74.8741C2.94292 81.8376 4.78311 89.104 7.79229 96.0142C18.1415 119.78 35.9197 136.314 59.487 146.538C70.2458 151.205 81.4131 151.163 92.7032 153.336C110.78 156.817 135.167 167.619 142.361 185.707C146.544 196.225 145.11 208.534 140.55 218.691C133.168 235.136 121.226 243.887 118.894 263.587C118.756 266.773 118.715 269.859 118.958 273.04C120.188 287.206 136.03 293.706 135.305 308.948C134.913 317.176 130.992 324.393 124.881 329.809C117.01 336.783 106.246 340.086 95.8121 339.44C85.9722 338.842 76.7942 334.283 70.3717 326.803C63.8925 319.262 61.8467 310.421 62.6983 300.652C64.1755 283.706 77.155 275.635 88.9104 265.613C97.7472 258.08 105.779 247.671 106.661 235.71L106.718 234.892C107.083 232.028 106.906 229.094 106.772 226.215C106.504 223.818 105.992 221.547 105.251 219.251C102.649 211.191 97.5037 204.147 91.0212 198.764C65.5693 177.631 45.1806 192.888 24.1803 181.683C18.7735 178.845 14.0297 174.893 10.2619 170.087C7.38185 166.373 3.96327 157.941 0 155.878L0 74.4722Z"/><path fill="#FBFCFB" d="M38.1166 669.101C38.1992 669.017 38.2832 668.935 38.3646 668.85C43.0369 663.981 46.6093 657.419 50.7144 652.029C59.7074 640.219 78.3673 621.044 94.0571 620.534C99.8758 620.345 106.531 624.517 110.599 628.453C115.719 633.407 119.44 638.831 119.452 646.193C119.463 652.998 116.513 657.168 111.822 661.758C109.565 663.967 107.176 665.931 104.432 667.508C96.8336 671.876 71.8808 680.739 71.2491 690.314C71.1359 692.03 72.0356 694.187 73.1982 695.428C74.5899 696.914 76.9816 697.166 78.8998 697.369L81.7428 697.438C93.3703 696.391 106.937 690.063 115.054 681.598C116.272 680.859 117.23 679.519 118.165 678.444C122.971 673.677 125.456 668.064 133.065 668.063C135.229 668.063 137.269 668.561 138.769 670.217C140.979 672.654 141.035 676.494 140.754 679.59C139.964 688.3 135.555 696.985 128.78 702.573C113.538 715.144 100.199 714.318 82.2621 717.579C58.7374 721.856 38.4231 734.612 22.9432 752.646C15.7408 761.036 9.98308 770.007 5.5059 780.128C3.8692 783.828 2.30316 790.044 0 793.147L0 733.809L1.86833 733.781C4.25066 731.292 6.5471 718.997 7.90475 714.996C12.3935 701.767 18.0831 690.775 26.7103 679.806C27.4838 679.251 27.8214 678.932 28.304 678.108C30.199 676.793 31.8176 675.556 33.394 673.853C35.058 672.325 36.6079 670.783 38.1166 669.101Z"/><path fill="#D7D7D8" d="M400.008 378.397C399.019 374.94 399.008 362.044 399.992 358.601C401.438 363.635 401.42 373.313 400.008 378.397Z"/><path fill="#D7D7D8" d="M252.612 510.851C257.494 510.549 263.672 509.905 268.336 511.401C266.033 511.984 255.214 512.301 252.929 511.863C252.667 511.606 252.673 511.194 252.612 510.851Z"/><path fill="#D7D7D8" d="M106.718 234.892C106.599 234.874 106.029 234.874 105.85 234.673C105.584 234.371 105.61 233.572 105.637 233.199C105.759 231.478 105.178 228.135 105.786 226.733C105.948 226.359 106.446 226.32 106.772 226.215C106.906 229.094 107.083 232.028 106.718 234.892Z"/><path fill="#D7D7D8" d="M118.894 263.587C119.126 263.379 119.251 263.212 119.524 263.111C119.677 263.171 119.734 263.294 119.795 263.445C120.268 264.618 120.328 271.682 119.84 272.712C119.792 272.813 119.696 272.904 119.584 272.928C119.377 272.974 119.167 273.002 118.958 273.04C118.715 269.859 118.756 266.773 118.894 263.587Z"/><path fill="#D7D7D8" d="M398.082 426.023C397.644 424.165 396.774 417.879 397.699 416.145C397.863 415.839 398.325 415.871 398.594 415.828C398.832 419.397 398.864 422.513 398.082 426.023Z"/><path fill="#D7D7D8" d="M23.4236 76.1538C23.305 76.0761 23.188 75.9959 23.0678 75.9206C22.8828 75.8048 22.689 75.7027 22.508 75.5806C22.0919 75.2999 21.9764 74.5705 21.8877 74.1193C21.8455 73.9047 21.8112 73.6887 21.7666 73.4746C21.2867 71.1678 20.4399 69.067 21.3146 66.783C22.4061 69.5745 23.0009 73.1818 23.4236 76.1538Z"/><path fill="#D7D7D8" d="M183.576 679.962C183.432 679.939 182.935 679.939 182.759 679.745C182.47 679.428 182.459 678.652 182.459 678.262C182.46 676.42 181.933 672.618 182.66 671.025C182.74 670.85 182.805 670.725 182.987 670.66C183.282 670.755 183.409 670.907 183.672 671.115C183.724 674.083 183.738 676.995 183.576 679.962Z"/><path fill="#D7D7D8" d="M332.464 307.699C335.66 307.431 338.71 307.437 341.906 307.676C341.826 307.939 341.797 308.233 341.635 308.455C341.184 309.071 335.675 308.48 334.66 308.607C334.111 308.676 333.478 308.813 332.937 308.593C332.598 308.455 332.556 307.982 332.464 307.699Z"/><path fill="#D7D7D8" d="M304.396 216.69C303.525 216.649 303.074 216.687 302.346 216.166C300.688 214.978 298.72 212.755 298.356 210.706L300.22 212.299C301.794 213.623 303.128 215.077 304.396 216.69Z"/><path fill="#D7D7D8" d="M299.843 553.103C299.588 553.055 299.305 553.063 299.084 552.926C298.881 552.799 298.833 552.505 298.794 552.292C298.607 551.285 298.378 546.139 299.01 545.438C299.194 545.233 299.694 545.226 299.857 545.197C300.018 547.865 300.001 550.437 299.843 553.103Z"/><path fill="#D7D7D8" d="M196.407 214.444C196.7 214.52 197.127 214.535 197.294 214.85C198.099 216.375 197.285 219.85 196.858 221.481C196.204 218.973 196.237 217.005 196.407 214.444Z"/><path fill="#D7D7D8" d="M33.394 673.853C33.5441 672.779 33.6576 672.232 34.336 671.328C35.3798 669.938 36.451 669.354 38.1166 669.101C36.6079 670.783 35.058 672.325 33.394 673.853Z"/><path fill="#D7D7D8" d="M156.604 184.902C156.48 184.826 156.358 184.747 156.233 184.674C156.052 184.568 155.827 184.473 155.665 184.326C155.256 183.953 155.047 183.067 155.032 182.527C155.004 181.542 155.073 181.458 155.749 180.786C156.15 182.15 156.378 183.503 156.604 184.902Z"/><path fill="#D7D7D8" d="M213.508 248.887C213.679 249.005 213.848 249.125 214.02 249.24C214.08 249.28 214.147 249.31 214.205 249.351C214.8 249.771 215.049 250.948 215.099 251.628C215.127 252.004 215.099 252.541 214.82 252.835C214.599 253.066 214.152 253.118 213.901 253.189C213.785 251.754 213.654 250.319 213.508 248.887Z"/><path fill="#D7D7D8" d="M26.7103 679.806C26.5871 679.703 26.2892 679.532 26.1915 679.326C26.0891 679.11 26.4493 678.503 26.511 678.401C26.7507 678.004 27.2576 677.636 27.7098 677.559C27.95 677.682 28.1159 677.915 28.304 678.108C27.8214 678.932 27.4838 679.251 26.7103 679.806Z"/><path fill="#FBFCFB" d="M185.045 442.785C185.128 442.705 185.212 442.627 185.294 442.546C194.316 433.654 197.028 422 203.103 411.467C214.621 391.5 241.758 380.23 263.894 380.182C277.207 380.153 308.877 381.435 318.426 391.433C319.573 392.633 320.369 394.251 320.272 395.943C320.09 399.147 317.39 401.916 314.98 403.777C307.656 409.431 296.363 412.227 287.746 415.645C265.295 424.552 216.013 444.802 212.232 471.283C209.244 492.214 233.779 512.945 209.315 531.8C201.843 537.559 192.303 539.553 183.049 538.294C172.318 536.879 162.587 531.259 155.998 522.671C149.592 514.229 148.145 503.779 149.636 493.455C151.389 481.321 156.955 472.115 165.024 463.134C166.85 461.102 169.273 459.148 170.869 457.011C175.98 452.568 180.656 447.942 185.045 442.785Z"/><path fill="#FBFCFB" d="M123.655 594.381C123.912 582.501 125.156 571.196 134.276 562.52C143.253 553.98 157.084 552.501 168.964 552.91C182.591 553.378 196.618 557.454 210.038 554.108C214.058 553.105 218.05 551.691 221.549 549.431C226.831 546.02 231.165 541.28 236.337 537.722C244.957 531.795 258.185 528.902 266.134 537.455C270.693 542.362 272.115 547.788 271.727 554.398C271.239 562.704 266.867 570.59 260.657 576.045C238.194 595.774 196.87 578.066 179.923 597.961L178.328 599.582C171.744 605.477 168.713 615.302 165.4 623.253C163.406 628.039 160.926 633.69 155.671 635.633C152.955 636.637 149.919 636.131 147.355 634.917C143.862 633.262 140.74 630.61 138.054 627.867C129.47 619.102 128.137 611.168 124.162 600.297L124.032 599.95C123.854 599.838 123.679 599.721 123.498 599.612C123.295 599.49 123.166 599.447 123.029 599.241C122.422 598.328 122.235 595.683 122.437 594.686C122.486 594.445 122.581 594.119 122.834 594.015C123.095 593.906 123.544 594.309 123.655 594.381Z"/><path fill="#D7D7D8" d="M124.032 599.95C123.854 599.838 123.679 599.721 123.498 599.612C123.295 599.49 123.166 599.447 123.029 599.241C122.422 598.328 122.235 595.683 122.437 594.686C122.486 594.445 122.581 594.119 122.834 594.015C123.095 593.906 123.544 594.309 123.655 594.381C123.732 596.241 123.858 598.098 124.032 599.95Z"/><path fill="#FBFCFB" d="M310.96 365.709C310.234 357.041 310.95 350.283 316.838 343.362C322.213 337.097 329.884 333.259 338.12 332.715C347.296 332.202 356.287 335.443 363.026 341.692C369.798 347.882 374.476 356.515 374.78 365.781C375.074 374.743 370.463 383.443 371.711 392.342C372.63 398.897 377.606 402.966 380.351 408.614C385.878 419.988 381.256 436.039 372.838 444.767C364.094 453.833 351.51 458.073 339.097 458.123C327.965 458.167 315.902 455.464 307.776 447.357C303.099 442.69 300.751 437.425 300.813 430.847C300.819 430.235 300.835 429.623 300.86 429.012C309.539 412.274 336.654 415.683 339.968 399.634C339.298 396.872 339.276 395.099 339.967 392.35C339.233 388.965 337.889 386.397 335.448 383.922L333.368 381.895C325.529 374.893 317.365 375.683 310.96 365.709Z"/><path fill="#D7D7D8" d="M339.968 399.634C339.298 396.872 339.276 395.099 339.967 392.35C340.774 395.158 340.754 396.771 339.968 399.634Z"/><path fill="#FBFCFB" d="M101.086 405.274C105.112 405.098 108.764 405.471 112.526 407.007C121.495 410.67 128.584 419.015 132.218 427.842C137.079 439.65 136.31 454.37 131.445 466.061C127.768 474.896 121.58 481.407 112.709 485.058C112.288 485.173 111.866 485.283 111.442 485.387C105.061 486.961 98.6048 486.423 92.9388 482.942C84.9473 478.032 80.5108 469.189 78.496 460.303C75.4006 446.652 76.0753 429.401 83.7901 417.441C87.8783 411.103 93.6883 406.816 101.086 405.274Z"/><path fill="#FBFCFB" d="M233.993 204.659C236.901 204.55 239.835 204.404 242.745 204.471C256.061 204.778 270.219 210.183 279.427 220.009C285.735 226.74 287.562 233.484 287.296 242.453C287.011 242.947 286.713 243.433 286.402 243.912C282.574 249.793 277.28 251.549 270.68 252.943C267.876 253.026 265.048 253.131 262.244 253.021C247.823 252.46 233.012 245.583 223.263 234.923C218.039 229.211 215.593 223.711 215.891 215.976C216.056 215.706 216.228 215.441 216.388 215.168C216.815 214.442 217.212 213.71 217.681 213.009C221.25 207.672 228.068 205.795 233.993 204.659Z"/><path fill="#D7D7D8" d="M26.8656 6.89683C27.9503 7.15968 28.7454 7.52445 29.74 8.03499C39.9827 13.2927 58.2271 1.49167 80.9452 13.1118C85.6958 15.5418 89.9313 19.0578 91.7408 24.2305C96.9087 39.0036 75.5082 52.1898 102.492 65.8182C125.501 77.4392 153.934 55.3186 174.449 74.9868C177.785 78.1847 180.981 82.2709 182.418 86.719C183.78 90.9343 183.2 95.3592 181.194 99.2726C175.803 109.79 169.066 114.342 173.065 127.562C175.657 136.13 182.254 142.717 190.035 146.833C200.94 152.602 211.821 152.624 223.81 152.049L224.035 152.841C211.488 155.2 195.996 152.435 185.406 145.236C178.164 140.313 172.671 133.314 171.093 124.563C168.973 112.8 175.626 108.723 180.223 99.2658C185.342 88.734 178.192 78.6956 169.793 72.6751C148.29 57.2624 121.989 81.6743 96.284 63.1147C91.8569 59.9182 88.3311 56.0283 87.4457 50.4741C84.9732 34.9634 102.065 29.8739 81.6176 14.6789C63.5802 1.27476 33.5357 16.7291 26.8656 6.89683Z"/><path fill="#C7AB85" d="M1223.32 0L1233.86 0C1228.42 3.58518 1222.66 5.90091 1216.39 7.56523C1205.47 10.4662 1184.35 10.8331 1177.37 20.2602C1172.57 26.7234 1173.26 35.2917 1169.03 41.8776C1169.61 39.4695 1170.14 37.0521 1170.62 34.6263L1170.05 33.91C1168.79 34.7 1168 35.638 1167.06 36.7682C1170.07 30.3845 1171.27 22.1555 1175.43 16.5029C1182.88 6.40257 1209.81 12.292 1223.32 0Z"/><path fill="#C7AB85" d="M1125.9 134.39C1130.22 120.964 1146.21 100.411 1158.66 93.8617C1157.88 95.3081 1157.46 95.8879 1156.04 96.7434C1155.54 97.0452 1155.15 97.466 1154.74 97.8701C1153.95 98.6424 1152.87 98.9732 1152.06 99.7634C1147.61 104.106 1141.9 109.157 1138.58 114.353C1138.09 115.121 1137.55 115.867 1137.04 116.618C1136.72 117.088 1136.34 117.509 1135.99 117.964C1134.06 120.532 1132.66 123.364 1130.97 126.074C1129.21 128.894 1128.38 132.071 1125.9 134.39Z"/><path fill="#C7AB85" d="M1016.09 481.728C1032.31 475.756 1052.17 477.4 1068.95 479.083C1062.57 480.713 1044.19 478.414 1035.65 478.922C1029.65 479.278 1021.8 482.63 1016.09 481.728Z"/><path fill="#C7AB85" d="M915.963 285.648C917.41 287.495 918.494 289.438 919.619 291.488C920.219 292.583 920.76 293.597 921.45 294.639C922.639 296.434 923.781 298.115 925.064 299.845C925.664 300.653 926.281 301.37 926.837 302.216C927.938 303.891 929.618 305.147 930.778 306.885C931.976 308.682 934.021 310.574 935.863 311.682C936.808 312.25 937.499 313.042 938.265 313.811C938.693 314.243 939.107 314.487 939.618 314.804C940.602 315.415 941.173 316.262 941.777 317.22C941.975 317.535 942.188 317.839 942.396 318.147C941.997 317.928 941.594 317.718 941.204 317.484C931.592 311.702 918.651 296.599 915.963 285.648Z"/><path fill="#C7AB85" d="M945.731 357.57C951.39 360.979 955.721 367.157 957.345 373.54C958.668 378.743 958.423 385.734 956.173 390.635C956.069 390.862 955.947 391.081 955.834 391.304C955.809 391.26 955.786 391.215 955.76 391.172C955.679 391.038 955.593 390.908 955.515 390.772C955.247 390.307 955.457 389.606 955.603 389.148C956.03 387.814 956.188 386.438 956.461 385.059C957.639 379.119 956.634 372.628 953.518 367.515C953.215 367.018 952.981 366.499 952.638 366.023C952.295 365.547 952.171 365.439 951.906 364.975C950.314 362.196 947.583 360.254 945.731 357.57Z"/><path fill="#C7AB85" d="M914.084 247.975C914.432 250.264 913.993 251.828 913.747 254.097C912.971 261.255 912.096 268.215 913.693 275.379C914.266 277.949 914.755 280.365 915.589 282.886C915.91 283.855 915.953 284.643 915.963 285.648C915.777 285.43 915.581 285.22 915.411 284.99C911.013 279.009 911.262 261.125 912.76 254.165L914.084 247.975Z"/><path fill="#C7AB85" d="M1139.85 676.898C1140.26 677.141 1140.68 677.373 1141.09 677.62C1141.57 677.906 1141.64 678.199 1141.91 678.675C1142.6 679.909 1143.3 681.156 1144.04 682.361C1144.65 683.348 1145.27 684.313 1145.93 685.268C1146.22 685.693 1146.49 686.127 1146.78 686.556C1148.66 689.364 1151.3 691.913 1152.99 694.703C1154.27 696.82 1156.39 698.309 1157.77 700.481C1151 696.6 1142.47 684.121 1139.85 676.898Z"/><path fill="#C7AB85" d="M800.815 458.96C801.193 459.166 801.608 459.354 801.972 459.582C802.932 460.185 803.782 461.96 804.425 462.909C804.734 463.364 805.052 463.748 805.394 464.173C809.084 468.758 814.029 474.141 819.019 477.314C820.121 478.015 820.561 478.911 821.142 480.035C813.426 475.848 804.45 466.929 800.815 458.96Z"/><path fill="#C7AB85" d="M809.392 403.08C813.259 396.605 821.727 387.843 828.005 383.768C827.731 384.187 827.469 384.618 827.188 385.031C824.26 389.33 819.334 392.185 816.485 396.542C814.915 398.945 811.743 401.472 809.392 403.08Z"/><path fill="#C7AB85" d="M925.081 224.943C928.834 217.757 937.261 209.114 944.297 205.092C943.942 205.592 943.612 206.109 943.261 206.609C940.809 210.089 932.828 215.21 930.104 219.647C929.042 221.377 927.685 223.236 925.982 224.333C925.677 224.53 925.38 224.739 925.081 224.943Z"/><path fill="#C7AB85" d="M962.592 577.69C963.994 578.437 964.695 578.914 965.47 580.308C965.775 580.858 966.193 581.296 966.62 581.75C967.035 582.191 967.299 582.672 967.634 583.165C969.16 585.406 973.665 589.723 975.978 591.106C976.914 591.666 977.458 592.619 978.022 593.513C978.219 593.826 978.429 594.131 978.635 594.439C972.375 590.939 965.862 584.074 962.592 577.69Z"/><path fill="#C7AB85" d="M1036.66 380.898C1042.92 379.86 1048.33 379.726 1054.59 380.959C1050.44 382.059 1040.79 382.087 1036.66 380.898Z"/><path fill="#C7AB85" d="M836.527 261.14C837.72 266.591 837.842 270.312 836.463 275.727C835.874 271.509 835.705 265.276 836.527 261.14Z"/><path fill="#C7AB85" d="M943.208 405.598C943.739 404.614 944.049 403.929 945.007 403.348C947.319 401.946 948.621 399.503 950.935 398.07C951.464 397.742 951.993 397.418 952.517 397.083C950.279 400.879 947.122 403.61 943.208 405.598Z"/><path fill="#D7D7D8" d="M23.2502 0L24.1953 0C24.8398 2.17367 26.6009 5.46557 26.8656 6.89683C23.6496 4.93929 24.0016 4.29277 23.3363 0.403681L23.2502 0Z"/><path fill="#C7AB85" d="M970.6 509.328C972.775 506.094 975.362 503.485 978.59 501.294C976.469 504.506 973.793 507.173 970.6 509.328Z"/></svg>