<?xml version="1.0" encoding="utf-8" ?><svg xmlns="http://www.w3.org/2000/svg" xmlns:xlink="http://www.w3.org/1999/xlink" width="1024" height="1024" viewBox="0 0 1024 1024"><defs><linearGradient id="gradient_0" gradientUnits="userSpaceOnUse" x1="582.46106" y1="480.52722" x2="511.59644" y2="480.17139"><stop offset="0" stop-color="#C0AC8A"/><stop offset="1" stop-color="#DBCFB9"/></linearGradient></defs><path fill="url(#gradient_0)" d="M502.612 0L513.462 0L519.273 0C521.864 2.81152 525.83 4.10035 528.519 6.38791C569.344 41.1171 582.234 115.017 582.463 163.729L582.401 321.014L582.472 351.816C582.47 355.415 582.26 366.833 582.908 369.479C593.96 376.604 605.107 384.74 615.926 392.27C618.525 394.079 627.741 400.515 629.457 402.19L629.514 466.99L629.587 467.334L629.511 543.985L629.537 585.785C611.358 583.072 591.635 584.892 582.526 603.322C582.278 635.88 582.215 668.44 582.337 701C582.379 724.612 583.44 756.522 581.453 779.588C579.834 796.541 576.834 813.333 572.485 829.799C569.043 843.295 566.63 852.378 561.076 865.18C572.36 871.855 583.299 879.493 594.456 886.409C597.936 888.566 601.923 890.993 605.14 893.475C604.628 902.429 605.92 917.35 606.692 926.52L606.889 927.111C608.206 941.035 610.133 950.198 613.248 963.838L613.395 964.257C614.447 970.178 616.567 980.426 618.283 986.112C591.414 978.365 563.712 969.189 536.693 961.207L535.286 960.699C530.035 974.485 524.529 988.172 518.768 1001.75C517.321 1005.23 514.815 1012.44 513.183 1015.42L512.66 1015.46L511.657 1013.07C508.268 1003.68 503.448 994.184 499.749 984.809C496.458 976.468 493.544 968.246 490.615 959.778C490.002 957.699 489.427 955.609 488.889 953.509L488.67 952.709C488.141 950.706 487.072 947.228 486.701 945.335C486.414 943.939 486.286 943.446 485.801 942.091C482.888 941.516 483.359 940.144 481.477 943.713C480.82 942.127 480.146 939.992 479.566 938.331C474.582 923.025 473.059 914.346 470.779 898.438C469.178 887.118 469.107 871.746 470.184 860.449C467.446 862.112 465.357 863.701 462.425 865.239L462.002 864.595C461.889 860.33 459.527 858.89 458.139 854.956C450.348 832.869 446.34 808.156 444.312 785.029C442.305 766.05 442.832 741.952 442.828 722.696C442.961 695.719 442.894 668.741 442.625 641.765C442.618 631.396 443.389 612.925 442.634 603.573C443.022 599.076 442.722 587.853 442.714 583.02L442.632 542.263L442.531 435.832L442.577 394.888L442.443 383.622C442.335 378.087 442.305 372.552 442.353 367.016C443.537 351.98 442.929 327.099 442.957 311.522L442.979 207.179L442.9 176.76C442.877 171.595 442.611 161.526 443.427 156.831C446.025 110.825 451.935 65.5487 478.414 25.9871C481.556 21.3253 485.18 17.0065 489.224 13.1015C492.946 9.5193 500.44 4.23646 502.612 0ZM443.427 156.831C442.611 161.526 442.877 171.595 442.9 176.76L442.979 207.179L442.957 311.522C442.929 327.099 443.537 351.98 442.353 367.016C442.305 372.552 442.335 378.087 442.443 383.622L442.577 394.888L442.531 435.832L442.632 542.263L442.714 583.02C442.722 587.853 443.022 599.076 442.634 603.573C443.389 612.925 442.618 631.396 442.625 641.765C442.894 668.741 442.961 695.719 442.828 722.696C442.832 741.952 442.305 766.05 444.312 785.029C446.34 808.156 450.348 832.869 458.139 854.956C459.527 858.89 461.889 860.33 462.002 864.595L462.425 865.239C465.357 863.701 467.446 862.112 470.184 860.449C469.107 871.746 469.178 887.118 470.779 898.438C473.059 914.346 474.582 923.025 479.566 938.331C480.146 939.992 480.82 942.127 481.477 943.713C483.359 940.144 482.888 941.516 485.801 942.091C483.112 926.043 479.631 918.955 478.447 900.47C475.887 860.475 483.148 825.589 489.246 786.733C496.168 742.628 504.604 699.737 512.69 655.946C513.691 647.505 513.481 639.027 513.234 630.546C490.321 629.624 489.919 615.833 510.923 614.381C512.01 613.943 511.666 614.137 512.555 613.409C512.983 610.446 512.543 605.713 512.44 602.469C493.079 601.783 487.94 589.749 510.392 586.169C511.326 585.941 512.141 585.963 512.537 585.369C513.999 583.175 513.169 577.665 512.944 574.977C490.222 574.038 489.789 559.988 511.349 558.414L512.813 557.908C514.354 555.85 513.449 549.319 513.237 546.453C518.073 545.999 528.916 545.113 529.583 539.012C530.343 532.055 517.218 530.697 512.97 530.472C513.027 527.51 513.412 522.643 512.286 519.926C511.847 518.867 511.606 519.149 510.087 518.559C489.149 516.791 492.074 503.175 512.35 502.43C512.649 500.132 513.141 494.254 512.099 492.15C511.453 490.846 510.29 490.974 508.702 490.625C489.519 488.351 492.831 475.051 512.908 474.458C512.827 470.57 512.822 466.962 512.298 463.093C492.204 462.207 490.13 448.768 510.412 446.905L511.945 446.264C513.081 444.143 512.536 438.503 512.414 435.945C489.376 434.864 491.291 420.549 512.674 419.422L512.393 408.055C510.349 407.851 507.912 407.381 505.993 407.164C501.255 406.63 492.653 402.265 497.315 396.688C500.134 393.315 508.731 392.212 512.943 391.925C513.087 388.268 513.353 384.55 512.131 381.086C489.597 378.921 491.849 365.195 510.711 364.467L512.703 363.903C514.224 361.609 513.127 355.489 512.806 352.49C490.358 351.102 489.918 337.484 511.121 336.446C512.546 335.914 512.014 336.389 512.893 335.197C513.381 331.621 513.191 327.986 512.332 324.48C489.683 323.313 492.009 308.799 512.342 307.918C512.45 305.118 512.795 300.633 512.197 297.921C512.002 297.035 511.655 297.158 510.555 296.567C490.358 294.786 491.176 281.456 512.711 280.45C512.692 277.379 513.427 272.101 511.883 269.576C511.51 268.967 510.088 268.81 509.207 268.58C494.646 267.352 490.128 256.369 505.756 253.068C507.061 252.78 508.379 252.557 509.707 252.401C512.644 251.952 512.624 252.24 513.544 249.448C514.223 247.35 513.963 245.061 512.83 243.168C512.403 242.443 511.259 242.4 510.208 242.124C491.861 239.94 490.175 229.46 509.261 226.325L509.711 226.247C511.775 225.909 511.614 226.258 512.97 225.105C514.097 221.52 513.406 218.296 513.125 214.418C537.236 212.826 533.884 198.712 512.956 197.562C513.026 194.98 513.426 190.536 512.335 188.329C511.849 187.345 511.583 187.586 510.198 187.075C491.482 185.649 491.135 172.303 509.954 170.967C510.796 170.778 512.245 170.638 512.683 170.085C514.279 168.073 513.198 161.306 513 158.506C492.033 157.835 489.4 144.164 509.22 141.999L510.206 141.879C511.525 141.64 511.886 141.697 513.014 141.022C513.919 139.499 513.452 133.958 513.448 131.783L513.439 104.343L513.462 0L502.612 0C500.44 4.23646 492.946 9.5193 489.224 13.1015C485.18 17.0065 481.556 21.3253 478.414 25.9871C451.935 65.5487 446.025 110.825 443.427 156.831Z"/><path fill="#F6ECDF" d="M502.612 0L513.462 0L513.439 104.343L513.448 131.783C513.452 133.958 513.919 139.499 513.014 141.022C511.886 141.697 511.525 141.64 510.206 141.879L509.22 141.999C489.4 144.164 492.033 157.835 513 158.506C513.198 161.306 514.279 168.073 512.683 170.085C512.245 170.638 510.796 170.778 509.954 170.967C491.135 172.303 491.482 185.649 510.198 187.075C511.583 187.586 511.849 187.345 512.335 188.329C513.426 190.536 513.026 194.98 512.956 197.562C533.884 198.712 537.236 212.826 513.125 214.418C513.406 218.296 514.097 221.52 512.97 225.105C511.614 226.258 511.775 225.909 509.711 226.247L509.261 226.325C490.175 229.46 491.861 239.94 510.208 242.124C511.259 242.4 512.403 242.443 512.83 243.168C513.963 245.061 514.223 247.35 513.544 249.448C512.624 252.24 512.644 251.952 509.707 252.401C508.379 252.557 507.061 252.78 505.756 253.068C490.128 256.369 494.646 267.352 509.207 268.58C510.088 268.81 511.51 268.967 511.883 269.576C513.427 272.101 512.692 277.379 512.711 280.45C491.176 281.456 490.358 294.786 510.555 296.567C511.655 297.158 512.002 297.035 512.197 297.921C512.795 300.633 512.45 305.118 512.342 307.918C492.009 308.799 489.683 323.313 512.332 324.48C513.191 327.986 513.381 331.621 512.893 335.197C512.014 336.389 512.546 335.914 511.121 336.446C489.918 337.484 490.358 351.102 512.806 352.49C513.127 355.489 514.224 361.609 512.703 363.903L510.711 364.467C491.849 365.195 489.597 378.921 512.131 381.086C513.353 384.55 513.087 388.268 512.943 391.925C508.731 392.212 500.134 393.315 497.315 396.688C492.653 402.265 501.255 406.63 505.993 407.164C507.912 407.381 510.349 407.851 512.393 408.055L512.674 419.422C491.291 420.549 489.376 434.864 512.414 435.945C512.536 438.503 513.081 444.143 511.945 446.264L510.412 446.905C490.13 448.768 492.204 462.207 512.298 463.093C512.822 466.962 512.827 470.57 512.908 474.458C492.831 475.051 489.519 488.351 508.702 490.625C510.29 490.974 511.453 490.846 512.099 492.15C513.141 494.254 512.649 500.132 512.35 502.43C492.074 503.175 489.149 516.791 510.087 518.559C511.606 519.149 511.847 518.867 512.286 519.926C513.412 522.643 513.027 527.51 512.97 530.472C517.218 530.697 530.343 532.055 529.583 539.012C528.916 545.113 518.073 545.999 513.237 546.453C513.449 549.319 514.354 555.85 512.813 557.908L511.349 558.414C489.789 559.988 490.222 574.038 512.944 574.977C513.169 577.665 513.999 583.175 512.537 585.369C512.141 585.963 511.326 585.941 510.392 586.169C487.94 589.749 493.079 601.783 512.44 602.469C512.543 605.713 512.983 610.446 512.555 613.409C511.666 614.137 512.01 613.943 510.923 614.381C489.919 615.833 490.321 629.624 513.234 630.546C513.481 639.027 513.691 647.505 512.69 655.946C504.604 699.737 496.168 742.628 489.246 786.733C483.148 825.589 475.887 860.475 478.447 900.47C479.631 918.955 483.112 926.043 485.801 942.091C482.888 941.516 483.359 940.144 481.477 943.713C480.82 942.127 480.146 939.992 479.566 938.331C474.582 923.025 473.059 914.346 470.779 898.438C469.178 887.118 469.107 871.746 470.184 860.449C467.446 862.112 465.357 863.701 462.425 865.239L462.002 864.595C461.889 860.33 459.527 858.89 458.139 854.956C450.348 832.869 446.34 808.156 444.312 785.029C442.305 766.05 442.832 741.952 442.828 722.696C442.961 695.719 442.894 668.741 442.625 641.765C442.618 631.396 443.389 612.925 442.634 603.573C443.022 599.076 442.722 587.853 442.714 583.02L442.632 542.263L442.531 435.832L442.577 394.888L442.443 383.622C442.335 378.087 442.305 372.552 442.353 367.016C443.537 351.98 442.929 327.099 442.957 311.522L442.979 207.179L442.9 176.76C442.877 171.595 442.611 161.526 443.427 156.831C446.025 110.825 451.935 65.5487 478.414 25.9871C481.556 21.3253 485.18 17.0065 489.224 13.1015C492.946 9.5193 500.44 4.23646 502.612 0ZM485.437 77.0296C488.925 76.3464 487.254 72.1142 490.058 68.77C490.605 66.9152 490.554 64.6223 490.65 62.6563C490.939 61.7013 491.03 61.3898 491.179 60.3975C488.68 60.3961 488.644 60.9577 486.847 62.899C486.673 63.9832 486.613 64.7666 486.528 65.8535C486.444 66.8266 486.404 67.0877 486.259 67.9998C485.786 70.9882 485.511 74.0048 485.437 77.0296Z"/><path fill="#E6D3B8" d="M442.353 367.016C443.537 351.98 442.929 327.099 442.957 311.522L442.979 207.179L442.9 176.76C442.877 171.595 442.611 161.526 443.427 156.831C443.452 160.344 444.262 161.249 445.85 164.245C452.263 176.349 457.179 188.935 461.261 201.996C469.417 227.569 474.26 254.083 475.672 280.889C477.037 303.368 476.053 331.156 476.108 354.243L476.07 506.351L476.017 621.647C475.987 645.829 476.96 670.358 474.242 694.408C471.878 715.318 466.085 735.451 459.204 755.256C456.521 762.977 445.032 779.98 444.312 785.029C442.305 766.05 442.832 741.952 442.828 722.696C442.961 695.719 442.894 668.741 442.625 641.765C442.618 631.396 443.389 612.925 442.634 603.573C443.022 599.076 442.722 587.853 442.714 583.02L442.632 542.263L442.531 435.832L442.577 394.888L442.443 383.622C442.335 378.087 442.305 372.552 442.353 367.016Z"/><path fill="#202D40" d="M512.956 197.562C533.884 198.712 537.236 212.826 513.125 214.418C491.29 213.582 490.314 199.871 508.751 198.02L512.956 197.562Z"/><path fill="#202D40" d="M512.97 530.472C517.218 530.697 530.343 532.055 529.583 539.012C528.916 545.113 518.073 545.999 513.237 546.453C489.945 545.806 489.697 531.012 512.97 530.472Z"/><path fill="#202D40" d="M491.683 55.2782L492.578 54.8177C498.779 51.5617 503.742 49.6495 510.382 47.4553C509.905 55.3547 509.893 63.4983 509.697 71.4497C502.195 74.1893 496.189 77.2247 489.113 80.8986C489.468 77.1525 489.897 72.5115 490.058 68.77C490.605 66.9152 490.554 64.6223 490.65 62.6563C490.939 61.7013 491.03 61.3898 491.179 60.3975C491.057 58.8501 491.459 56.8517 491.683 55.2782Z"/><path fill="#202D40" d="M472.591 68.6433C474.27 67.4406 486.33 57.9816 487.373 58.6276C487.715 59.304 486.999 62.0475 486.847 62.899C486.673 63.9832 486.613 64.7666 486.528 65.8535C486.444 66.8266 486.404 67.0877 486.259 67.9998C485.786 70.9882 485.511 74.0048 485.437 77.0296C485.189 79.3083 484.925 81.7218 484.585 83.9784C476.232 89.352 472.958 91.3947 465.277 98.269L465.896 94.7464C466.55 90.982 467.295 87.2341 468.13 83.5059C469.515 77.4153 470.455 74.4205 472.591 68.6433Z"/><path fill="#E6D3B8" fill-opacity="0.79607844" d="M486.528 65.8535C488.517 65.1992 486.713 63.6197 488.745 64.3989C489.604 63.6757 489.682 63.3731 490.65 62.6563C490.554 64.6223 490.605 66.9152 490.058 68.77C487.254 72.1142 488.925 76.3464 485.437 77.0296C485.511 74.0048 485.786 70.9882 486.259 67.9998C486.404 67.0877 486.444 66.8266 486.528 65.8535Z"/><path fill="#E6D3B8" fill-opacity="0.61960787" d="M486.847 62.899C488.644 60.9577 488.68 60.3961 491.179 60.3975C491.03 61.3898 490.939 61.7013 490.65 62.6563C489.682 63.3731 489.604 63.6757 488.745 64.3989C486.713 63.6197 488.517 65.1992 486.528 65.8535C486.613 64.7666 486.673 63.9832 486.847 62.899Z"/><path fill="#822337" d="M512.69 655.946C513.845 658.101 514.802 665.176 515.255 668.024L534.822 775.556C541.387 812.951 549.382 858.166 547.196 895.654C546.323 910.789 544.109 925.816 540.581 940.56C539.829 943.756 535.473 958.848 535.286 960.699C530.035 974.485 524.529 988.172 518.768 1001.75C517.321 1005.23 514.815 1012.44 513.183 1015.42L512.66 1015.46L511.657 1013.07C508.268 1003.68 503.448 994.184 499.749 984.809C496.458 976.468 493.544 968.246 490.615 959.778C490.002 957.699 489.427 955.609 488.889 953.509L488.67 952.709C488.141 950.706 487.072 947.228 486.701 945.335C486.414 943.939 486.286 943.446 485.801 942.091C483.112 926.043 479.631 918.955 478.447 900.47C475.887 860.475 483.148 825.589 489.246 786.733C496.168 742.628 504.604 699.737 512.69 655.946Z"/><path fill="#45171A" d="M511.657 1013.07C512.03 1012.65 512.638 1011.99 512.676 1011.45C513.946 993.444 513.495 970.801 513.646 953.131L513.909 761.308L513.536 702.848C513.516 697.369 512.477 670.566 515.255 668.024L534.822 775.556C541.387 812.951 549.382 858.166 547.196 895.654C546.323 910.789 544.109 925.816 540.581 940.56C539.829 943.756 535.473 958.848 535.286 960.699C530.035 974.485 524.529 988.172 518.768 1001.75C517.321 1005.23 514.815 1012.44 513.183 1015.42L512.66 1015.46L511.657 1013.07Z"/><path fill="#6F512A" d="M554.233 860.597L561.076 865.18C572.36 871.855 583.299 879.493 594.456 886.409C597.936 888.566 601.923 890.993 605.14 893.475C604.628 902.429 605.92 917.35 606.692 926.52L606.889 927.111C608.206 941.035 610.133 950.198 613.248 963.838L613.395 964.257C614.447 970.178 616.567 980.426 618.283 986.112C591.414 978.365 563.712 969.189 536.693 961.207C539.021 955.829 542.152 944.313 543.82 938.397C548.713 923.766 551.03 909.726 553.071 894.533C554.409 882.142 554.635 873.01 554.233 860.597Z"/><path fill="#906530" d="M554.233 860.597L561.076 865.18C572.36 871.855 583.299 879.493 594.456 886.409C597.936 888.566 601.923 890.993 605.14 893.475C604.628 902.429 605.92 917.35 606.692 926.52C604.53 925.607 597.784 921.364 595.593 920.033C587.568 915.154 579.578 910.219 571.623 905.226C566.584 902.073 558.421 896.695 553.071 894.533C554.409 882.142 554.635 873.01 554.233 860.597Z"/><path fill="#4B2F17" d="M543.82 938.397C560.887 944.238 577.824 951.679 595.003 957.447C599.849 959.074 608.476 962.784 613.248 963.838L613.395 964.257C614.447 970.178 616.567 980.426 618.283 986.112C591.414 978.365 563.712 969.189 536.693 961.207C539.021 955.829 542.152 944.313 543.82 938.397Z"/><path fill="#6F512A" d="M582.498 441.585C589.072 442.999 620.699 462.473 629.514 466.99L629.587 467.334L629.511 543.985C615.323 539.603 597.139 539.064 582.493 540.075L582.498 441.585Z"/><path fill="#906530" d="M582.908 369.479C593.96 376.604 605.107 384.74 615.926 392.27C618.525 394.079 627.741 400.515 629.457 402.19L629.514 466.99C620.699 462.473 589.072 442.999 582.498 441.585C582.372 417.549 582.508 393.512 582.908 369.479Z"/><path fill="#4B2F17" d="M582.493 540.075C597.139 539.064 615.323 539.603 629.511 543.985L629.537 585.785C611.358 583.072 591.635 584.892 582.526 603.322L582.493 540.075Z"/><path fill="#202D40" d="M511.349 558.414C532.808 558.657 538.113 572.463 512.944 574.977C490.222 574.038 489.789 559.988 511.349 558.414Z"/><path fill="#202D40" d="M510.206 141.879C513.545 141.859 515.795 141.765 519.244 142.544C526.643 144.214 534.716 150.693 524.748 156.005C521.122 157.937 517.174 158.364 513 158.506C492.033 157.835 489.4 144.164 509.22 141.999L510.206 141.879Z"/><path fill="#202D40" d="M510.711 364.467C534.415 364.909 537.289 379.011 512.131 381.086C489.597 378.921 491.849 365.195 510.711 364.467Z"/><path fill="#202D40" d="M509.707 252.401C515.14 252.454 525.368 252.648 528.2 257.304C534.992 268.469 513.305 268.688 509.207 268.58C494.646 267.352 490.128 256.369 505.756 253.068C507.061 252.78 508.379 252.557 509.707 252.401Z"/><path fill="#202D40" d="M512.908 474.458C519.485 474.816 538.048 478.709 525.793 488.113C522.128 490.925 513.315 490.657 508.702 490.625C489.519 488.351 492.831 475.051 512.908 474.458Z"/><path fill="#202D40" d="M512.342 307.918C534.786 309.204 536.568 323.499 512.332 324.48C489.683 323.313 492.009 308.799 512.342 307.918Z"/><path fill="#202D40" d="M509.954 170.967C513.55 170.974 515.474 171.046 519.246 171.529C525.854 172.375 534.929 179.005 526.195 184.361C521.903 186.994 515.333 187.096 510.198 187.075C491.482 185.649 491.135 172.303 509.954 170.967Z"/><path fill="#202D40" d="M512.674 419.422C517.165 419.714 535.652 422.557 527.571 432.093C524.811 435.35 516.709 435.544 512.414 435.945C489.376 434.864 491.291 420.549 512.674 419.422Z"/><path fill="#202D40" d="M509.711 226.247C514.78 226.657 525.784 226.652 528.413 231.072C535.131 242.365 514.336 242.233 510.208 242.124C491.861 239.94 490.175 229.46 509.261 226.325L509.711 226.247Z"/><path fill="#202D40" d="M512.35 502.43C516.927 502.668 526.693 503.792 528.519 507.995C533.248 518.88 513.84 518.567 510.087 518.559C489.149 516.791 492.074 503.175 512.35 502.43Z"/><path fill="#202D40" d="M510.412 446.905C513.916 446.944 515.366 447.025 519.248 447.528C525.24 448.305 534.607 453.937 527.076 459.765C523.617 462.441 516.922 462.937 512.298 463.093C492.204 462.207 490.13 448.768 510.412 446.905Z"/><path fill="#202D40" d="M510.392 586.169C515.797 587.052 524.874 585.995 528.261 591.48C534.25 601.182 516.346 602.021 512.44 602.469C493.079 601.783 487.94 589.749 510.392 586.169Z"/><path fill="#202D40" d="M511.121 336.446L511.58 336.462C514.681 336.545 516.174 336.629 519.248 337.024C525.785 337.865 534.558 343.796 526.101 349.279C521.545 352.233 518.065 352.064 512.806 352.49C490.358 351.102 489.918 337.484 511.121 336.446Z"/><path fill="#202D40" d="M510.923 614.381C533.528 614.128 537.159 628.72 513.234 630.546C490.321 629.624 489.919 615.833 510.923 614.381Z"/><path fill="#202D40" d="M512.711 280.45C517.228 280.816 530.973 282.603 529.518 289.272C527.94 296.503 515.533 296.391 510.555 296.567C490.358 294.786 491.176 281.456 512.711 280.45Z"/><path fill="#202D40" d="M512.943 391.925L513.398 391.957C515.618 392.096 517.093 392.122 519.248 392.522C523.247 393.265 531.155 396.234 529.511 401.752C527.852 407.321 516.826 407.621 512.393 408.055C510.349 407.851 507.912 407.381 505.993 407.164C501.255 406.63 492.653 402.265 497.315 396.688C500.134 393.315 508.731 392.212 512.943 391.925Z"/><path fill="#202D40" d="M514.543 47.2688C519.735 49.0168 527.997 51.2365 532.613 54.1147L533.276 54.5119C533.946 63.4502 535.157 72.2726 536.117 81.1609C527.825 75.9798 523.528 73.9979 514.447 70.7858L514.543 47.2688Z"/><path fill="#202D40" d="M537.477 57.2094C539.712 58.2487 550.234 66.6486 552.398 68.5353C554.547 74.4971 555.714 80.0882 556.894 86.2567L557.421 89.0045C558.093 92.5247 558.394 93.6741 558.636 97.2421C555.224 94.3932 552.539 91.9024 548.814 89.2921C546.716 87.8223 542.395 85.4266 540.832 83.9391C539.42 75.4483 538.212 65.795 537.477 57.2094Z"/><path fill="#EBA426" d="M235.263 407.572C233.915 395.37 232.885 385.684 236.599 373.805C247.325 339.504 294.232 329.654 317.672 357.031C330.993 372.589 330.621 383.699 329.411 402.963C328.324 419.826 326.797 431.968 324.925 448.41C337.274 440.944 355.152 427.644 367.492 419.026C392.543 401.829 417.497 384.492 442.353 367.016C442.305 372.552 442.335 378.087 442.443 383.622L442.577 394.888L442.531 435.832L442.632 542.263L442.714 583.02C442.722 587.853 443.022 599.076 442.634 603.573C433.863 583.913 410.985 582.735 392.577 586.434C391.937 592.919 389.232 601.069 387.608 607.508L387.1 609.508L386.607 611.508C385.846 614.577 385.537 616.067 385.009 619.129C380.93 610.078 376.697 601.094 372.834 591.951C365.149 593.835 351.535 599.052 343.67 601.861C329.285 606.978 314.873 612.018 300.434 616.982C300.146 624.326 294.712 643.368 292.761 651.181C289.544 642.394 285.11 632.25 281.288 623.543C271.352 626.111 253.594 633.097 243.204 636.791C235.401 639.545 227.619 642.359 219.859 645.232C216.29 646.546 210.082 648.639 206.871 650.298C206.382 654.477 204.851 660.3 203.819 664.495L203.315 666.494C201.877 672.236 201.076 677.933 199.67 683.676C195.642 675.389 192.048 664.925 187.804 657.196C152.519 670.065 117.141 682.681 81.6739 695.042C65.5455 700.747 47.3955 706.651 31.6158 712.99C31.3805 707.275 29.9229 700.899 30.7655 695.133C31.4259 688.359 33.9054 680.313 36.2163 673.936C37.3521 669.732 39.5925 664.075 41.0684 659.814C43.1974 653.517 45.2872 647.207 47.3376 640.884C48.6544 636.949 50.6585 631.676 51.4215 627.718C54.9837 624.704 65.4328 618.389 69.8303 615.561C81.3592 608.014 92.9463 600.557 104.591 593.189C117.654 584.915 131.363 574.735 144.449 567.133C140.776 563.718 136.503 560.703 133.672 556.59C132.694 555.168 130.49 550.823 130.449 549.375C130.107 537.058 128.527 495.445 130.244 485.807C131.34 483.951 132.051 483.771 134.006 482.644C151.487 477.539 177.284 475.843 194.827 482.761C196.816 483.546 197.955 485.035 198.416 487.082L198.523 488.847C198.063 501.453 197.741 519.312 198.324 531.843C203.958 529.167 217.099 519.919 222.822 516.125C235.243 507.89 249.101 499.269 260.968 490.4C230.405 469.602 237.328 439.623 235.263 407.572ZM143.813 534.063C143.915 535.824 143.713 539.652 144.347 540.851L144.572 547.516C145.14 549.796 144.774 549.777 146.632 551.213C147.523 551.701 154.227 555.121 154.739 555.225C155.01 554.861 155.126 554.522 155.32 554.092C155.027 552.079 154.803 550.734 154.373 548.728L154.426 547.999C154.401 545.121 153.358 535.802 152.646 533.008L152.234 531.765C152.083 528.902 151.791 526.439 151.443 523.616C150.995 515.653 150.162 508.299 150.013 500.208C149.235 500.251 148.556 500.3 147.789 500.178L147.047 500.074C143.355 499.898 141.345 499.436 141.944 503.695L142.077 504.544C142.372 506.24 142.266 507.058 142.057 508.749C141.676 511.823 142.298 515.004 142.506 518.076C142.52 521.569 142.356 520.982 143.449 523.521C144.274 525.437 143.189 530.877 143.813 534.063ZM253.878 462.159C253.949 465.395 254.452 470.47 255.199 473.629C255.552 475.522 256.058 477.357 256.686 479.176C258.463 480.514 270.043 491.964 269.523 483.748C268.728 471.195 266.23 456.313 267 443.777C266.899 439.942 267.689 439.011 263.571 438.713C259.744 437.409 255.938 436.047 252.152 434.627C252.337 437.291 252.482 439.957 252.586 442.625C252.634 448.24 253.029 456.664 253.878 462.159Z"/><path fill="#F6ECDF" fill-opacity="0.5529412" d="M147.047 500.074L147.789 500.178C148.556 500.3 149.235 500.251 150.013 500.208C150.162 508.299 150.995 515.653 151.443 523.616C150.206 523.83 147.555 525.83 147.279 527.267C146.783 529.857 144.575 531.729 143.813 534.063C143.189 530.877 144.274 525.437 143.449 523.521C142.356 520.982 142.52 521.569 142.506 518.076C143.056 517.482 144.506 515.637 145.259 515.454C145.244 515.489 145.228 515.524 145.212 515.559C145.562 515.632 145.32 515.557 145.83 516.002C145.894 516.215 145.958 516.427 146.022 516.64L146.541 516.853C148.564 515.321 147.697 514.738 148.407 512.985C149.726 509.733 146.931 507.39 148.813 504.868C149.634 503.768 149.557 504.056 150.044 502.712C149.11 501.579 148.324 500.809 147.047 500.074Z"/><path fill="#F6ECDF" fill-opacity="0.22352941" d="M144.347 540.851C144.496 538.131 143.593 537.536 145.193 534.819C148.316 529.513 149.915 531.702 151.186 530.97C151.498 530.965 152.053 531.587 152.234 531.765L152.646 533.008C152.392 534.478 151.844 536.874 151.361 538.249C149.291 544.138 152.2 544.517 154.426 547.999L154.373 548.728C151.718 549.896 152.807 547.738 149.563 548.049C147.97 548.201 146.842 546.565 146.239 545.427C146.244 545.135 146.278 545.015 146.183 544.761L146.174 544.825L145.792 544.591L146.091 544.731L145.579 544.731C144.777 545.277 144.762 546.604 144.572 547.516L144.347 540.851Z"/><path fill="#E6D3B8" fill-opacity="0.44313726" d="M141.944 503.695C146.209 503.836 146.638 504.792 150.044 502.712C149.557 504.056 149.634 503.768 148.813 504.868C146.931 507.39 149.726 509.733 148.407 512.985C147.697 514.738 148.564 515.321 146.541 516.853L146.022 516.64C145.958 516.427 145.894 516.215 145.83 516.002C145.32 515.557 145.562 515.632 145.212 515.559C145.228 515.524 145.244 515.489 145.259 515.454C144.506 515.637 143.056 517.482 142.506 518.076C142.298 515.004 141.676 511.823 142.057 508.749C142.266 507.058 142.372 506.24 142.077 504.544L141.944 503.695Z"/><path fill="#F6ECDF" fill-opacity="0.41176471" d="M143.813 534.063C144.575 531.729 146.783 529.857 147.279 527.267C147.555 525.83 150.206 523.83 151.443 523.616C151.791 526.439 152.083 528.902 152.234 531.765C152.053 531.587 151.498 530.965 151.186 530.97C149.915 531.702 148.316 529.513 145.193 534.819C143.593 537.536 144.496 538.131 144.347 540.851C143.713 539.652 143.915 535.824 143.813 534.063Z"/><path fill="#F6ECDF" fill-opacity="0.17647059" d="M146.239 545.427C146.842 546.565 147.97 548.201 149.563 548.049C152.807 547.738 151.718 549.896 154.373 548.728C154.803 550.734 155.027 552.079 155.32 554.092C155.126 554.522 155.01 554.861 154.739 555.225C154.227 555.121 147.523 551.701 146.632 551.213C146.628 551.247 146.236 545.403 146.239 545.427Z"/><path fill="#E6D3B8" fill-opacity="0.68235296" d="M152.646 533.008C153.358 535.802 154.401 545.121 154.426 547.999C152.2 544.517 149.291 544.138 151.361 538.249C151.844 536.874 152.392 534.478 152.646 533.008Z"/><path fill="#E6D3B8" fill-opacity="0.23137255" d="M141.944 503.695C141.345 499.436 143.355 499.898 147.047 500.074C148.324 500.809 149.11 501.579 150.044 502.712C146.638 504.792 146.209 503.836 141.944 503.695Z"/><path fill="#F6ECDF" fill-opacity="0.14509805" d="M144.572 547.516C144.762 546.604 144.777 545.277 145.579 544.731L146.091 544.731L145.792 544.591L146.174 544.825L146.183 544.761C146.278 545.015 146.244 545.135 146.239 545.427C146.236 545.403 146.628 551.247 146.632 551.213C144.774 549.777 145.14 549.796 144.572 547.516Z"/><path fill="#B98E59" d="M36.2163 673.936C41.0736 672.974 104.299 633.716 113.192 628.524L329.042 502.149L400.186 460.372C414.159 452.229 428.747 444.19 442.531 435.832L442.632 542.263L442.714 583.02C442.722 587.853 443.022 599.076 442.634 603.573C433.863 583.913 410.985 582.735 392.577 586.434C391.937 592.919 389.232 601.069 387.608 607.508L387.1 609.508L386.607 611.508C385.846 614.577 385.537 616.067 385.009 619.129C380.93 610.078 376.697 601.094 372.834 591.951C365.149 593.835 351.535 599.052 343.67 601.861C329.285 606.978 314.873 612.018 300.434 616.982C300.146 624.326 294.712 643.368 292.761 651.181C289.544 642.394 285.11 632.25 281.288 623.543C271.352 626.111 253.594 633.097 243.204 636.791C235.401 639.545 227.619 642.359 219.859 645.232C216.29 646.546 210.082 648.639 206.871 650.298C206.382 654.477 204.851 660.3 203.819 664.495L203.315 666.494C201.877 672.236 201.076 677.933 199.67 683.676C195.642 675.389 192.048 664.925 187.804 657.196C152.519 670.065 117.141 682.681 81.6739 695.042C65.5455 700.747 47.3955 706.651 31.6158 712.99C31.3805 707.275 29.9229 700.899 30.7655 695.133C31.4259 688.359 33.9054 680.313 36.2163 673.936Z"/><path fill="#906530" d="M30.7655 695.133C36.8908 691.901 44.7473 688.999 51.2596 686.326C60.9632 682.321 70.6333 678.236 80.269 674.071L200.331 623.254L318.756 572.95C333.589 566.53 348.472 560.227 363.404 554.04C375.279 549.142 386.332 544.389 398.802 541.203C415.259 536.999 426.631 539.414 442.632 542.263L442.714 583.02C442.722 587.853 443.022 599.076 442.634 603.573C433.863 583.913 410.985 582.735 392.577 586.434C391.937 592.919 389.232 601.069 387.608 607.508L387.1 609.508L386.607 611.508C385.846 614.577 385.537 616.067 385.009 619.129C380.93 610.078 376.697 601.094 372.834 591.951C365.149 593.835 351.535 599.052 343.67 601.861C329.285 606.978 314.873 612.018 300.434 616.982C300.146 624.326 294.712 643.368 292.761 651.181C289.544 642.394 285.11 632.25 281.288 623.543C271.352 626.111 253.594 633.097 243.204 636.791C235.401 639.545 227.619 642.359 219.859 645.232C216.29 646.546 210.082 648.639 206.871 650.298C206.382 654.477 204.851 660.3 203.819 664.495L203.315 666.494C201.877 672.236 201.076 677.933 199.67 683.676C195.642 675.389 192.048 664.925 187.804 657.196C152.519 670.065 117.141 682.681 81.6739 695.042C65.5455 700.747 47.3955 706.651 31.6158 712.99C31.3805 707.275 29.9229 700.899 30.7655 695.133Z"/><path fill="#822337" d="M372.834 591.951C372.637 584.021 377.41 580.396 385.503 580.919C388.993 581.145 390.613 583.915 392.577 586.434C391.937 592.919 389.232 601.069 387.608 607.508L387.1 609.508L386.607 611.508C385.846 614.577 385.537 616.067 385.009 619.129C380.93 610.078 376.697 601.094 372.834 591.951Z"/><path fill="#822337" d="M187.804 657.196C185.884 646.597 197.086 641.031 204.851 647.823C205.204 648.132 206.455 649.815 206.871 650.298C206.382 654.477 204.851 660.3 203.819 664.495L203.315 666.494C201.877 672.236 201.076 677.933 199.67 683.676C195.642 675.389 192.048 664.925 187.804 657.196Z"/><path fill="#822337" d="M281.288 623.543C281.463 620.318 281.477 618.275 283.693 615.687C286.727 612.184 291.908 611.51 296.022 613.357C297.961 614.228 298.863 615.722 300.434 616.982C300.146 624.326 294.712 643.368 292.761 651.181C289.544 642.394 285.11 632.25 281.288 623.543Z"/><path fill="#B98E59" d="M235.263 407.572C233.915 395.37 232.885 385.684 236.599 373.805C247.325 339.504 294.232 329.654 317.672 357.031C330.993 372.589 330.621 383.699 329.411 402.963C327.319 407.04 325.661 411.334 323.454 415.328C315.921 428.961 297.465 438.652 282.016 438.1C259.804 436.711 245.395 426.134 236.373 405.918L235.839 405.824L235.263 407.572Z"/><path fill="#45171A" d="M278.198 352.882C298.665 350.695 317.036 365.496 319.255 385.959C321.474 406.423 306.701 424.817 286.241 427.068C265.736 429.323 247.292 414.511 245.069 394.003C242.845 373.494 257.686 355.073 278.198 352.882Z"/><path fill="#FDD87F" d="M109.367 598.933C142.507 576.077 179.457 553.683 213.583 531.866L355.313 440.38L411.076 404.328C419.896 398.647 434.426 389.874 442.443 383.622L442.577 394.888C441.068 395.662 434.113 400.434 432.234 401.656C424.336 406.823 416.401 411.931 408.427 416.981C375.784 437.725 343.276 458.682 310.906 479.851C274.985 503.082 238.946 526.131 202.791 548.996L150.497 582.141C138.912 589.487 125.671 597.563 114.498 605.381L109.367 598.933Z"/><path fill="#B98E59" d="M134.006 482.644C151.487 477.539 177.284 475.843 194.827 482.761C196.816 483.546 197.955 485.035 198.416 487.082L198.523 488.847C193.723 491.794 187.351 494.244 181.654 494.057C174.375 494.745 168.639 495.341 161.337 495.372C157.078 495.39 145.087 493.618 142.176 494.271C141.447 495.739 141.6 495.884 141.749 497.497C144.524 499.531 148.825 497.191 150.013 500.208C149.235 500.251 148.556 500.3 147.789 500.178L147.047 500.074C143.355 499.898 141.345 499.436 141.944 503.695L142.077 504.544C142.372 506.24 142.266 507.058 142.057 508.749C141.676 511.823 142.298 515.004 142.506 518.076C142.52 521.569 142.356 520.982 143.449 523.521C144.274 525.437 143.189 530.877 143.813 534.063C143.915 535.824 143.713 539.652 144.347 540.851L144.572 547.516C145.14 549.796 144.774 549.777 146.632 551.213C147.523 551.701 154.227 555.121 154.739 555.225C155.01 554.861 155.126 554.522 155.32 554.092C156.548 560.234 148.985 563.961 144.449 567.133C140.776 563.718 136.503 560.703 133.672 556.59C132.694 555.168 130.49 550.823 130.449 549.375C130.107 537.058 128.527 495.445 130.244 485.807C131.34 483.951 132.051 483.771 134.006 482.644Z"/><path fill="#45171A" d="M134.006 482.644C151.487 477.539 177.284 475.843 194.827 482.761C196.816 483.546 197.955 485.035 198.416 487.082C197.614 486.513 196.977 485.559 196.008 484.823L195.523 485.458C191.494 494.317 142.087 495.22 133.957 486.573C133.408 485.99 133.833 485.207 134.01 484.372L134.006 482.644Z"/><path fill="#B98E59" d="M134.006 482.644C151.487 477.539 177.284 475.843 194.827 482.761C196.816 483.546 197.955 485.035 198.416 487.082C197.614 486.513 196.977 485.559 196.008 484.823L195.523 485.458C195.221 485.283 194.916 485.115 194.607 484.953C180.606 477.669 149.447 479.709 134.01 484.372L134.006 482.644Z"/><path fill="#4B2F17" d="M282.016 438.1C297.465 438.652 315.921 428.961 323.454 415.328C325.661 411.334 327.319 407.04 329.411 402.963C328.324 419.826 326.797 431.968 324.925 448.41C322.611 450.662 313.673 456.424 310.502 458.555C300.899 464.894 291.393 471.378 281.986 478.004C281.733 464.999 281.992 451.169 282.016 438.1Z"/><path fill="#4B2F17" d="M181.654 494.057C187.351 494.244 193.723 491.794 198.523 488.847C198.063 501.453 197.741 519.312 198.324 531.843L175.535 546.865C178.306 531.542 181.339 509.557 181.654 494.057Z"/><path fill="#E6D3B8" fill-opacity="0.28235295" d="M263.571 438.713C267.689 439.011 266.899 439.942 267 443.777C266.562 442.221 266.783 440.149 264.921 440.299C262.09 440.526 262.961 444.463 264.29 445.942C264.599 446.973 265.474 450.304 265.575 451.027C266.461 457.368 262.508 463.562 260.952 469.755C259.734 474.602 258.189 473.933 255.199 473.629C254.452 470.47 253.949 465.395 253.878 462.159C254.315 462.161 254.752 462.163 255.189 462.165C256.343 458.191 254.229 448.192 255.927 442.409C257.476 442.602 262.221 439.61 263.571 438.713Z"/><path fill="#E6D3B8" fill-opacity="0.023529412" d="M255.199 473.629C258.189 473.933 259.734 474.602 260.952 469.755C262.508 463.562 266.461 457.368 265.575 451.027C265.474 450.304 264.599 446.973 264.29 445.942C262.961 444.463 262.09 440.526 264.921 440.299C266.783 440.149 266.562 442.221 267 443.777C266.23 456.313 268.728 471.195 269.523 483.748C270.043 491.964 258.463 480.514 256.686 479.176C256.058 477.357 255.552 475.522 255.199 473.629Z"/><path fill="#FDD87F" d="M75.1184 619.946C76.9077 620.178 79.0454 623.605 80.443 625.287C73.4165 630.152 66.522 634.315 59.2044 638.675C57.7622 639.2 55.1658 635.372 53.9261 634.033C58.5806 630.461 69.9277 623.038 75.1184 619.946Z"/><path fill="#FDD87F" d="M101.5 603.855C103.388 604.498 106.113 607.645 107.608 609.127C102.889 612.212 96.6116 616.002 91.6936 618.847C90.3471 618.955 87.0423 615.598 85.7601 614.578C90.7312 610.764 96.2335 607.252 101.5 603.855Z"/><path fill="#E6D3B8" fill-opacity="0.20784314" d="M252.586 442.625C254.594 442.847 253.829 441.701 255.927 442.409C254.229 448.192 256.343 458.191 255.189 462.165C254.752 462.163 254.315 462.161 253.878 462.159C253.029 456.664 252.634 448.24 252.586 442.625Z"/><path fill="#EBA426" d="M696.621 402.82C691.138 382.995 698.856 361.877 715.829 350.258C732.802 338.639 755.281 339.086 771.779 351.37C788.277 363.655 795.148 385.063 788.882 404.655C788.595 414.239 788.214 423.821 787.74 433.398C786.644 460.557 785.983 472.078 763.689 490.36C774.133 498.071 784.817 504.893 795.673 511.999C806.256 518.927 816.893 526.164 827.632 532.824C828.464 525.33 827.036 489.083 828.946 485.138C831.933 482.285 835.375 482.046 839.468 481.175C852.317 478.773 880.382 476.786 891.71 483.474C892.819 484.306 893.601 484.726 894.234 485.959C894.379 498.292 894.435 510.626 894.402 522.96C894.425 542.994 898.021 554.537 879.255 566.894C884.586 569.787 891.805 574.912 896.969 578.36C905.031 583.719 913.143 589.001 921.304 594.207L952.68 614.263C958.185 617.751 966.639 622.805 971.731 626.733C976.135 641.57 982.808 656.655 987.331 672.104C990.356 680.051 991.899 684.032 993.222 692.597C993.139 698.768 992.787 706.234 991.004 712.195C976.711 706.729 958.765 701.134 944.02 695.915L836.134 657.628C832.339 665.426 828.684 674.857 825.145 682.936C824.639 681.034 824.148 679.128 823.672 677.219C823.497 676.502 823.293 675.71 823.126 674.994L822.652 672.994L822.165 670.994L821.937 670.007C821.679 668.924 821.388 667.822 821.135 666.744L820.662 664.73C819.701 660.611 818.038 655.124 817.56 651.127C806.09 646.537 791.089 641.929 779.101 637.434C769.775 633.937 751.984 627.111 743.208 624.896C739.004 633.181 736.017 642.51 731.475 651.07C730.883 647.859 729.624 643 729.187 640.213C728.212 634.004 723.982 623.655 723.604 618.237C721.206 616.873 702.558 610.314 698.987 609.135C683.851 604.138 666.617 596.663 651.557 592.307C647.619 601.428 644.026 609.664 639.759 618.722C638.926 615.478 638.231 612.23 637.406 609.007C637.14 608.004 636.884 607 636.637 605.993L636.158 603.993C635.017 599.189 632.23 590.651 631.979 586.34L629.537 585.785L629.511 543.985L629.587 467.334L629.514 466.99L629.457 402.19C645.224 412.36 660.739 424.15 676.673 434.225C682.492 437.905 691.553 444.676 697.537 447.315C698.202 441.661 697.19 435.073 696.985 429.277C696.671 420.428 696.295 411.685 696.621 402.82ZM848.065 546.329C848.534 546.75 848.563 546.778 849.072 547.115C850.179 547.217 852.009 547.786 852.98 547.375C853.81 547.021 853.834 545.64 853.326 545.13C851.993 543.797 850.991 542.535 850.47 540.662C849.687 537.848 847.091 536.515 845.613 539.779C844.35 542.57 846.565 544.332 848.065 546.329ZM845.58 500.834C842.577 503.261 843.405 503.064 846.796 504.346C849.052 502.136 848.084 501.662 845.58 500.834ZM718.87 461.007C719.524 461.856 719.99 462.087 720.99 462.546C727.683 466.245 728.459 466.639 727.536 457.619C727.433 453.404 727.142 448.923 727.116 444.68C727.016 440.842 726.923 439.28 722.492 437.829C719.928 436.759 716.629 435.446 714.021 434.441C713.971 436.775 713.99 438.712 714.063 441.036C714.332 443.983 714.354 446.82 714.648 449.753C714.292 454.128 715.312 458.364 718.87 461.007Z"/><path fill="#E6D3B8" fill-opacity="0.82745099" d="M848.065 546.329C846.565 544.332 844.35 542.57 845.613 539.779C847.091 536.515 849.687 537.848 850.47 540.662C850.991 542.535 851.993 543.797 853.326 545.13C853.834 545.64 853.81 547.021 852.98 547.375C852.009 547.786 850.179 547.217 849.072 547.115C848.563 546.778 848.534 546.75 848.065 546.329Z"/><path fill="#B98E59" d="M629.587 467.334C640.75 473.061 653.264 481.029 664.312 487.365L732.134 526.289L884.412 613.41L954.709 653.538L976.159 665.827C978.741 667.314 984.889 671.075 987.331 672.104C990.356 680.051 991.899 684.032 993.222 692.597C993.139 698.768 992.787 706.234 991.004 712.195C976.711 706.729 958.765 701.134 944.02 695.915L836.134 657.628C832.339 665.426 828.684 674.857 825.145 682.936C824.639 681.034 824.148 679.128 823.672 677.219C823.497 676.502 823.293 675.71 823.126 674.994L822.652 672.994L822.165 670.994L821.937 670.007C821.679 668.924 821.388 667.822 821.135 666.744L820.662 664.73C819.701 660.611 818.038 655.124 817.56 651.127C806.09 646.537 791.089 641.929 779.101 637.434C769.775 633.937 751.984 627.111 743.208 624.896C739.004 633.181 736.017 642.51 731.475 651.07C730.883 647.859 729.624 643 729.187 640.213C728.212 634.004 723.982 623.655 723.604 618.237C721.206 616.873 702.558 610.314 698.987 609.135C683.851 604.138 666.617 596.663 651.557 592.307C647.619 601.428 644.026 609.664 639.759 618.722C638.926 615.478 638.231 612.23 637.406 609.007C637.14 608.004 636.884 607 636.637 605.993L636.158 603.993C635.017 599.189 632.23 590.651 631.979 586.34L629.537 585.785L629.511 543.985L629.587 467.334Z"/><path fill="#906530" d="M629.511 543.985C648.327 549.183 663.653 555.613 681.653 563.148C699.202 570.486 716.706 577.934 734.162 585.491L862.416 638.735L956.988 677.728C964.649 680.941 972.328 684.109 980.027 687.231C982.969 688.412 990.871 691.328 993.222 692.597C993.139 698.768 992.787 706.234 991.004 712.195C976.711 706.729 958.765 701.134 944.02 695.915L836.134 657.628C832.339 665.426 828.684 674.857 825.145 682.936C824.639 681.034 824.148 679.128 823.672 677.219C823.497 676.502 823.293 675.71 823.126 674.994L822.652 672.994L822.165 670.994L821.937 670.007C821.679 668.924 821.388 667.822 821.135 666.744L820.662 664.73C819.701 660.611 818.038 655.124 817.56 651.127C806.09 646.537 791.089 641.929 779.101 637.434C769.775 633.937 751.984 627.111 743.208 624.896C739.004 633.181 736.017 642.51 731.475 651.07C730.883 647.859 729.624 643 729.187 640.213C728.212 634.004 723.982 623.655 723.604 618.237C721.206 616.873 702.558 610.314 698.987 609.135C683.851 604.138 666.617 596.663 651.557 592.307C647.619 601.428 644.026 609.664 639.759 618.722C638.926 615.478 638.231 612.23 637.406 609.007C637.14 608.004 636.884 607 636.637 605.993L636.158 603.993C635.017 599.189 632.23 590.651 631.979 586.34L629.537 585.785L629.511 543.985Z"/><path fill="#822337" d="M723.604 618.237L724.073 617.671C732.051 607.875 744.221 613.494 743.208 624.896C739.004 633.181 736.017 642.51 731.475 651.07C730.883 647.859 729.624 643 729.187 640.213C728.212 634.004 723.982 623.655 723.604 618.237Z"/><path fill="#822337" d="M635.962 581.93C637.769 581.31 639.554 580.684 641.4 580.183C648.376 582.713 651.766 584.475 651.557 592.307C647.619 601.428 644.026 609.664 639.759 618.722C638.926 615.478 638.231 612.23 637.406 609.007C637.14 608.004 636.884 607 636.637 605.993L636.158 603.993C635.017 599.189 632.23 590.651 631.979 586.34C633.271 585.216 634.672 583.294 635.962 581.93Z"/><path fill="#822337" d="M817.56 651.127C822.18 640.412 838.646 645.15 836.134 657.628C832.339 665.426 828.684 674.857 825.145 682.936C824.639 681.034 824.148 679.128 823.672 677.219C823.497 676.502 823.293 675.71 823.126 674.994L822.652 672.994L822.165 670.994L821.937 670.007C821.679 668.924 821.388 667.822 821.135 666.744L820.662 664.73C819.701 660.611 818.038 655.124 817.56 651.127Z"/><path fill="#B98E59" d="M696.621 402.82C691.138 382.995 698.856 361.877 715.829 350.258C732.802 338.639 755.281 339.086 771.779 351.37C788.277 363.655 795.148 385.063 788.882 404.655C788.75 405.067 788.612 405.477 788.47 405.886C788.232 406.565 787.979 407.238 787.711 407.906C781.063 424.486 765.78 436.022 748.013 437.873C724.62 440.31 702.89 425.488 696.621 402.82Z"/><path fill="#45171A" d="M739.973 352.836C760.46 351.147 778.477 366.292 780.334 386.765C782.192 407.237 767.196 425.379 746.739 427.405C726.043 429.455 707.642 414.244 705.763 393.532C703.884 372.819 719.245 354.545 739.973 352.836Z"/><path fill="#4B2F17" d="M788.47 405.886C788.612 405.477 788.75 405.067 788.882 404.655C788.595 414.239 788.214 423.821 787.74 433.398C786.644 460.557 785.983 472.078 763.689 490.36C760.341 488.694 749.581 480.992 746.182 478.647C746.913 464.997 747.738 451.559 748.013 437.873C765.78 436.022 781.063 424.486 787.711 407.906C787.979 407.238 788.232 406.565 788.47 405.886Z"/><path fill="#6F512A" d="M788.47 405.886L788.356 406.713C788.371 407.325 788.394 407.554 788.266 408.133L788.278 408.195C788.234 408.201 788.19 408.208 788.146 408.214L787.711 407.906C787.979 407.238 788.232 406.565 788.47 405.886Z"/><path fill="#B98E59" d="M839.468 481.175C852.317 478.773 880.382 476.786 891.71 483.474C892.819 484.306 893.601 484.726 894.234 485.959C894.117 487.807 894.436 488.918 893.076 490.068C889.444 493.14 879.534 494.338 875.036 494.248C873.633 494.121 842.363 494.414 842.38 494.407C841.652 495.758 841.676 496.829 841.955 498.357C840.429 504.844 844.19 535.526 844.567 543.751C840.298 541.115 831.106 535.882 827.632 532.824C828.464 525.33 827.036 489.083 828.946 485.138C831.933 482.285 835.375 482.046 839.468 481.175Z"/><path fill="#45171A" d="M839.468 481.175C852.317 478.773 880.382 476.786 891.71 483.474L891.605 485.899C888.911 494.337 839.909 493.825 832.217 487.22C831.199 483.749 837.253 483.064 839.803 482.437L839.468 481.175Z"/><path fill="#B98E59" d="M839.468 481.175C852.317 478.773 880.382 476.786 891.71 483.474L891.605 485.899C882.628 478.312 851.367 480.817 839.803 482.437L839.468 481.175Z"/><path fill="#4B2F17" d="M894.234 485.959C894.379 498.292 894.435 510.626 894.402 522.96C894.425 542.994 898.021 554.537 879.255 566.894C876.557 566.005 871.685 561.789 869.432 559.936C871.7 558.88 873.244 557.942 875.373 556.672C875.69 550.506 875.327 541.525 875.282 535.123L875.036 494.248C879.534 494.338 889.444 493.14 893.076 490.068C894.436 488.918 894.117 487.807 894.234 485.959Z"/><path fill="#E6D3B8" d="M841.955 498.357C844.768 498.56 847.63 498.722 850.425 499.069C850.362 514.159 853.268 536.374 855.678 551.371C853.585 550.077 850.994 548.583 849.072 547.115C850.179 547.217 852.009 547.786 852.98 547.375C853.81 547.021 853.834 545.64 853.326 545.13C851.993 543.797 850.991 542.535 850.47 540.662C849.687 537.848 847.091 536.515 845.613 539.779C844.35 542.57 846.565 544.332 848.065 546.329C846.568 545.387 845.934 544.886 844.567 543.751C844.19 535.526 840.429 504.844 841.955 498.357ZM846.796 504.346C849.052 502.136 848.084 501.662 845.58 500.834C842.577 503.261 843.405 503.064 846.796 504.346Z"/><path fill="#E6D3B8" fill-opacity="0.86274511" d="M845.58 500.834C848.084 501.662 849.052 502.136 846.796 504.346C843.405 503.064 842.577 503.261 845.58 500.834Z"/><path fill="#E6D3B8" fill-opacity="0.42352942" d="M722.492 437.829C726.923 439.28 727.016 440.842 727.116 444.68C725.353 444.096 725.127 444.41 724.038 446.526C722.771 448.988 720.683 452.449 720.081 454.972C719.403 457.81 719.643 456.198 718.343 458.206C718.411 459.021 718.787 459.705 718.87 461.007C715.312 458.364 714.292 454.128 714.648 449.753C716.59 446.681 714.197 443.635 715.76 442.804C717.362 441.953 719.686 446.108 720.523 440.071C721.321 438.902 721.448 438.769 722.492 437.829Z"/><path fill="#E6D3B8" fill-opacity="0.56862748" d="M727.116 444.68C727.142 448.923 727.433 453.404 727.536 457.619C725.645 459.8 720.755 461.402 720.99 462.546C719.99 462.087 719.524 461.856 718.87 461.007C718.787 459.705 718.411 459.021 718.343 458.206C719.643 456.198 719.403 457.81 720.081 454.972C720.683 452.449 722.771 448.988 724.038 446.526C725.127 444.41 725.353 444.096 727.116 444.68Z"/><path fill="#E6D3B8" fill-opacity="0.3764706" d="M720.99 462.546C720.755 461.402 725.645 459.8 727.536 457.619C728.459 466.639 727.683 466.245 720.99 462.546Z"/><path fill="#E6D3B8" fill-opacity="0.41176471" d="M720.523 440.071C719.686 446.108 717.362 441.953 715.76 442.804C714.197 443.635 716.59 446.681 714.648 449.753C714.354 446.82 714.332 443.983 714.063 441.036C714.751 441.455 719.659 440.349 720.523 440.071Z"/><path fill="#B98E59" d="M462.002 864.595L462.425 865.239C465.357 863.701 467.446 862.112 470.184 860.449C469.107 871.746 469.178 887.118 470.779 898.438C473.059 914.346 474.582 923.025 479.566 938.331C480.146 939.992 480.82 942.127 481.477 943.713C482.012 945.2 482.59 946.645 483.145 948.122L483.389 948.929C484.469 952.653 486.808 957.04 488.604 960.48C487.178 962.069 452.337 972.102 447.352 973.599C407.484 985.377 367.712 997.476 328.04 1009.89C317.15 1013.21 298.756 1018.09 288.915 1022.01C288.872 1018.33 288.959 1013.68 288.769 1010.08C288.828 1007.3 288.846 1005.36 289.255 1002.57C290.086 991.244 294.689 980.519 302.33 972.112C311.18 962.432 343.329 942.881 356.268 934.406C382.557 916.963 408.963 899.699 435.486 882.614C439.57 880 460.052 867.556 462.002 864.595Z"/><path fill="#EBA426" d="M462.002 864.595L462.425 865.239C465.357 863.701 467.446 862.112 470.184 860.449C469.107 871.746 469.178 887.118 470.779 898.438C438.016 918.317 402.985 937.088 369.701 956.33L318.369 985.866C310.632 990.366 296.813 999.009 289.255 1002.57C290.086 991.244 294.689 980.519 302.33 972.112C311.18 962.432 343.329 942.881 356.268 934.406C382.557 916.963 408.963 899.699 435.486 882.614C439.57 880 460.052 867.556 462.002 864.595Z"/><path fill="#FDD87F" d="M463.574 873.103C464.574 874.231 465.892 877.719 466.578 879.301C460.444 883.774 375.522 937.511 373.212 937.855L368.276 933.122C373.216 929.335 385.417 922.499 391.458 918.515C415.128 902.904 439.836 888.615 463.574 873.103Z"/><path fill="#FDD87F" d="M359.536 939.375C361.709 939.868 362.636 942.096 363.843 943.852C358.437 947.608 351.961 951.374 346.848 955.032C345.213 953.033 343.81 951.573 342.006 949.714C347.59 946.505 354.032 942.728 359.536 939.375Z"/><path fill="#FDD87F" d="M336.634 954.082C337.94 954.901 339.511 957.331 340.412 958.616C340.191 958.767 339.969 958.917 339.748 959.068L324.063 969.584C322.677 968.799 321.099 965.829 320.21 964.333C325.423 960.868 331.272 957.35 336.634 954.082Z"/><path fill="#906530" d="M288.769 1010.08C294.166 1007.16 303.644 1003.97 309.616 1001.75L342.703 989.3L434.656 955.191C449.707 949.631 464.411 943.793 479.566 938.331C480.146 939.992 480.82 942.127 481.477 943.713C482.012 945.2 482.59 946.645 483.145 948.122L483.389 948.929C484.469 952.653 486.808 957.04 488.604 960.48C487.178 962.069 452.337 972.102 447.352 973.599C407.484 985.377 367.712 997.476 328.04 1009.89C317.15 1013.21 298.756 1018.09 288.915 1022.01C288.872 1018.33 288.959 1013.68 288.769 1010.08Z"/><path fill="#B98E59" d="M605.14 893.475L678.357 940.106C689.586 947.272 711.251 959.652 719.639 968.09C726.517 975.067 731.299 983.833 733.442 993.392C734.156 996.62 734.528 999.915 734.554 1003.22L734.558 1004.46C735.316 1009.58 735.401 1018.52 735.639 1024L732.531 1024L732.202 1020.8C728.3 1019.19 721.831 1017.54 717.631 1016.28L691.157 1008.27L618.283 986.112C616.567 980.426 614.447 970.178 613.395 964.257L613.248 963.838C610.133 950.198 608.206 941.035 606.889 927.111L606.692 926.52C605.92 917.35 604.628 902.429 605.14 893.475Z"/><path fill="#EBA426" d="M605.14 893.475L678.357 940.106C689.586 947.272 711.251 959.652 719.639 968.09C726.517 975.067 731.299 983.833 733.442 993.392C734.156 996.62 734.528 999.915 734.554 1003.22L732.802 1001.93C727.168 997.777 717.46 992.394 711.143 988.626C698.53 980.969 685.825 973.467 673.029 966.121C650.741 953.244 629.483 939.832 606.889 927.111L606.692 926.52C605.92 917.35 604.628 902.429 605.14 893.475Z"/><path fill="#906530" d="M613.395 964.257C637.026 972.715 660.934 982.15 684.593 990.77C700.536 996.578 718.73 1002.92 734.184 1009.45C734.671 1007.52 734.563 1006.47 734.558 1004.46C735.316 1009.58 735.401 1018.52 735.639 1024L732.531 1024L732.202 1020.8C728.3 1019.19 721.831 1017.54 717.631 1016.28L691.157 1008.27L618.283 986.112C616.567 980.426 614.447 970.178 613.395 964.257Z"/><path fill="#822337" d="M971.731 626.733C992.018 639.559 1016.13 671.137 1020.83 694.716C1021.19 696.558 1021.51 699.111 1022.64 700.396C1023.62 699.925 1023.16 700.228 1024 699.473L1024 724.018C1012.96 720.182 1001.96 716.241 991.004 712.195C992.787 706.234 993.139 698.768 993.222 692.597C991.899 684.032 990.356 680.051 987.331 672.104C982.808 656.655 976.135 641.57 971.731 626.733Z"/><path fill="#822337" d="M51.4215 627.718C50.6585 631.676 48.6544 636.949 47.3376 640.884C45.2872 647.207 43.1974 653.517 41.0684 659.814C39.5925 664.075 37.3521 669.732 36.2163 673.936C33.9054 680.313 31.4259 688.359 30.7655 695.133C29.9229 700.899 31.3805 707.275 31.6158 712.99C21.0986 716.904 10.4824 720.474 0 724.407L0 704.661C0.472558 704.341 1.44591 703.751 1.5634 703.091C7.00053 672.541 26.1795 645.495 51.4215 627.718Z"/><path fill="#F6ECDF" fill-opacity="0.98039216" d="M486.701 945.335C487.072 947.228 488.141 950.706 488.67 952.709L488.889 953.509C489.427 955.609 490.002 957.699 490.615 959.778C490.005 959.94 489.22 960.253 488.604 960.48C486.808 957.04 484.469 952.653 483.389 948.929L483.145 948.122C486.469 948.472 485.094 948.592 486.296 946.145L486.701 945.335Z"/><path fill="#F6ECDF" fill-opacity="0.4627451" d="M481.477 943.713C483.359 940.144 482.888 941.516 485.801 942.091C486.286 943.446 486.414 943.939 486.701 945.335L486.296 946.145C485.094 948.592 486.469 948.472 483.145 948.122C482.59 946.645 482.012 945.2 481.477 943.713Z"/></svg>